<?xml version="1.0" standalone="no"?>
<!DOCTYPE svg PUBLIC "-//W3C//DTD SVG 20010904//EN"
 "http://www.w3.org/TR/2001/REC-SVG-20010904/DTD/svg10.dtd">
<svg version="1.0" xmlns="http://www.w3.org/2000/svg"
 width="1000.000000pt" height="800.000000pt" viewBox="0 0 1000.000000 800.000000"
 preserveAspectRatio="xMidYMid meet">
<metadata>
Created by potrace 1.13, written by Peter Selinger 2001-2015
</metadata>
<g transform="translate(0.000000,800.000000) scale(0.100000,-0.100000)"
fill="#000000" stroke="none">
<path d="M119 7788 c-1 -27 -2 -54 -3 -60 -1 -7 10 -15 24 -17 24 -3 25 -3 7
17 -12 13 -16 28 -13 40 4 10 2 30 -3 43 -8 21 -10 18 -12 -23z"/>
<path d="M9715 7772 c0 -51 2 -57 23 -60 25 -4 30 13 6 22 -12 4 -14 13 -10
32 7 27 0 64 -12 64 -4 0 -7 -26 -7 -58z"/>
<path d="M325 7810 c-18 -8 -17 -9 8 -9 16 -1 26 3 22 9 -3 6 -7 10 -8 9 -1 0
-11 -4 -22 -9z"/>
<path d="M728 7813 c-10 -2 -18 -13 -18 -24 0 -17 3 -18 20 -9 11 6 20 17 20
25 0 8 -1 14 -2 14 -2 -1 -11 -3 -20 -6z"/>
<path d="M710 7736 c0 -12 10 -16 40 -16 22 0 40 4 40 9 0 4 -11 6 -25 3 -14
-2 -32 1 -40 8 -12 10 -15 9 -15 -4z"/>
<path d="M9357 7743 c-12 -11 -8 -23 8 -23 8 0 15 7 15 15 0 16 -12 20 -23 8z"/>
<path d="M955 7730 c-3 -5 1 -10 9 -10 9 0 16 5 16 10 0 6 -4 10 -9 10 -6 0
-13 -4 -16 -10z"/>
<path d="M9320 7719 c0 -5 5 -7 10 -4 6 3 10 8 10 11 0 2 -4 4 -10 4 -5 0 -10
-5 -10 -11z"/>
<path d="M320 7710 c0 -5 5 -10 10 -10 6 0 10 5 10 10 0 6 -4 10 -10 10 -5 0
-10 -4 -10 -10z"/>
<path d="M430 7680 c0 -5 5 -10 11 -10 5 0 7 5 4 10 -3 6 -8 10 -11 10 -2 0
-4 -4 -4 -10z"/>
<path d="M645 7680 c-3 -5 1 -10 9 -10 9 0 16 5 16 10 0 6 -4 10 -9 10 -6 0
-13 -4 -16 -10z"/>
<path d="M9040 7680 c0 -5 5 -10 10 -10 6 0 10 5 10 10 0 6 -4 10 -10 10 -5 0
-10 -4 -10 -10z"/>
<path d="M9650 7679 c0 -5 5 -7 10 -4 6 3 10 8 10 11 0 2 -4 4 -10 4 -5 0 -10
-5 -10 -11z"/>
<path d="M70 7595 c0 -43 4 -75 10 -75 6 0 10 32 10 75 0 43 -4 75 -10 75 -6
0 -10 -32 -10 -75z"/>
<path d="M9670 7595 c0 -43 4 -75 10 -75 6 0 10 32 10 75 0 43 -4 75 -10 75
-6 0 -10 -32 -10 -75z"/>
<path d="M406 7511 c-4 -7 -5 -15 -2 -18 9 -9 19 4 14 18 -4 11 -6 11 -12 0z"/>
<path d="M9060 7500 c0 -5 5 -10 10 -10 6 0 10 5 10 10 0 6 -4 10 -10 10 -5 0
-10 -4 -10 -10z"/>
<path d="M9400 7485 c0 -8 5 -15 10 -15 6 0 10 7 10 15 0 8 -4 15 -10 15 -5 0
-10 -7 -10 -15z"/>
<path d="M58 7474 c-11 -20 -18 -64 -9 -64 19 0 31 28 23 50 -5 13 -11 19 -14
14z"/>
<path d="M661 7471 c-10 -6 -10 -10 -1 -16 13 -8 24 -1 19 14 -3 6 -10 7 -18
2z"/>
<path d="M9066 7471 c-4 -7 -5 -15 -2 -18 9 -9 19 4 14 18 -4 11 -6 11 -12 0z"/>
<path d="M9658 7474 c-11 -20 -18 -64 -9 -64 19 0 31 28 23 50 -5 13 -11 19
-14 14z"/>
<path d="M458 7463 c7 -3 16 -2 19 1 4 3 -2 6 -13 5 -11 0 -14 -3 -6 -6z"/>
<path d="M9420 7440 c-8 -5 -11 -12 -7 -16 3 -4 12 -2 20 4 7 6 46 13 87 15
l75 3 -80 2 c-44 1 -87 -2 -95 -8z"/>
<path d="M420 7425 c0 -8 7 -15 16 -15 14 0 14 3 4 15 -7 8 -14 15 -16 15 -2
0 -4 -7 -4 -15z"/>
<path d="M650 7425 c-10 -12 -10 -15 4 -15 9 0 16 7 16 15 0 8 -2 15 -4 15 -2
0 -9 -7 -16 -15z"/>
<path d="M9360 7371 c0 -5 5 -13 10 -16 6 -3 10 -2 10 4 0 5 -4 13 -10 16 -5
3 -10 2 -10 -4z"/>
<path d="M105 7190 c3 -5 8 -10 11 -10 2 0 4 5 4 10 0 6 -5 10 -11 10 -5 0 -7
-4 -4 -10z"/>
<path d="M323 7163 c9 -2 23 -2 30 0 6 3 -1 5 -18 5 -16 0 -22 -2 -12 -5z"/>
<path d="M120 7129 c0 -7 231 -19 239 -13 2 2 2 6 0 8 -8 7 -239 12 -239 5z"/>
<path d="M715 7131 c-6 -11 9 -23 19 -14 9 9 7 23 -3 23 -6 0 -12 -4 -16 -9z"/>
<path d="M9355 7130 c-3 -5 -1 -10 4 -10 6 0 11 5 11 10 0 6 -2 10 -4 10 -3 0
-8 -4 -11 -10z"/>
<path d="M9720 7128 c0 -4 64 -7 143 -7 78 1 135 3 127 5 -34 7 -270 9 -270 2z"/>
<path d="M1905 7079 c-97 -25 -136 -48 -212 -126 -65 -66 -75 -81 -97 -151
l-24 -77 0 -2035 c-1 -1390 3 -2051 10 -2085 34 -162 190 -308 358 -335 88
-14 6150 -14 6272 0 101 12 157 38 246 117 60 52 115 145 127 213 3 19 5 523
5 1120 0 597 0 1090 0 1096 0 7 -29 12 -82 13 -161 3 -312 78 -431 213 -30 35
-67 88 -82 118 -14 30 -30 63 -36 72 -5 10 -9 29 -9 44 0 14 -5 35 -11 46 -15
27 -14 257 0 271 6 6 11 22 11 34 0 13 9 43 20 65 11 23 20 48 20 55 0 7 3 13
8 13 4 0 16 15 26 34 17 31 35 51 135 145 72 69 261 139 371 139 25 0 50 1 55
1 6 1 10 119 10 334 0 366 0 363 -66 473 -64 106 -184 189 -288 200 -25 3
-1448 6 -3161 7 -2806 2 -3121 0 -3175 -14z m2501 -480 c39 -15 74 -39 113
-78 79 -78 97 -121 120 -288 12 -87 -6 -163 -39 -163 -11 0 -22 -4 -25 -10 -3
-5 -14 -10 -23 -10 -24 0 -74 -50 -118 -115 -39 -60 -59 -75 -97 -75 -14 0
-58 -14 -98 -31 -65 -28 -80 -31 -135 -25 l-62 6 -1 -54 c0 -73 -27 -298 -47
-400 -9 -47 -14 -90 -12 -98 4 -9 28 -14 74 -16 38 -1 116 -7 173 -14 86 -9
105 -14 109 -30 3 -11 20 -22 46 -28 88 -22 189 -49 226 -60 14 -4 61 -18 105
-30 75 -21 165 -51 210 -71 11 -4 51 -22 89 -39 40 -17 86 -30 110 -30 46 0
96 -12 174 -41 28 -10 78 -29 110 -40 31 -12 76 -30 99 -40 24 -11 49 -19 57
-19 8 0 18 -4 21 -10 3 -5 16 -10 29 -10 12 0 26 -3 29 -6 7 -7 63 -28 170
-64 32 -11 72 -26 90 -34 18 -8 55 -22 82 -31 28 -9 64 -22 80 -29 17 -7 48
-18 70 -25 22 -7 50 -17 63 -22 58 -24 156 -58 204 -71 37 -10 228 0 403 22
44 6 115 13 158 16 42 3 77 10 77 14 0 5 14 3 30 -3 17 -6 30 -15 30 -19 0 -4
7 -8 15 -8 22 0 18 18 -7 34 -31 19 -78 29 -78 16 0 -17 -145 -13 -160 5 -7 8
-17 12 -23 8 -6 -4 -3 -11 8 -19 28 -21 10 -29 -34 -16 -21 7 -48 12 -60 12
-41 0 -20 18 29 24 59 8 65 23 13 31 -21 3 -47 11 -58 17 -51 28 -60 34 -79
51 -11 9 -24 17 -28 17 -5 0 -18 9 -30 20 -12 11 -28 20 -35 20 -7 0 -13 4
-13 8 0 5 -21 20 -47 33 -27 13 -49 27 -51 32 -2 4 -9 7 -15 7 -15 0 -155 69
-162 80 -3 4 -14 6 -25 3 -14 -4 -20 0 -20 10 0 10 -6 13 -20 10 -14 -4 -20 0
-20 11 0 10 -5 14 -11 11 -12 -8 -457 211 -480 237 -9 10 -24 18 -33 18 -9 0
-16 5 -16 10 0 6 -6 10 -14 10 -18 0 -136 61 -160 83 -11 9 -25 17 -31 17 -6
0 -17 9 -25 20 -8 11 -22 20 -32 20 -10 0 -18 4 -18 8 0 5 -12 15 -27 23 -32
16 -193 172 -193 186 0 5 -9 19 -21 32 -11 12 -18 29 -15 37 3 8 -1 14 -9 14
-10 0 -15 10 -15 30 0 17 -4 30 -10 30 -6 0 -10 52 -10 135 0 103 3 135 13
135 9 0 11 12 9 40 -3 30 0 40 10 40 10 0 13 9 10 30 -3 18 0 30 7 30 6 0 11
7 11 15 0 9 9 25 20 37 11 12 20 28 20 35 0 7 7 13 15 13 8 0 12 6 9 14 -6 14
76 106 94 106 4 0 18 9 31 21 12 11 29 18 37 15 8 -3 14 1 14 10 0 11 6 15 20
11 14 -3 20 0 20 10 0 11 8 14 30 11 21 -3 30 0 30 9 0 8 8 13 18 11 11 -2 26
3 35 11 10 8 31 12 52 9 25 -3 35 0 35 10 0 10 13 13 49 11 29 -2 56 3 64 10
10 7 41 11 84 10 38 -1 79 3 91 10 14 8 84 12 200 13 97 0 211 3 252 6 102 7
267 7 310 -1 19 -3 89 -6 154 -6 84 0 121 -4 127 -12 5 -8 27 -12 58 -10 28 1
61 -4 73 -10 13 -7 41 -11 64 -10 25 1 45 -4 53 -12 6 -8 22 -12 36 -9 14 2
32 -2 41 -9 9 -7 29 -12 45 -11 20 3 29 -1 29 -11 0 -10 7 -13 20 -10 14 4 20
0 20 -11 0 -10 5 -14 11 -10 20 12 109 -46 109 -72 0 -7 8 -10 20 -7 15 4 20
0 20 -14 0 -10 9 -25 20 -33 11 -8 20 -22 20 -32 0 -10 5 -18 11 -18 6 0 9 -9
6 -20 -3 -14 0 -20 10 -20 11 0 14 -8 11 -30 -3 -20 0 -30 9 -30 10 0 13 -20
13 -80 0 -47 4 -80 10 -80 13 0 13 -87 0 -92 -12 -4 -13 -398 0 -460 5 -25 8
-96 6 -158 -2 -101 5 -148 17 -103 4 14 5 13 6 -4 0 -13 7 -23 14 -24 6 0 4
-4 -7 -8 -17 -7 -18 -8 -1 -24 12 -12 16 -29 13 -52 -3 -25 0 -35 10 -35 9 0
13 -10 10 -29 -1 -16 3 -36 11 -44 7 -9 11 -27 9 -40 -1 -13 3 -32 11 -40 7
-9 11 -23 8 -31 -3 -8 1 -20 9 -27 10 -8 14 -24 12 -41 -3 -19 0 -28 9 -28 10
0 14 -9 11 -29 -1 -16 3 -36 11 -45 7 -8 11 -22 8 -30 -3 -8 1 -20 9 -27 8 -7
14 -25 12 -39 -1 -15 4 -35 11 -44 7 -9 11 -27 8 -42 -2 -15 2 -31 10 -40 9
-8 13 -25 10 -39 -3 -17 0 -25 10 -25 10 0 14 -9 11 -29 -1 -16 3 -35 10 -44
7 -8 12 -28 10 -43 -1 -16 4 -39 11 -52 7 -13 11 -38 10 -57 -2 -18 3 -40 10
-48 8 -10 12 -37 10 -72 -2 -33 2 -60 9 -67 17 -17 17 -429 0 -446 -7 -7 -11
-33 -9 -60 1 -32 -2 -52 -12 -60 -8 -7 -12 -22 -9 -37 2 -14 -2 -32 -9 -41 -7
-9 -12 -29 -11 -45 3 -21 -1 -29 -13 -29 -9 0 -13 -5 -10 -10 7 -12 -16 -70
-27 -70 -5 0 -8 -6 -8 -13 0 -24 -29 -74 -55 -93 -14 -10 -25 -25 -25 -32 0
-16 -24 -42 -39 -42 -6 0 -24 -14 -39 -30 -16 -17 -33 -30 -39 -30 -5 0 -19
-9 -32 -21 -12 -11 -29 -18 -37 -15 -8 3 -14 -1 -14 -10 0 -11 -6 -15 -20 -11
-14 3 -20 0 -20 -10 0 -10 -6 -14 -20 -10 -10 3 -25 -2 -32 -10 -7 -9 -23 -13
-40 -11 -19 3 -28 0 -28 -9 0 -11 -14 -14 -59 -12 -37 1 -66 -2 -75 -10 -8 -7
-35 -11 -60 -10 -26 2 -51 -2 -58 -9 -16 -16 -1728 -18 -1745 -1 -7 7 -73 10
-192 9 -142 -1 -181 2 -181 12 0 10 -18 12 -70 10 -53 -3 -70 0 -70 10 0 10
-15 12 -60 10 -39 -3 -60 0 -60 7 0 6 -13 11 -30 11 -19 0 -30 5 -30 14 0 9
-8 12 -25 9 -24 -5 -55 15 -55 36 0 6 -7 8 -15 5 -15 -6 -45 17 -45 34 0 6
-10 8 -22 4 -18 -4 -20 -2 -16 16 4 12 2 22 -4 22 -18 0 -38 28 -38 54 0 14
-4 26 -10 26 -6 0 -10 42 -10 105 0 63 4 105 10 105 6 0 10 18 10 40 0 22 5
40 10 40 6 0 10 14 10 30 0 19 5 30 14 30 9 0 12 7 9 20 -4 14 0 20 10 20 10
0 13 6 10 20 -4 14 0 20 11 20 9 0 13 6 10 15 -6 15 17 45 35 45 6 0 8 6 5 14
-8 20 82 110 102 102 8 -3 14 -1 14 5 0 18 30 41 45 35 9 -3 15 1 15 10 0 11
6 15 20 11 14 -3 20 0 20 10 0 10 6 14 20 10 14 -3 20 0 20 10 0 11 8 14 30
11 21 -3 30 0 30 10 0 10 9 13 30 10 21 -3 30 0 30 9 0 11 13 14 50 12 29 -2
55 2 62 9 7 7 38 12 70 12 32 0 58 4 58 10 0 6 67 10 180 10 113 0 180 4 180
10 0 6 77 10 210 10 142 0 210 3 210 11 0 7 34 9 100 7 78 -2 100 0 100 10 0
10 15 13 60 10 46 -2 60 0 60 11 0 9 11 12 40 9 29 -3 40 0 40 10 0 10 9 13
30 10 20 -3 30 0 30 9 0 7 -6 13 -12 14 -10 0 -10 2 -1 5 7 3 21 0 33 -6 16
-8 20 -8 18 2 -2 8 6 13 20 12 12 0 22 5 22 13 0 7 2 13 4 13 2 0 11 3 20 6
11 4 16 1 16 -10 0 -9 6 -16 14 -16 22 0 30 19 12 26 -9 3 -13 10 -10 16 3 5
12 4 20 -3 21 -17 29 -3 16 26 -14 30 -28 32 -37 5 -7 -22 -25 -26 -43 -8 -8
8 -14 5 -21 -15 -6 -15 -18 -27 -28 -28 -58 -3 -112 5 -144 22 -41 20 -116
102 -125 136 -5 20 -13 21 -142 26 -165 7 -396 23 -512 37 -140 16 -234 28
-260 35 -14 3 -45 11 -70 17 -43 9 -89 27 -100 38 -3 3 -19 15 -37 28 -30 21
-42 22 -190 22 -87 0 -203 5 -258 10 -55 6 -145 16 -200 21 -55 6 -159 19
-232 30 -160 23 -192 24 -199 4 -4 -10 -20 -15 -44 -15 -22 0 -42 -6 -46 -12
-5 -7 -7 -84 -5 -171 2 -156 2 -159 -20 -164 -22 -6 -22 -8 -15 -127 8 -151
14 -236 26 -401 14 -174 11 -252 -11 -295 -17 -35 -144 -164 -209 -212 -88
-66 -134 -80 -284 -89 -157 -9 -239 -15 -401 -29 -60 -5 -186 -14 -280 -20
-93 -6 -201 -16 -240 -22 -73 -12 -80 -16 -215 -110 -45 -32 -86 -58 -91 -58
-5 0 -9 -4 -9 -8 0 -9 -119 -98 -143 -108 -9 -3 -30 4 -47 16 -25 17 -30 28
-30 60 0 21 -5 42 -10 45 -17 11 -11 54 10 67 22 14 28 76 9 95 -8 8 -1 21 27
50 22 21 50 55 64 76 14 20 28 37 33 37 4 0 7 5 7 10 0 6 19 36 42 66 36 49
40 58 29 76 -14 23 -1 45 36 59 19 7 21 13 16 44 -3 19 -2 35 3 36 5 1 24 2
42 4 19 1 39 8 45 14 6 6 30 11 54 11 37 0 55 -8 119 -56 86 -64 66 -64 224
-5 47 18 108 39 135 47 28 8 59 19 70 23 11 5 54 19 95 31 41 12 87 27 102 32
15 6 73 11 128 12 55 0 100 5 100 10 0 12 -60 195 -76 233 -8 17 -17 45 -20
62 -4 17 -11 34 -15 37 -5 3 -9 14 -9 25 0 10 -6 19 -14 19 -34 0 -63 47 -96
150 -18 58 -46 144 -61 191 -16 48 -29 94 -29 103 0 9 -4 24 -9 34 -5 9 -14
44 -21 77 -6 33 -15 76 -20 95 -25 99 -32 168 -28 264 2 58 1 106 -3 106 -3 0
-14 17 -24 38 -10 20 -22 45 -26 54 -28 56 10 455 61 648 5 19 26 103 45 185
20 83 42 155 48 162 7 6 55 28 107 48 152 58 142 71 -25 34 -49 -11 -126 -27
-170 -35 -154 -29 -150 -27 -280 -154 -139 -137 -255 -240 -271 -240 -6 0 -14
-19 -18 -42 -19 -130 -29 -149 -111 -214 -83 -65 -160 -90 -215 -71 -37 13
-59 33 -60 55 0 8 25 43 56 79 58 69 64 88 17 56 -15 -10 -41 -25 -57 -32 -26
-11 -32 -10 -49 7 -25 25 -19 34 51 79 61 39 81 59 82 84 0 24 68 98 110 119
31 16 51 42 115 152 43 73 107 176 142 229 35 53 63 101 63 105 0 26 63 83
105 95 36 11 45 18 44 34 -3 38 1 43 39 49 20 4 48 11 62 15 45 15 265 57 418
80 146 22 393 10 426 -20 6 -5 17 -9 26 -9 8 0 59 -24 112 -54 l98 -54 25 45
c14 25 25 48 25 52 1 11 84 97 123 126 86 64 220 82 323 44z m3461 -1451 c-3
-7 -5 -2 -5 12 0 14 2 19 5 13 2 -7 2 -19 0 -25z m-1392 -518 c3 -5 -1 -10
-10 -10 -9 0 -13 5 -10 10 3 6 8 10 10 10 2 0 7 -4 10 -10z m-218 -26 c-3 -3
-12 -4 -19 -1 -8 3 -5 6 6 6 11 1 17 -2 13 -5z m483 -4 c0 -5 -4 -10 -9 -10
-6 0 -13 5 -16 10 -3 6 1 10 9 10 9 0 16 -4 16 -10z m-397 -17 c-7 -2 -21 -2
-30 0 -10 3 -4 5 12 5 17 0 24 -2 18 -5z m377 -23 c0 -13 -40 -13 -60 0 -11 7
-5 10 23 10 20 0 37 -4 37 -10z m-436 -485 c-7 -16 -24 -21 -24 -6 0 8 7 13
27 20 1 1 0 -6 -3 -14z m40 -40 c-4 -8 -12 -15 -20 -15 -8 0 -14 7 -14 15 0 8
9 15 20 15 13 0 18 -5 14 -15z m-56 -25 c12 0 13 -3 5 -11 -15 -15 -48 15 -36
33 5 10 8 8 11 -4 2 -10 11 -18 20 -18z m92 -10 c0 -5 -7 -10 -15 -10 -8 0
-15 5 -15 10 0 6 7 10 15 10 8 0 15 -4 15 -10z m40 0 c0 -5 -4 -10 -10 -10 -5
0 -10 5 -10 10 0 6 5 10 10 10 6 0 10 -4 10 -10z"/>
<path d="M7082 4615 c0 -16 2 -22 5 -12 2 9 2 23 0 30 -3 6 -5 -1 -5 -18z"/>
<path d="M7003 4623 c9 -2 23 -2 30 0 6 3 -1 5 -18 5 -16 0 -22 -2 -12 -5z"/>
<path d="M6880 4612 c0 -11 85 -35 107 -29 13 3 11 5 -7 6 -15 0 -30 5 -35 10
-14 12 -65 23 -65 13z"/>
<path d="M7120 4605 c0 -8 7 -15 16 -15 14 0 14 3 4 15 -7 8 -14 15 -16 15 -2
0 -4 -7 -4 -15z"/>
<path d="M7100 4449 c0 -11 4 -18 10 -14 5 3 7 12 3 20 -7 21 -13 19 -13 -6z"/>
<path d="M7140 4429 c0 -11 4 -18 10 -14 5 3 7 12 3 20 -7 21 -13 19 -13 -6z"/>
<path d="M7085 4400 c-18 -19 -18 -20 3 -20 24 0 38 18 25 31 -6 6 -16 2 -28
-11z"/>
<path d="M7027 4393 c-14 -13 -6 -43 14 -54 15 -8 24 -8 32 0 8 8 5 11 -11 11
-23 0 -30 16 -10 22 6 2 8 10 4 16 -8 13 -19 15 -29 5z"/>
<path d="M7095 4340 c3 -5 10 -10 16 -10 5 0 9 5 9 10 0 6 -7 10 -16 10 -8 0
-12 -4 -9 -10z"/>
<path d="M6990 4314 c0 -17 22 -14 28 4 2 7 -3 12 -12 12 -9 0 -16 -7 -16 -16z"/>
<path d="M6930 4306 c-16 -15 -83 -64 -163 -118 -26 -17 -44 -35 -40 -39 5 -3
26 -9 48 -12 22 -3 32 -3 23 -1 -22 7 -24 34 -3 34 8 0 33 18 55 40 22 22 49
40 60 40 11 0 24 9 30 20 6 11 17 20 25 20 20 0 19 16 -1 24 -20 8 -17 8 -34
-8z"/>
<path d="M6886 4212 c-40 -23 -66 -45 -66 -54 0 -13 38 -9 43 5 4 9 8 8 17 -3
8 -12 9 -9 4 13 -6 26 -5 28 20 21 26 -6 56 8 56 27 0 15 -43 10 -74 -9z"/>
<path d="M7010 4190 c0 -5 5 -10 10 -10 6 0 10 5 10 10 0 6 -4 10 -10 10 -5 0
-10 -4 -10 -10z"/>
<path d="M6958 4163 c7 -3 16 -2 19 1 4 3 -2 6 -13 5 -11 0 -14 -3 -6 -6z"/>
<path d="M6676 4124 c-15 -14 -27 -26 -25 -28 2 -2 14 -9 27 -15 16 -9 21 -18
17 -32 -4 -13 -2 -19 9 -19 9 0 17 5 17 10 4 34 20 70 30 70 5 0 9 5 9 11 0 6
-6 9 -14 6 -8 -3 -17 1 -20 9 -7 19 -16 17 -50 -12z m44 -24 c0 -5 -4 -10 -9
-10 -6 0 -13 5 -16 10 -3 6 1 10 9 10 9 0 16 -4 16 -10z"/>
<path d="M0 7069 c0 -4 9 -9 20 -12 32 -8 35 -8 35 6 0 6 -12 12 -27 12 -16 1
-28 -2 -28 -6z"/>
<path d="M640 7070 c0 -5 5 -10 11 -10 5 0 7 5 4 10 -3 6 -8 10 -11 10 -2 0
-4 -4 -4 -10z"/>
<path d="M9595 7070 c3 -5 11 -10 16 -10 6 0 7 5 4 10 -3 6 -11 10 -16 10 -6
0 -7 -4 -4 -10z"/>
<path d="M9632 7066 c1 -10 8 -17 13 -17 15 1 12 24 -3 29 -9 3 -13 -2 -10
-12z"/>
<path d="M71 6864 c0 -11 3 -14 6 -6 3 7 2 16 -1 19 -3 4 -6 -2 -5 -13z"/>
<path d="M9671 6864 c0 -11 3 -14 6 -6 3 7 2 16 -1 19 -3 4 -6 -2 -5 -13z"/>
<path d="M448 6803 c7 -3 16 -2 19 1 4 3 -2 6 -13 5 -11 0 -14 -3 -6 -6z"/>
<path d="M310 6786 c0 -9 30 -14 35 -6 4 6 -3 10 -14 10 -12 0 -21 -2 -21 -4z"/>
<path d="M102 6730 c0 -14 2 -19 5 -12 2 6 2 18 0 25 -3 6 -5 1 -5 -13z"/>
<path d="M9702 6730 c0 -14 2 -19 5 -12 2 6 2 18 0 25 -3 6 -5 1 -5 -13z"/>
<path d="M111 6539 c-1 -9 8 -19 19 -22 11 -3 20 -1 20 4 0 5 -6 9 -14 9 -8 0
-17 6 -19 13 -4 7 -6 6 -6 -4z"/>
<path d="M9735 6520 c3 -5 8 -10 11 -10 2 0 4 5 4 10 0 6 -5 10 -11 10 -5 0
-7 -4 -4 -10z"/>
<path d="M45 6469 c-10 -15 1 -23 20 -15 9 3 13 10 10 16 -8 13 -22 13 -30 -1z"/>
<path d="M9656 6471 c-4 -7 -5 -15 -2 -18 9 -9 19 4 14 18 -4 11 -6 11 -12 0z"/>
<path d="M120 6164 c0 -8 5 -12 10 -9 6 3 10 10 10 16 0 5 -4 9 -10 9 -5 0
-10 -7 -10 -16z"/>
<path d="M350 6170 c0 -5 5 -10 10 -10 6 0 10 5 10 10 0 6 -4 10 -10 10 -5 0
-10 -4 -10 -10z"/>
<path d="M9720 6169 c0 -5 5 -7 10 -4 6 3 10 8 10 11 0 2 -4 4 -10 4 -5 0 -10
-5 -10 -11z"/>
<path d="M110 6130 c0 -5 7 -10 16 -10 8 0 12 5 9 10 -3 6 -10 10 -16 10 -5 0
-9 -4 -9 -10z"/>
<path d="M38 5863 c7 -3 16 -2 19 1 4 3 -2 6 -13 5 -11 0 -14 -3 -6 -6z"/>
<path d="M655 5860 c3 -5 8 -10 11 -10 2 0 4 5 4 10 0 6 -5 10 -11 10 -5 0 -7
-4 -4 -10z"/>
<path d="M8505 5820 c-24 -10 -11 -13 58 -10 54 2 63 -15 17 -31 -32 -12 -40
-29 -13 -29 14 0 15 -11 10 -95 -4 -59 -3 -96 4 -100 6 -4 10 -68 11 -158 0
-84 1 -178 3 -210 1 -42 -2 -60 -12 -64 -22 -9 -15 -23 12 -23 14 0 25 6 25
13 0 6 5 4 11 -6 7 -12 17 -15 36 -11 18 5 24 3 19 -5 -9 -14 -153 -15 -158
-1 -3 11 -48 2 -48 -10 0 -19 193 -29 228 -11 9 5 39 19 65 32 79 38 154 130
186 230 14 46 14 182 0 228 -34 108 -95 180 -193 231 -73 37 -84 40 -160 39
-44 0 -90 -4 -101 -9z m185 -30 c0 -5 -4 -10 -10 -10 -5 0 -10 5 -10 10 0 6 5
10 10 10 6 0 10 -4 10 -10z m-35 -30 c-3 -5 -10 -10 -16 -10 -5 0 -9 5 -9 10
0 6 7 10 16 10 8 0 12 -4 9 -10z"/>
<path d="M60 5800 c0 -5 5 -10 10 -10 6 0 10 5 10 10 0 6 -4 10 -10 10 -5 0
-10 -4 -10 -10z"/>
<path d="M8410 5780 c0 -5 6 -10 14 -10 8 0 18 5 21 10 3 6 -3 10 -14 10 -12
0 -21 -4 -21 -10z"/>
<path d="M120 5355 c0 -42 11 -58 25 -35 3 6 1 10 -6 10 -8 0 -10 11 -6 35 3
19 2 35 -4 35 -5 0 -9 -20 -9 -45z"/>
<path d="M9721 5384 c0 -11 3 -14 6 -6 3 7 2 16 -1 19 -3 4 -6 -2 -5 -13z"/>
<path d="M9720 5330 c0 -5 5 -10 11 -10 5 0 7 5 4 10 -3 6 -8 10 -11 10 -2 0
-4 -4 -4 -10z"/>
<path d="M53 5045 c0 -14 3 -25 8 -25 5 0 9 11 9 25 0 14 -4 25 -9 25 -5 0 -8
-11 -8 -25z"/>
<path d="M9661 5044 c0 -11 3 -14 6 -6 3 7 2 16 -1 19 -3 4 -6 -2 -5 -13z"/>
<path d="M420 5020 c0 -5 5 -10 10 -10 6 0 10 5 10 10 0 6 -4 10 -10 10 -5 0
-10 -4 -10 -10z"/>
<path d="M125 4730 c-3 -5 3 -10 15 -10 12 0 18 5 15 10 -3 6 -10 10 -15 10
-5 0 -12 -4 -15 -10z"/>
<path d="M9730 4730 c0 -5 7 -10 16 -10 8 0 12 5 9 10 -3 6 -10 10 -16 10 -5
0 -9 -4 -9 -10z"/>
<path d="M0 4670 c0 -5 5 -10 11 -10 5 0 7 5 4 10 -3 6 -8 10 -11 10 -2 0 -4
-4 -4 -10z"/>
<path d="M35 4670 c-4 -6 -3 -16 3 -22 6 -6 12 -6 17 2 4 6 3 16 -3 22 -6 6
-12 6 -17 -2z"/>
<path d="M9636 4655 c4 -8 8 -15 10 -15 2 0 4 7 4 15 0 8 -4 15 -10 15 -5 0
-7 -7 -4 -15z"/>
<path d="M71 4464 c0 -11 3 -14 6 -6 3 7 2 16 -1 19 -3 4 -6 -2 -5 -13z"/>
<path d="M448 4403 c7 -3 16 -2 19 1 4 3 -2 6 -13 5 -11 0 -14 -3 -6 -6z"/>
<path d="M328 4383 c7 -3 16 -2 19 1 4 3 -2 6 -13 5 -11 0 -14 -3 -6 -6z"/>
<path d="M102 4330 c0 -14 2 -19 5 -12 2 6 2 18 0 25 -3 6 -5 1 -5 -13z"/>
<path d="M110 4130 c0 -4 9 -10 20 -13 11 -3 20 -2 20 3 0 4 -9 10 -20 13 -11
3 -20 2 -20 -3z"/>
<path d="M50 4065 c0 -9 5 -15 11 -13 14 5 14 21 0 26 -6 2 -11 -4 -11 -13z"/>
<path d="M120 3764 c0 -8 5 -12 10 -9 6 3 10 10 10 16 0 5 -4 9 -10 9 -5 0
-10 -7 -10 -16z"/>
<path d="M350 3770 c0 -5 5 -10 10 -10 6 0 10 5 10 10 0 6 -4 10 -10 10 -5 0
-10 -4 -10 -10z"/>
<path d="M9720 3769 c0 -5 5 -7 10 -4 6 3 10 8 10 11 0 2 -4 4 -10 4 -5 0 -10
-5 -10 -11z"/>
<path d="M110 3730 c0 -5 7 -10 16 -10 8 0 12 5 9 10 -3 6 -10 10 -16 10 -5 0
-9 -4 -9 -10z"/>
<path d="M655 3460 c3 -5 8 -10 11 -10 2 0 4 5 4 10 0 6 -5 10 -11 10 -5 0 -7
-4 -4 -10z"/>
<path d="M65 3400 c-3 -5 -1 -10 4 -10 6 0 11 5 11 10 0 6 -2 10 -4 10 -3 0
-8 -4 -11 -10z"/>
<path d="M120 2955 c0 -25 4 -45 9 -45 15 0 22 18 10 26 -6 3 -9 19 -5 35 3
16 1 29 -4 29 -6 0 -10 -20 -10 -45z"/>
<path d="M9720 2981 c0 -25 6 -27 13 -6 4 8 2 17 -3 20 -6 4 -10 -3 -10 -14z"/>
<path d="M9720 2926 c0 -9 5 -16 10 -16 6 0 10 4 10 9 0 6 -4 13 -10 16 -5 3
-10 -1 -10 -9z"/>
<path d="M50 2645 c0 -14 5 -25 10 -25 6 0 10 11 10 25 0 14 -4 25 -10 25 -5
0 -10 -11 -10 -25z"/>
<path d="M9657 2640 c-3 -11 -1 -20 4 -20 5 0 9 9 9 20 0 11 -2 20 -4 20 -2 0
-6 -9 -9 -20z"/>
<path d="M420 2620 c0 -5 5 -10 10 -10 6 0 10 5 10 10 0 6 -4 10 -10 10 -5 0
-10 -4 -10 -10z"/>
<path d="M655 2620 c-3 -5 -1 -10 4 -10 6 0 11 5 11 10 0 6 -2 10 -4 10 -3 0
-8 -4 -11 -10z"/>
<path d="M318 2363 c6 -2 18 -2 25 0 6 3 1 5 -13 5 -14 0 -19 -2 -12 -5z"/>
<path d="M120 2331 c0 -7 32 -11 93 -11 50 0 102 -3 115 -6 12 -4 22 -2 22 4
0 5 -39 10 -92 11 -51 1 -103 4 -115 8 -14 3 -23 1 -23 -6z"/>
<path d="M9725 2330 c-3 -5 3 -10 15 -10 12 0 18 5 15 10 -3 6 -10 10 -15 10
-5 0 -12 -4 -15 -10z"/>
<path d="M0 2270 c0 -5 5 -10 11 -10 5 0 7 5 4 10 -3 6 -8 10 -11 10 -2 0 -4
-4 -4 -10z"/>
<path d="M32 2266 c1 -10 8 -17 13 -17 15 1 12 24 -3 29 -9 3 -13 -2 -10 -12z"/>
<path d="M9600 2270 c0 -5 5 -10 11 -10 5 0 7 5 4 10 -3 6 -8 10 -11 10 -2 0
-4 -4 -4 -10z"/>
<path d="M9635 2270 c-4 -6 -3 -16 3 -22 6 -6 12 -6 17 2 4 6 3 16 -3 22 -6 6
-12 6 -17 -2z"/>
<path d="M71 2064 c0 -11 3 -14 6 -6 3 7 2 16 -1 19 -3 4 -6 -2 -5 -13z"/>
<path d="M9671 2064 c0 -11 3 -14 6 -6 3 7 2 16 -1 19 -3 4 -6 -2 -5 -13z"/>
<path d="M448 2003 c7 -3 16 -2 19 1 4 3 -2 6 -13 5 -11 0 -14 -3 -6 -6z"/>
<path d="M323 1979 c14 -8 22 -8 30 0 8 8 3 11 -18 11 -26 -1 -28 -2 -12 -11z"/>
<path d="M100 1933 c0 -21 3 -24 9 -14 5 8 7 20 4 28 -8 21 -13 15 -13 -14z"/>
<path d="M9702 1930 c0 -14 2 -19 5 -12 2 6 2 18 0 25 -3 6 -5 1 -5 -13z"/>
<path d="M7545 1763 c-88 -13 -229 -91 -280 -155 -102 -129 -115 -361 -30
-529 34 -67 90 -112 195 -157 96 -41 323 -38 433 6 l27 12 -2 222 -3 223 -152
3 c-99 2 -153 -1 -154 -8 0 -5 -1 -36 -2 -67 l-1 -58 67 0 67 0 0 -107 0 -108
-69 0 c-117 0 -185 38 -236 132 -26 46 -30 65 -32 142 -3 112 16 173 72 230
56 58 111 75 227 72 56 -2 101 -8 114 -16 12 -7 28 -11 35 -8 17 6 44 127 32
138 -27 25 -222 46 -308 33z"/>
<path d="M5652 1749 c-68 -12 -121 -39 -160 -84 -38 -43 -47 -71 -47 -150 0
-84 23 -113 128 -163 148 -71 218 -102 230 -102 25 -1 107 -70 109 -93 4 -62
-13 -96 -62 -122 -70 -36 -201 -30 -250 12 -27 22 -61 82 -59 101 4 29 -3 33
-58 30 l-58 -3 3 -54 c5 -82 50 -142 132 -178 68 -29 88 -33 180 -33 54 0 112
5 127 11 78 32 94 42 122 78 17 21 31 46 31 54 0 9 5 19 10 22 17 10 11 97 -9
141 -27 60 -67 87 -248 167 -89 40 -173 83 -187 96 -68 64 9 168 124 170 89 2
162 -42 180 -109 l9 -35 53 3 c29 2 57 7 61 12 11 10 -17 93 -46 131 -28 40
-102 77 -186 95 -36 7 -68 13 -71 13 -3 -1 -29 -5 -58 -10z"/>
<path d="M6175 1748 c-3 -7 -4 -200 -3 -428 l3 -415 245 -5 c171 -3 248 -2
255 6 6 6 8 40 5 80 l-5 69 -157 0 -158 0 -2 350 -3 350 -88 3 c-64 2 -89 -1
-92 -10z"/>
<path d="M6835 1747 c-3 -6 -4 -199 -3 -427 l3 -415 87 -5 c55 -3 89 -1 92 5
2 6 2 170 0 365 -2 195 -4 385 -4 423 l0 67 -85 0 c-59 0 -87 -4 -90 -13z"/>
<path d="M8259 1753 c-2 -19 -8 -42 -27 -103 -12 -36 -40 -126 -63 -200 -22
-74 -49 -162 -60 -194 -10 -33 -19 -67 -19 -76 0 -9 -4 -20 -8 -26 -5 -5 -19
-47 -31 -94 -13 -47 -28 -95 -33 -107 -21 -44 -6 -53 87 -53 73 0 86 3 91 18
3 9 9 24 12 32 3 8 15 51 26 95 l21 80 116 3 116 3 13 -43 c7 -24 17 -59 23
-78 5 -19 13 -44 17 -55 5 -11 11 -28 14 -37 5 -15 18 -18 96 -18 l90 0 0 27
c0 27 -15 84 -31 115 -5 10 -9 27 -9 38 0 11 -4 28 -9 38 -5 9 -19 53 -30 97
-12 44 -26 89 -30 100 -5 11 -15 40 -22 65 -7 25 -16 49 -21 55 -4 5 -8 18 -8
29 0 11 -8 45 -19 75 -10 31 -24 76 -31 101 -6 25 -17 61 -24 80 l-12 35 -117
3 c-64 1 -117 -1 -118 -5z m131 -227 c0 -11 4 -33 10 -50 9 -30 42 -146 55
-193 6 -23 5 -23 -83 -23 l-90 0 9 28 c29 85 69 245 69 273 l1 34 14 -25 c8
-14 14 -34 15 -44z"/>
<path d="M737 1736 c-3 -8 -2 -18 3 -21 13 -8 20 9 11 24 -6 10 -10 9 -14 -3z"/>
<path d="M1614 1741 c-2 -2 -4 -190 -4 -418 l0 -413 203 0 c278 0 327 14 395
114 28 43 32 56 32 116 0 37 -6 83 -14 101 -14 34 -70 93 -94 100 -8 3 4 22
31 51 25 26 47 60 51 78 9 49 7 118 -4 125 -5 3 -10 14 -10 24 0 22 -64 87
-105 106 -22 11 -86 15 -253 17 -123 2 -226 1 -228 -1z m445 -125 c55 -50 48
-158 -13 -195 -29 -19 -49 -21 -170 -21 l-136 0 0 121 0 120 149 -3 c130 -3
152 -5 170 -22z m16 -363 c30 -31 35 -43 35 -83 0 -66 -15 -102 -55 -127 -32
-21 -46 -23 -175 -23 l-140 0 0 135 0 135 150 0 149 0 36 -37z"/>
<path d="M3175 1728 c-3 -12 -4 -201 -3 -418 l3 -395 57 -3 c55 -3 58 -2 64
24 4 14 4 154 2 310 -3 156 -2 284 3 284 4 0 28 -37 54 -82 43 -78 77 -135
148 -253 28 -47 42 -71 127 -222 l35 -63 56 0 c37 0 61 5 68 14 9 11 11 113 7
413 l-6 398 -51 3 c-35 2 -55 -1 -60 -10 -5 -7 -9 -148 -9 -312 l0 -300 -142
242 c-79 133 -160 273 -181 312 l-38 70 -49 0 c-26 0 -55 3 -64 6 -10 4 -17
-2 -21 -18z"/>
<path d="M3954 1725 c-2 -11 -3 -198 -2 -415 l3 -395 150 -3 c199 -4 287 15
360 79 104 91 149 235 126 400 -17 118 -45 184 -104 246 -83 86 -119 97 -340
103 -182 5 -188 4 -193 -15z m382 -110 c81 -53 121 -133 131 -262 12 -146 -58
-289 -156 -322 -19 -6 -78 -11 -131 -11 l-97 0 -5 163 c-4 135 -4 419 1 451 0
5 52 7 115 4 88 -3 120 -8 142 -23z"/>
<path d="M110 1730 c0 -4 9 -10 20 -13 11 -3 20 -2 20 3 0 4 -9 10 -20 13 -11
3 -20 2 -20 -3z"/>
<path d="M2397 1734 c-4 -4 -7 -144 -7 -311 0 -338 5 -374 62 -432 56 -57 110
-75 233 -79 110 -4 157 4 219 38 40 22 85 80 98 126 12 41 23 601 13 642 -5
21 -10 23 -63 20 l-57 -3 -5 -319 -5 -318 -43 -38 c-30 -27 -55 -40 -87 -44
-95 -15 -191 17 -220 73 -11 21 -14 95 -17 337 l-3 309 -55 3 c-31 2 -59 0
-63 -4z"/>
<path d="M4745 1728 c-3 -7 -6 -192 -7 -411 -3 -391 -3 -398 17 -403 11 -2
137 -3 280 -2 l260 3 0 50 0 50 -217 3 -218 2 0 138 0 137 160 -4 c88 -2 176
0 196 3 35 7 35 7 32 54 l-3 47 -192 3 -193 2 0 120 0 120 208 2 207 3 0 45 0
45 -263 3 c-205 2 -264 0 -267 -10z"/>
<path d="M9710 1730 c0 -4 9 -10 20 -13 11 -3 20 -2 20 3 0 4 -9 10 -20 13
-11 3 -20 2 -20 -3z"/>
<path d="M47 1674 c-13 -13 -7 -24 14 -24 11 0 19 5 17 12 -5 14 -22 21 -31
12z"/>
<path d="M435 1671 c-2 -5 25 -9 62 -10 37 -1 65 0 62 2 -9 9 -119 15 -124 8z"/>
<path d="M9650 1665 c0 -9 5 -15 11 -13 6 2 11 8 11 13 0 5 -5 11 -11 13 -6 2
-11 -4 -11 -13z"/>
<path d="M635 1660 c3 -5 10 -10 16 -10 5 0 9 5 9 10 0 6 -7 10 -16 10 -8 0
-12 -4 -9 -10z"/>
<path d="M9410 1660 c0 -5 5 -10 10 -10 6 0 10 5 10 10 0 6 -4 10 -10 10 -5 0
-10 -4 -10 -10z"/>
<path d="M42 1610 c0 -14 2 -19 5 -12 2 6 2 18 0 25 -3 6 -5 1 -5 -13z"/>
<path d="M448 1623 c6 -2 18 -2 25 0 6 3 1 5 -13 5 -14 0 -19 -2 -12 -5z"/>
<path d="M120 1364 c0 -14 3 -14 15 -4 8 7 15 14 15 16 0 2 -7 4 -15 4 -8 0
-15 -7 -15 -16z"/>
<path d="M350 1371 c0 -6 5 -13 10 -16 6 -3 10 1 10 9 0 9 -4 16 -10 16 -5 0
-10 -4 -10 -9z"/>
<path d="M9720 1370 c0 -5 5 -10 10 -10 6 0 10 5 10 10 0 6 -4 10 -10 10 -5 0
-10 -4 -10 -10z"/>
<path d="M720 1350 c0 -11 2 -20 4 -20 2 0 6 9 9 20 3 11 1 20 -4 20 -5 0 -9
-9 -9 -20z"/>
<path d="M110 1325 c0 -9 6 -12 15 -9 8 4 12 10 9 15 -8 14 -24 10 -24 -6z"/>
<path d="M9710 1330 c0 -5 7 -10 16 -10 8 0 12 5 9 10 -3 6 -10 10 -16 10 -5
0 -9 -4 -9 -10z"/>
<path d="M318 1323 c7 -3 16 -2 19 1 4 3 -2 6 -13 5 -11 0 -14 -3 -6 -6z"/>
<path d="M370 1290 c0 -5 5 -10 10 -10 6 0 10 5 10 10 0 6 -4 10 -10 10 -5 0
-10 -4 -10 -10z"/>
<path d="M120 1110 c0 -5 5 -10 10 -10 6 0 10 5 10 10 0 6 -4 10 -10 10 -5 0
-10 -4 -10 -10z"/>
<path d="M645 1070 c-3 -5 -1 -10 6 -10 8 0 10 -11 6 -35 -3 -19 -2 -35 4 -35
5 0 9 20 9 45 0 42 -11 58 -25 35z"/>
<path d="M0 1062 c0 -5 14 -7 30 -4 39 6 39 12 0 12 -17 0 -30 -4 -30 -8z"/>
<path d="M71 1054 c0 -11 3 -14 6 -6 3 7 2 16 -1 19 -3 4 -6 -2 -5 -13z"/>
<path d="M9410 1060 c0 -5 5 -10 10 -10 6 0 10 5 10 10 0 6 -4 10 -10 10 -5 0
-10 -4 -10 -10z"/>
<path d="M63 1013 c-18 -7 -16 -30 2 -30 8 0 15 9 15 19 0 10 -1 18 -2 17 -2
0 -9 -3 -15 -6z"/>
<path d="M9662 1001 c-11 -7 -11 -9 2 -14 10 -4 16 -1 16 8 0 17 -1 17 -18 6z"/>
<path d="M438 983 c6 -2 18 -2 25 0 6 3 1 5 -13 5 -14 0 -19 -2 -12 -5z"/>
<path d="M76 925 c4 -8 8 -15 10 -15 2 0 4 7 4 15 0 8 -4 15 -10 15 -5 0 -7
-7 -4 -15z"/>
<path d="M119 588 c-1 -27 -2 -54 -3 -60 -1 -7 10 -15 24 -17 24 -3 25 -3 7
17 -12 13 -16 28 -13 40 4 10 2 30 -3 43 -8 21 -10 18 -12 -23z"/>
<path d="M9719 588 c-1 -27 -2 -54 -3 -60 -1 -7 10 -15 24 -17 24 -3 25 -3 7
17 -12 13 -16 28 -13 40 4 10 2 30 -3 43 -8 21 -10 18 -12 -23z"/>
<path d="M328 603 c6 -2 18 -2 25 0 6 3 1 5 -13 5 -14 0 -19 -2 -12 -5z"/>
<path d="M710 595 c0 -16 16 -20 24 -6 3 5 -1 11 -9 15 -9 3 -15 0 -15 -9z"/>
<path d="M9360 535 c-10 -12 -10 -15 4 -15 9 0 16 7 16 15 0 8 -2 15 -4 15 -2
0 -9 -7 -16 -15z"/>
<path d="M755 530 l-30 -8 33 -1 c17 0 32 4 32 9 0 6 -1 9 -2 9 -2 -1 -16 -5
-33 -9z"/>
<path d="M955 530 c-3 -5 1 -10 9 -10 9 0 16 5 16 10 0 6 -4 10 -9 10 -6 0
-13 -4 -16 -10z"/>
<path d="M430 480 c0 -5 5 -10 11 -10 5 0 7 5 4 10 -3 6 -8 10 -11 10 -2 0 -4
-4 -4 -10z"/>
<path d="M650 479 c0 -5 5 -7 10 -4 6 3 10 8 10 11 0 2 -4 4 -10 4 -5 0 -10
-5 -10 -11z"/>
<path d="M9670 426 c0 -25 5 -48 10 -51 6 -4 10 13 10 44 0 28 -4 51 -10 51
-5 0 -10 -20 -10 -44z"/>
<path d="M73 424 c-3 -8 -1 -20 6 -27 8 -8 11 -4 11 16 0 30 -7 35 -17 11z"/>
<path d="M70 345 c0 -8 5 -15 10 -15 6 0 10 7 10 15 0 8 -4 15 -10 15 -5 0
-10 -7 -10 -15z"/>
<path d="M9676 351 c-4 -7 -5 -15 -2 -18 9 -9 19 4 14 18 -4 11 -6 11 -12 0z"/>
<path d="M400 300 c0 -5 5 -10 10 -10 6 0 10 5 10 10 0 6 -4 10 -10 10 -5 0
-10 -4 -10 -10z"/>
<path d="M1062 285 c0 -16 2 -22 5 -12 2 9 2 23 0 30 -3 6 -5 -1 -5 -18z"/>
<path d="M9060 300 c0 -5 5 -10 10 -10 6 0 10 5 10 10 0 6 -4 10 -10 10 -5 0
-10 -4 -10 -10z"/>
<path d="M9400 285 c0 -8 5 -15 10 -15 6 0 10 7 10 15 0 8 -4 15 -10 15 -5 0
-10 -7 -10 -15z"/>
<path d="M661 271 c-10 -6 -10 -10 -1 -16 13 -8 24 -1 19 14 -3 6 -10 7 -18 2z"/>
<path d="M9060 265 c0 -8 5 -15 10 -15 6 0 10 7 10 15 0 8 -4 15 -10 15 -5 0
-10 -7 -10 -15z"/>
<path d="M9658 274 c-11 -20 -18 -64 -9 -64 19 0 31 28 23 50 -5 13 -11 19
-14 14z"/>
<path d="M47 243 c-7 -35 -1 -41 19 -22 8 9 12 23 8 32 -9 25 -21 21 -27 -10z"/>
<path d="M458 263 c7 -3 16 -2 19 1 4 3 -2 6 -13 5 -11 0 -14 -3 -6 -6z"/>
<path d="M1005 260 c3 -5 8 -10 11 -10 2 0 4 5 4 10 0 6 -5 10 -11 10 -5 0 -7
-4 -4 -10z"/>
<path d="M9000 259 c0 -5 5 -7 10 -4 6 3 10 8 10 11 0 2 -4 4 -10 4 -5 0 -10
-5 -10 -11z"/>
<path d="M9420 240 c-8 -5 -11 -12 -7 -16 3 -4 12 -2 20 4 7 6 46 13 87 15
l75 3 -80 2 c-44 1 -87 -2 -95 -8z"/>
<path d="M420 225 c0 -8 7 -15 16 -15 14 0 14 3 4 15 -7 8 -14 15 -16 15 -2 0
-4 -7 -4 -15z"/>
<path d="M650 225 c-10 -12 -10 -15 4 -15 9 0 16 7 16 15 0 8 -2 15 -4 15 -2
0 -9 -7 -16 -15z"/>
<path d="M9360 165 c0 -8 5 -15 10 -15 6 0 10 7 10 15 0 8 -4 15 -10 15 -5 0
-10 -7 -10 -15z"/>
</g>
</svg>
