<?xml version="1.0" standalone="no"?>
<!DOCTYPE svg PUBLIC "-//W3C//DTD SVG 20010904//EN"
 "http://www.w3.org/TR/2001/REC-SVG-20010904/DTD/svg10.dtd">
<svg version="1.0" xmlns="http://www.w3.org/2000/svg"
 width="1500.000000pt" height="1200.000000pt" viewBox="0 0 1500.000000 1200.000000"
 preserveAspectRatio="xMidYMid meet">
<metadata>
Created by potrace 1.13, written by Peter Selinger 2001-2015
</metadata>
<g transform="translate(0.000000,1200.000000) scale(0.100000,-0.100000)"
fill="#000000" stroke="none">
<path d="M7535 11779 c-137 -17 -384 -57 -750 -123 -180 -32 -340 -47 -490
-46 -151 2 -145 3 -145 -13 0 -17 44 -129 76 -189 13 -26 24 -52 24 -57 0 -5
-102 -111 -227 -236 -126 -125 -223 -229 -216 -232 15 -5 116 26 357 111 103
36 200 66 215 66 33 0 104 -45 152 -96 53 -56 166 -207 224 -296 28 -43 55
-80 62 -82 7 -3 18 16 28 52 86 311 169 472 288 561 127 94 168 103 520 110
158 3 287 10 288 15 1 11 -58 42 -271 144 -91 44 -173 89 -184 100 -18 21 -18
22 9 57 34 46 91 87 172 125 35 17 61 35 58 40 -7 12 -4 12 -190 -11z"/>
<path d="M8976 11302 c-2 -4 -7 -23 -10 -42 -13 -68 -51 -172 -63 -177 -8 -3
-48 8 -91 25 -215 85 -603 186 -648 168 -17 -7 -16 -10 16 -37 19 -17 112 -88
205 -159 300 -227 389 -315 387 -382 -1 -37 -23 -71 -164 -251 -106 -135 -208
-282 -208 -300 0 -9 59 -3 144 14 106 21 469 69 536 71 l72 3 97 -135 c127
-176 205 -288 299 -432 42 -65 83 -117 91 -118 11 0 12 20 7 103 -4 56 -11
138 -16 182 -35 304 -34 345 6 345 8 0 80 -16 158 -35 79 -19 146 -35 150 -35
30 0 -46 94 -223 275 -286 294 -328 345 -528 643 -181 269 -203 297 -217 274z"/>
<path d="M5438 11118 c-140 -116 -341 -344 -452 -511 -136 -208 -254 -483
-304 -712 -44 -201 -38 -221 34 -118 58 81 173 227 183 231 4 1 22 -20 40 -48
37 -57 138 -170 152 -170 5 0 9 47 9 104 0 174 59 354 175 532 55 83 217 243
303 298 102 65 98 72 -38 75 -100 3 -166 14 -163 27 3 11 100 233 113 255 11
21 24 89 17 89 -3 0 -34 -23 -69 -52z"/>
<path d="M6836 10473 c-3 -21 -12 -108 -21 -193 -32 -319 -66 -625 -70 -638
-3 -8 -143 -81 -312 -163 -328 -160 -433 -217 -433 -234 0 -13 50 -34 210 -91
313 -111 530 -208 554 -248 7 -12 19 -73 25 -136 42 -397 94 -730 115 -730 12
1 10 -2 120 158 79 116 180 267 301 454 44 67 76 108 87 108 10 0 106 -22 215
-49 281 -71 503 -112 687 -127 56 -5 78 -4 75 4 -2 6 -78 89 -170 184 -350
366 -449 483 -449 530 0 31 89 168 250 384 140 187 264 373 256 381 -8 9 -206
-42 -654 -166 -100 -28 -200 -54 -220 -57 l-38 -6 -95 124 c-52 67 -166 219
-253 336 -87 116 -162 212 -166 212 -5 0 -11 -17 -14 -37z"/>
<path d="M5066 9627 c-10 -17 -51 -88 -89 -157 -126 -226 -241 -390 -369 -528
l-49 -52 54 -61 c61 -69 118 -175 141 -264 19 -75 36 -250 36 -375 0 -99 30
-275 51 -294 17 -16 44 25 102 156 58 130 99 195 132 208 41 16 79 -1 296
-126 72 -41 133 -73 136 -70 15 14 -31 138 -161 438 -47 107 -47 108 -30 140
37 73 106 152 328 376 113 115 167 175 159 180 -18 11 -422 5 -474 -7 -24 -6
-67 -11 -96 -11 -49 0 -52 1 -62 33 -7 17 -19 91 -27 162 -24 197 -38 278 -49
282 -5 1 -19 -12 -29 -30z"/>
<path d="M9683 9318 c-14 -21 -67 -149 -142 -350 -85 -225 -119 -295 -174
-355 -70 -76 -129 -98 -309 -113 -82 -8 -153 -7 -240 0 -208 19 -325 23 -331
12 -12 -18 56 -98 279 -322 123 -124 224 -229 224 -233 0 -4 -17 -35 -38 -69
-36 -59 -102 -177 -201 -361 -45 -84 -46 -105 -3 -83 15 7 113 48 217 91 105
42 242 100 305 128 63 29 122 50 130 49 8 -2 35 -23 60 -46 62 -59 110 -93
142 -101 25 -6 27 -4 41 47 9 29 27 109 42 178 61 283 107 400 238 618 92 151
142 253 176 364 42 135 39 134 -168 -20 -90 -68 -117 -83 -130 -75 -27 17 -41
55 -41 113 0 30 -7 125 -15 210 -8 85 -17 184 -20 220 -10 110 -19 129 -42 98z"/>
<path d="M6750 7859 c-175 -149 -350 -278 -481 -353 l-46 -26 -99 71 c-198
144 -464 329 -473 329 -6 0 -12 -4 -15 -9 -9 -13 75 -223 158 -395 42 -88 73
-163 69 -167 -9 -9 -79 -25 -312 -73 -85 -18 -156 -37 -158 -43 -6 -16 95 -88
171 -123 36 -17 167 -64 291 -105 294 -97 405 -153 655 -330 153 -107 331
-225 340 -225 13 0 13 45 1 87 -21 72 -43 268 -33 294 10 25 13 26 139 33 172
11 316 29 320 41 2 6 -27 20 -64 33 -125 43 -267 119 -326 176 -86 82 -86 82
-46 531 17 185 22 335 12 335 -5 0 -51 -36 -103 -81z"/>
<path d="M8390 7077 l-226 -252 -349 -3 c-193 -1 -356 -4 -364 -7 -19 -7 -8
-19 141 -147 71 -61 128 -116 128 -123 0 -7 -26 -28 -57 -45 -152 -85 -243
-143 -243 -156 0 -19 50 -18 176 1 54 9 124 20 154 25 106 16 311 67 435 108
307 101 669 295 933 499 76 59 97 83 73 83 -6 0 -81 -25 -168 -56 -249 -88
-328 -107 -363 -84 -15 10 -17 30 -19 303 -1 79 -4 107 -13 106 -7 0 -114
-114 -238 -252z"/>
<path d="M7536 5039 c-19 -95 -58 -511 -49 -520 5 -4 35 -11 69 -14 72 -8 70
-11 81 117 l6 78 56 -8 c31 -4 81 -7 111 -7 l55 0 7 40 c11 66 6 72 -70 79
-37 4 -84 9 -106 12 l-38 6 6 46 c3 25 8 47 10 50 3 2 58 -1 122 -7 66 -6 122
-7 127 -2 5 5 9 30 10 57 l2 48 -40 8 c-22 4 -85 12 -140 17 -55 6 -126 13
-157 17 -54 6 -57 6 -62 -17z"/>
<path d="M6829 5035 c-3 -2 -74 -25 -158 -50 -181 -55 -201 -63 -201 -84 0
-16 9 -47 99 -336 41 -134 52 -161 70 -163 11 -2 73 13 138 32 284 87 277 84
267 121 -13 47 -27 75 -39 75 -7 0 -62 -16 -121 -34 -170 -54 -159 -54 -172
-8 -7 22 -12 44 -12 49 0 9 53 28 178 64 58 17 67 29 51 76 -7 21 -16 42 -20
47 -7 8 -64 -6 -182 -46 -32 -11 -60 -18 -61 -16 -8 13 -26 61 -26 71 0 7 21
19 48 27 236 69 239 71 208 144 -11 27 -21 36 -39 36 -13 0 -26 -2 -28 -5z"/>
<path d="M8615 4723 c-27 -23 -92 -81 -245 -218 -31 -27 -78 -70 -105 -94
l-49 -43 25 -19 c13 -10 42 -27 64 -38 l40 -19 37 36 38 36 77 -42 78 -41 -3
-54 -4 -54 57 -32 c36 -21 61 -29 67 -23 5 5 14 38 19 73 40 279 49 349 49
386 0 23 4 53 10 67 5 14 7 32 4 39 -4 12 -105 67 -122 67 -4 0 -20 -12 -37
-27z m10 -190 c-4 -10 -10 -42 -14 -70 -4 -29 -11 -56 -14 -60 -7 -6 -75 26
-84 40 -5 9 95 106 111 107 4 0 5 -8 1 -17z"/>
<path d="M5778 4594 l-48 -46 43 -50 c160 -190 197 -242 197 -281 0 -30 -7
-44 -32 -68 -38 -34 -75 -37 -111 -9 -13 11 -73 78 -133 150 -60 71 -112 130
-118 130 -14 0 -94 -63 -101 -79 -3 -7 20 -42 53 -80 32 -36 88 -103 125 -148
87 -106 123 -128 202 -127 34 0 73 8 90 16 56 30 128 102 151 153 47 100 32
138 -128 331 -71 85 -132 154 -136 154 -4 0 -28 -21 -54 -46z"/>
<path d="M1950 3314 c-8 -3 -44 -14 -80 -26 -115 -36 -228 -121 -299 -225 -70
-103 -107 -260 -98 -420 9 -170 51 -291 139 -395 48 -58 160 -128 248 -157
184 -59 469 -32 625 60 30 18 34 26 41 77 4 31 8 95 8 142 l1 85 -27 3 c-25 3
-30 -2 -52 -52 -32 -73 -113 -157 -183 -191 -41 -21 -75 -29 -138 -32 -73 -5
-89 -3 -136 19 -30 14 -68 37 -86 52 -31 26 -83 121 -102 186 -25 91 -33 268
-16 375 25 153 64 235 145 308 65 58 131 81 214 75 106 -9 173 -57 242 -172
25 -43 35 -51 60 -51 l29 0 -1 80 c-2 175 3 160 -60 189 -118 54 -181 68 -324
72 -74 2 -142 1 -150 -2z"/>
<path d="M4845 3279 c-34 -26 -67 -42 -105 -50 -82 -17 -82 -16 -78 -46 2 -23
9 -29 38 -33 42 -6 50 -32 26 -94 -82 -220 -235 -630 -263 -706 -41 -112 -65
-140 -136 -160 l-52 -16 0 -44 0 -45 180 0 180 0 0 45 c0 43 -1 45 -32 48 -46
5 -57 22 -40 68 8 22 25 71 37 109 13 39 27 76 33 83 7 9 62 12 212 12 l203 0
10 -27 c87 -229 88 -236 29 -241 l-38 -3 3 -47 3 -47 219 -3 c141 -1 223 1
231 8 7 6 11 25 9 43 -1 17 -3 35 -3 40 -1 4 -10 7 -21 7 -76 0 -122 70 -210
325 -16 44 -39 109 -53 145 -73 194 -162 438 -193 530 -49 143 -47 140 -97
139 -33 0 -53 -9 -92 -40z m35 -379 c18 -47 40 -107 50 -135 10 -27 29 -79 43
-115 14 -36 22 -68 18 -72 -4 -5 -74 -9 -156 -10 -145 -3 -150 -2 -147 17 2
11 33 97 68 192 35 94 64 175 64 180 0 9 22 35 26 30 1 -1 16 -40 34 -87z"/>
<path d="M10125 3314 c-121 -19 -241 -81 -321 -166 -98 -103 -143 -201 -165
-356 -23 -163 17 -354 98 -474 72 -108 151 -169 282 -222 73 -29 82 -31 221
-30 132 0 151 3 212 26 248 98 387 310 388 594 0 240 -105 450 -275 549 -93
55 -172 76 -295 80 -63 2 -128 1 -145 -1z m247 -149 c116 -82 166 -250 155
-520 -9 -217 -49 -342 -129 -410 -54 -45 -94 -57 -178 -53 -86 3 -137 29 -185
92 -69 90 -107 329 -86 536 20 200 74 316 171 368 39 20 56 23 127 20 72 -3
86 -7 125 -33z"/>
<path d="M12817 3293 c-90 -34 -157 -95 -198 -180 -27 -57 -31 -77 -31 -142 1
-154 81 -253 304 -374 217 -118 289 -174 304 -233 11 -44 -2 -114 -26 -139
-34 -36 -82 -48 -169 -43 -59 4 -89 12 -136 35 -87 45 -139 86 -182 143 -30
41 -43 50 -63 48 -24 -3 -25 -6 -24 -63 0 -33 4 -91 9 -129 9 -79 7 -76 165
-124 74 -22 104 -26 235 -26 147 -1 152 0 231 32 168 67 256 195 241 351 -14
157 -115 255 -432 421 -55 28 -114 63 -131 75 -85 65 -83 199 3 241 70 33 198
3 296 -69 15 -12 44 -45 63 -74 29 -43 40 -53 63 -53 16 0 31 6 33 13 6 17
-15 209 -25 225 -5 7 -27 21 -50 32 -138 65 -357 80 -480 33z"/>
<path d="M2818 3288 c-3 -7 -3 -29 -1 -49 5 -34 8 -37 45 -42 22 -3 48 -13 59
-23 18 -16 19 -36 19 -479 0 -524 4 -501 -78 -512 l-43 -6 3 -46 3 -46 254 -3
c184 -2 257 1 268 9 9 8 13 26 11 48 -3 34 -5 36 -46 42 -77 10 -77 8 -77 277
l0 237 215 0 215 0 3 -235 c2 -178 -1 -240 -10 -253 -7 -9 -33 -21 -58 -25
l-45 -8 0 -44 0 -45 254 -3 c184 -2 257 1 268 9 8 8 13 26 11 48 -3 33 -5 36
-53 46 -37 7 -53 17 -62 35 -11 20 -13 121 -11 482 3 513 -1 482 79 496 l44 8
0 44 0 45 -265 0 -265 0 -3 -46 -3 -46 47 -7 c71 -9 73 -16 74 -214 l0 -172
-217 2 -218 3 0 172 c0 195 1 198 76 211 l44 8 0 44 0 45 -266 3 c-208 2 -268
0 -271 -10z"/>
<path d="M5784 3275 c-10 -40 3 -75 29 -75 12 0 39 -5 60 -11 34 -9 37 -13 37
-47 0 -37 -23 -212 -60 -452 -10 -69 -29 -195 -41 -280 -11 -85 -26 -165 -32
-178 -15 -31 -41 -45 -97 -52 l-45 -5 0 -45 0 -45 170 -3 c217 -3 217 -3 213
51 -3 42 -3 42 -48 47 -25 3 -51 9 -59 14 -17 11 -14 37 38 413 22 153 42 302
46 331 6 49 21 68 30 40 67 -212 180 -563 190 -593 8 -22 30 -93 50 -157 l36
-118 68 0 c66 0 69 1 79 27 6 16 70 210 143 433 73 223 136 409 140 414 14 16
22 -1 30 -62 14 -101 36 -262 69 -486 22 -150 29 -225 23 -235 -6 -9 -28 -18
-49 -21 -36 -5 -39 -8 -42 -38 -6 -61 -5 -61 261 -59 l242 2 3 48 3 47 -34 0
c-60 0 -82 28 -101 127 -23 120 -118 789 -120 835 -1 46 4 50 57 57 l42 6 0
45 0 45 -193 3 c-192 2 -192 2 -201 -20 -5 -13 -62 -184 -127 -380 -64 -197
-122 -358 -129 -358 -6 0 -48 119 -94 268 -124 398 -145 466 -154 480 -6 9
-61 12 -217 12 l-210 0 -6 -25z"/>
<path d="M7493 3286 c-5 -9 -7 -31 -5 -50 4 -32 6 -34 49 -39 82 -9 78 21 81
-501 2 -440 2 -464 -16 -486 -12 -15 -34 -25 -63 -29 l-44 -6 0 -45 0 -45 285
0 285 0 3 48 3 47 -56 0 c-46 0 -60 4 -81 25 -24 24 -24 26 -22 180 l3 155
140 5 c229 6 363 54 446 157 49 63 64 107 64 198 0 179 -102 307 -295 372 -61
20 -87 22 -417 26 -313 3 -352 2 -360 -12z m644 -134 c73 -38 109 -97 119
-200 12 -113 -43 -225 -132 -267 -46 -21 -154 -40 -188 -31 l-26 6 0 238 c0
130 4 242 8 248 26 39 147 43 219 6z"/>
<path d="M8817 3293 c-4 -3 -7 -25 -7 -48 l0 -42 47 -6 c87 -10 83 16 83 -512
0 -408 -2 -465 -16 -479 -16 -17 -38 -24 -89 -28 -32 -3 -42 -27 -31 -74 l6
-24 268 0 c286 0 292 1 292 50 0 37 -10 46 -60 53 -85 11 -81 -14 -78 513 3
520 -1 491 79 501 49 7 59 16 59 53 0 49 -6 50 -285 50 -144 0 -265 -3 -268
-7z"/>
<path d="M11117 3293 c-4 -3 -7 -25 -7 -48 l0 -42 51 -5 c88 -9 84 13 87 -416
4 -417 -2 -554 -25 -577 -8 -8 -29 -15 -48 -15 -57 0 -65 -7 -65 -61 l0 -49
190 0 190 0 6 25 c3 14 3 36 0 49 -5 19 -14 24 -53 29 -85 9 -83 -1 -83 393 0
289 2 344 14 344 8 0 22 -13 33 -29 22 -35 152 -223 354 -511 83 -118 166
-239 186 -268 l35 -53 92 3 91 3 5 546 c4 442 8 549 19 562 9 11 29 17 57 17
39 0 46 3 55 27 5 14 7 39 4 55 l-7 28 -182 0 c-195 0 -206 -3 -206 -50 0 -37
10 -46 59 -53 81 -10 78 0 82 -367 3 -242 1 -325 -8 -325 -11 0 -35 33 -187
255 -36 52 -90 131 -121 175 -31 44 -93 134 -137 200 -123 182 -91 165 -298
165 -97 0 -180 -3 -183 -7z"/>
<path d="M6810 1525 c-19 -23 -85 -55 -112 -55 -54 -1 -68 -52 -15 -58 45 -5
46 -1 -82 -332 -29 -74 -71 -182 -93 -240 -22 -58 -45 -111 -50 -118 -6 -7
-30 -17 -55 -23 -33 -9 -45 -17 -49 -35 -12 -47 8 -54 141 -54 134 0 151 7
139 54 -4 19 -13 26 -29 26 -13 0 -26 3 -28 8 -6 8 41 151 56 170 7 9 52 12
161 12 l152 0 28 -86 c29 -86 28 -99 -9 -106 -15 -2 -20 -11 -20 -38 l0 -35
166 -3 c182 -3 198 2 185 53 -5 19 -13 25 -32 25 -57 0 -75 38 -266 565 -105
289 -100 280 -139 283 -24 2 -40 -3 -49 -13z m34 -380 c24 -66 47 -130 50
-142 7 -23 7 -23 -103 -23 -90 0 -111 3 -111 14 0 15 84 259 96 277 11 18 22
-3 68 -126z"/>
<path d="M7700 1518 c-149 -57 -249 -185 -279 -359 -46 -273 80 -490 322 -555
141 -37 346 6 490 104 l27 19 -25 27 c-24 26 -25 32 -25 156 0 118 2 130 19
140 11 5 31 10 45 10 19 0 27 7 32 25 13 52 -2 56 -200 53 -180 -3 -181 -3
-184 -26 -5 -31 15 -52 49 -52 48 0 59 -30 58 -150 -1 -178 -28 -215 -159
-215 -64 0 -84 4 -107 21 -71 52 -102 139 -110 304 -7 134 5 202 48 289 58
116 171 169 270 127 54 -22 88 -54 121 -113 24 -42 35 -53 52 -51 19 3 21 10
24 73 4 99 0 110 -61 139 -122 60 -300 75 -407 34z"/>
<path d="M4505 1509 c-14 -22 5 -59 33 -64 44 -10 56 -20 64 -56 11 -54 10
-647 -1 -668 -6 -11 -27 -21 -51 -25 -44 -7 -56 -22 -46 -61 l6 -25 375 0
c427 0 385 -11 404 101 23 135 6 159 -61 89 -23 -23 -68 -55 -102 -71 -54 -26
-72 -29 -157 -29 -146 0 -134 -32 -134 357 -1 180 1 338 3 349 4 23 39 44 72
44 16 0 20 7 20 35 l0 35 -209 0 c-137 0 -212 -4 -216 -11z"/>
<path d="M5454 1506 c-10 -25 0 -51 21 -54 11 -2 32 -8 48 -14 l27 -11 -2
-361 -3 -361 -45 -11 c-42 -10 -45 -13 -45 -45 l0 -34 367 -3 c425 -3 379 -17
404 124 22 132 10 144 -64 63 -70 -78 -124 -99 -247 -99 -67 1 -106 5 -117 14
-16 12 -18 33 -18 175 l0 161 94 0 c52 0 102 -3 111 -6 8 -4 22 -22 30 -40 17
-40 51 -47 60 -11 3 12 5 69 3 127 -3 100 -4 105 -25 108 -17 3 -25 -5 -37
-31 -17 -42 -25 -45 -141 -49 l-90 -3 -3 129 c-2 86 1 133 9 142 8 10 38 14
113 14 120 -1 154 -14 204 -80 38 -51 57 -64 73 -54 13 8 6 90 -14 169 l-13
50 -347 3 c-297 2 -348 0 -353 -12z"/>
<path d="M8504 1506 c-11 -30 1 -50 36 -59 19 -5 41 -13 48 -19 9 -8 12 -80
12 -297 0 -157 5 -304 10 -325 21 -93 113 -171 232 -197 92 -20 261 -18 325 4
76 26 130 79 155 152 19 54 21 89 26 357 3 206 8 300 16 307 6 5 27 13 46 18
30 8 35 13 35 39 l0 29 -142 3 -143 3 0 -35 c0 -32 3 -34 45 -45 l45 -11 0
-288 c0 -158 -4 -302 -10 -321 -12 -42 -47 -94 -74 -111 -25 -16 -159 -25
-211 -16 -22 5 -50 21 -74 45 -58 58 -65 109 -58 419 5 248 6 257 27 274 12
10 33 18 46 18 21 0 24 5 24 35 l0 35 -205 0 c-170 0 -207 -3 -211 -14z"/>
<path d="M9644 1506 c-12 -32 1 -51 40 -57 70 -11 69 -3 63 -388 -4 -212 -10
-348 -16 -354 -5 -5 -27 -13 -48 -16 -36 -6 -38 -9 -38 -41 l0 -35 375 0 374
0 8 35 c5 19 11 55 14 79 3 24 10 55 15 67 10 28 2 54 -17 54 -8 0 -42 -29
-77 -63 -73 -75 -108 -87 -246 -87 -122 0 -121 -2 -121 197 l0 153 53 2 c28 1
68 2 89 4 45 3 95 -26 100 -58 2 -17 9 -23 28 -23 l25 0 3 126 c2 106 0 128
-13 133 -22 8 -45 -4 -45 -24 0 -10 -12 -28 -26 -39 -23 -18 -41 -21 -120 -21
l-94 0 0 129 c0 101 3 131 15 141 10 8 47 11 118 8 93 -3 108 -6 145 -31 23
-15 53 -45 67 -67 25 -39 58 -53 67 -27 3 6 -3 57 -12 112 l-16 100 -352 3
c-301 2 -353 0 -358 -12z"/>
<path d="M10642 547 c-84 -31 -142 -115 -142 -206 0 -118 95 -211 215 -211
105 0 177 60 214 177 14 44 13 53 -25 140 -38 85 -166 134 -262 100z m155 -62
c73 -44 100 -129 65 -206 -11 -24 -29 -51 -39 -59 -98 -81 -245 -31 -268 93
-27 144 116 245 242 172z"/>
<path d="M10625 451 c-3 -5 -1 -12 5 -16 14 -8 13 -168 -1 -182 -26 -26 26
-45 61 -23 12 8 13 13 3 29 -14 23 -7 51 11 51 13 0 36 -41 36 -64 0 -25 65
-37 73 -13 2 6 -10 29 -26 50 l-30 37 21 23 c26 28 28 59 6 92 -15 23 -23 25
-85 25 -37 0 -70 -4 -74 -9z m120 -55 c0 -16 -7 -33 -16 -39 -26 -16 -49 -1
-49 31 0 36 8 44 40 40 20 -2 25 -8 25 -32z"/>
</g>
</svg>
