<?xml version="1.0" standalone="no"?>
<!DOCTYPE svg PUBLIC "-//W3C//DTD SVG 20010904//EN"
 "http://www.w3.org/TR/2001/REC-SVG-20010904/DTD/svg10.dtd">
<svg version="1.0" xmlns="http://www.w3.org/2000/svg"
 width="1100.000000pt" height="900.000000pt" viewBox="0 0 1100.000000 900.000000"
 preserveAspectRatio="xMidYMid meet">
<metadata>
Created by potrace 1.13, written by Peter Selinger 2001-2015
</metadata>
<g transform="translate(0.000000,900.000000) scale(0.100000,-0.100000)"
fill="#000000" stroke="none">
<path d="M1680 7240 c0 -8 26 -68 58 -134 l57 -118 2697 1 2696 0 138 94 c77
52 155 102 174 113 45 25 85 54 74 54 -5 0 -1333 1 -2952 3 -2609 2 -2942 0
-2942 -13z"/>
<path d="M8320 7253 c-19 -1 -63 -6 -97 -9 l-61 -5 -94 -111 c-134 -159 -141
-168 -135 -175 7 -6 91 -31 275 -79 73 -19 182 -50 243 -70 127 -42 117 -42
334 21 83 24 213 57 290 72 77 16 146 32 153 36 18 12 -31 76 -154 206 l-101
105 -134 7 c-136 7 -455 9 -519 2z"/>
<path d="M2284 6678 c3 -18 10 -36 15 -41 4 -4 939 -8 2077 -8 1138 1 2155 1
2260 1 l190 0 32 31 c18 17 32 35 32 40 0 5 -982 9 -2306 9 l-2306 0 6 -32z"/>
<path d="M7198 6441 c-90 -39 -277 -133 -288 -145 -27 -34 -139 -365 -189
-560 -46 -178 -48 -207 -21 -253 91 -152 165 -263 176 -263 7 0 19 10 25 23
22 41 222 351 283 437 l61 85 7 180 c8 199 26 458 34 491 8 33 -17 35 -88 5z"/>
<path d="M9894 6455 c-3 -7 4 -135 15 -283 12 -149 21 -292 21 -320 0 -53 -10
-36 165 -291 63 -92 103 -155 161 -253 25 -43 49 -78 54 -78 11 0 24 18 55 75
143 266 138 254 131 298 -17 108 -128 438 -200 596 l-61 133 -60 24 c-56 23
-116 48 -190 80 -76 32 -85 34 -91 19z"/>
<path d="M564 6309 c-2 -3 14 -50 34 -105 l38 -99 319 0 c546 0 1444 15 1467
25 13 5 16 9 9 9 -11 1 -12 4 -4 12 8 8 16 8 30 0 14 -8 14 -11 3 -11 -13 0
-13 -2 -1 -9 8 -5 21 -7 28 -4 10 4 11 8 3 13 -8 5 -6 11 5 20 13 11 21 11 35
2 12 -7 21 -8 25 -2 6 9 347 11 1915 11 995 0 1091 -1 1110 -11 14 -8 25 -7
40 2 16 11 23 10 37 -5 14 -14 14 -17 3 -17 -13 0 -13 -2 -1 -9 8 -5 21 -7 28
-4 10 4 11 8 3 13 -8 5 -6 11 5 20 13 11 21 11 35 2 12 -7 21 -8 25 -2 9 15
51 12 65 -5 11 -13 5 -15 -41 -15 -38 -1 -49 -3 -38 -10 18 -10 755 -15 781
-5 10 4 29 32 44 63 14 32 33 70 41 85 8 16 13 30 11 32 -6 6 -6050 10 -6054
4z m3369 -106 c-34 -2 -93 -2 -130 0 -37 2 -9 3 62 3 72 0 102 -1 68 -3z m649
0 c-51 -2 -132 -2 -180 0 -48 1 -6 3 93 3 99 0 138 -2 87 -3z m176 0 c-10 -2
-28 -2 -40 0 -13 2 -5 4 17 4 22 1 32 -1 23 -4z m-2401 -60 c-20 -2 -52 -2
-70 0 -17 2 0 4 38 4 39 0 53 -2 32 -4z m3580 0 c-20 -2 -52 -2 -70 0 -17 2 0
4 38 4 39 0 53 -2 32 -4z"/>
<path d="M2546 6129 c13 -7 61 -7 140 -1 l119 9 -140 1 c-101 0 -134 -2 -119
-9z"/>
<path d="M2820 6136 c0 -9 40 -13 46 -5 3 5 -6 9 -20 9 -14 0 -26 -2 -26 -4z"/>
<path d="M5083 6134 c3 -3 44 -6 92 -6 48 0 89 3 92 6 4 3 -38 6 -92 6 -54 0
-96 -3 -92 -6z"/>
<path d="M5432 6135 c8 -9 165 -11 185 -3 10 3 -29 7 -86 7 -57 1 -102 -1 -99
-4z"/>
<path d="M8486 6015 c-77 -43 -222 -144 -280 -195 -85 -73 -207 -186 -253
-233 -51 -53 -51 -55 -43 -98 57 -303 83 -394 145 -525 46 -96 104 -192 126
-211 65 -52 620 -51 802 2 41 11 44 16 99 126 88 175 139 361 152 544 9 137
-1 166 -80 247 -90 91 -263 223 -380 289 -116 65 -183 99 -196 99 -7 0 -49
-20 -92 -45z"/>
<path d="M1080 5758 c0 -17 99 -301 157 -450 14 -37 31 -68 37 -70 6 -2 1160
-1 2564 2 l2554 5 4 134 c2 73 11 179 20 235 9 55 17 114 18 129 l1 28 -2678
2 c-2533 2 -2677 1 -2677 -15z"/>
<path d="M410 4734 c0 -11 42 -123 93 -249 l92 -230 3030 -3 c1667 -1 3036 0
3043 3 9 3 -1 29 -32 87 -44 80 -121 269 -147 356 l-12 42 -2561 0 c-1409 0
-2774 3 -3033 7 -463 6 -473 6 -473 -13z"/>
<path d="M7116 4412 c-23 -22 22 -386 51 -412 152 -141 607 -450 661 -450 9 0
40 7 67 16 28 8 68 19 90 24 114 25 190 48 190 58 0 11 -64 92 -211 267 -41
50 -103 126 -136 170 -34 44 -67 83 -72 87 -6 4 -40 17 -76 29 -127 42 -406
148 -482 182 -42 19 -79 33 -82 29z"/>
<path d="M9945 4389 c-78 -33 -218 -86 -400 -150 -66 -24 -126 -47 -133 -52
-7 -5 -38 -44 -69 -86 -62 -83 -164 -205 -285 -345 -43 -48 -78 -92 -78 -96 0
-5 15 -13 33 -19 41 -14 324 -71 349 -71 44 0 475 306 609 432 l56 53 7 120
c4 66 9 148 13 183 7 75 4 76 -102 31z"/>
<path d="M4321 3932 c-2302 -2 -2423 -3 -2416 -20 4 -9 11 -30 15 -47 25 -95
79 -256 89 -267 12 -13 5241 -15 5241 -2 0 6 -38 42 -85 79 -47 37 -126 110
-175 163 l-89 94 -78 2 c-43 0 -1169 0 -2502 -2z"/>
<path d="M4784 2879 c-4 -6 -6 -89 -5 -184 1 -108 -2 -176 -8 -179 -6 -4 -39
1 -73 10 -43 11 -105 17 -193 18 -138 0 -192 -10 -232 -47 -23 -20 -23 -21
-23 -357 0 -382 -3 -370 82 -395 68 -20 263 -20 359 0 62 13 74 13 88 1 21
-19 244 -21 259 -3 13 16 13 1118 0 1134 -12 15 -244 17 -254 2z m-9 -739 l0
-305 -127 -3 -128 -3 0 311 0 311 128 -3 127 -3 0 -305z"/>
<path d="M5347 2883 c-4 -3 -7 -30 -7 -60 l0 -53 135 0 c83 0 135 4 136 10 9
110 10 110 -134 110 -68 0 -127 -3 -130 -7z"/>
<path d="M6934 2876 c-3 -7 -4 -33 -2 -57 l3 -44 135 0 135 0 0 55 0 55 -133
3 c-107 2 -133 0 -138 -12z"/>
<path d="M8554 2876 c-3 -7 -4 -33 -2 -57 l3 -44 138 -3 138 -3 -3 58 -3 58
-133 3 c-107 2 -133 0 -138 -12z"/>
<path d="M1309 2541 c-78 -9 -159 -46 -176 -81 -18 -36 -18 -605 0 -639 36
-71 122 -92 372 -92 253 -1 351 18 397 75 14 16 18 41 18 114 l0 93 -132 -3
-133 -3 -3 -87 -3 -88 -125 0 -125 0 3 143 3 142 255 0 255 0 3 168 2 168 -28
29 c-48 48 -114 61 -327 65 -104 2 -220 0 -256 -4z m339 -208 l-3 -118 -120 1
-120 0 -3 117 -3 117 126 0 126 0 -3 -117z"/>
<path d="M2622 2540 c-35 -5 -79 -14 -98 -20 -30 -10 -38 -9 -53 4 -15 14 -39
16 -142 14 l-124 -3 0 -400 0 -400 124 -3 c68 -1 128 1 133 6 5 5 9 162 9 348
-1 186 3 345 7 352 6 9 39 12 128 10 l119 -3 3 -68 3 -68 132 3 132 3 3 70 c3
84 -10 114 -60 137 -44 21 -222 31 -316 18z"/>
<path d="M3397 2541 c-95 -10 -160 -34 -187 -68 -19 -24 -20 -40 -20 -335 0
-194 4 -317 10 -329 33 -60 164 -83 441 -76 216 5 260 12 309 53 30 26 30 27
30 125 l0 100 -132 -3 -133 -3 -3 -87 -3 -86 -62 -6 c-67 -7 -92 -7 -149 1
l-38 5 0 138 c0 116 2 139 16 144 9 3 126 6 260 6 l244 0 0 168 0 168 -29 28
c-15 15 -52 34 -82 42 -65 17 -358 26 -472 15z m317 -107 c12 -31 7 -201 -6
-212 -8 -5 -55 -8 -113 -6 -55 2 -108 4 -117 4 -16 0 -18 12 -18 115 l0 115
124 0 c104 0 125 -3 130 -16z"/>
<path d="M7670 2539 c-86 -10 -160 -43 -177 -79 -8 -15 -13 -69 -13 -140 0
-185 9 -191 315 -199 l210 -6 0 -140 0 -140 -125 0 -125 0 -3 88 -3 88 -132
-3 -132 -3 0 -93 c0 -93 0 -94 32 -122 56 -50 147 -63 401 -57 234 5 275 12
325 57 l32 28 3 150 c2 97 -1 158 -8 171 -6 12 -30 31 -53 43 -38 21 -60 23
-252 28 l-210 5 0 115 0 115 125 0 125 0 5 -65 5 -65 130 0 130 0 3 57 c6 110
-41 149 -204 168 -104 12 -297 11 -404 -1z"/>
<path d="M9335 2544 c-109 -11 -182 -36 -212 -74 -16 -20 -18 -631 -3 -661 14
-25 72 -54 138 -68 74 -15 431 -14 507 3 119 25 135 45 135 174 l0 93 -132 -3
-133 -3 -3 -87 -3 -88 -125 0 -125 0 3 143 3 142 248 -3 c184 -3 252 -1 262 8
12 10 15 42 15 157 0 198 -8 215 -118 249 -46 14 -365 27 -457 18z m295 -208
l0 -114 -92 -7 c-51 -4 -106 -5 -123 -3 l-30 3 -3 118 -3 117 126 0 125 0 0
-114z"/>
<path d="M5345 2528 c-3 -7 -4 -189 -3 -403 l3 -390 127 -3 c114 -2 128 -1
135 15 4 10 6 191 3 403 l-5 385 -128 3 c-96 2 -129 -1 -132 -10z"/>
<path d="M5855 2530 c-3 -5 42 -134 101 -287 58 -153 124 -327 146 -388 21
-60 44 -113 51 -117 16 -10 229 -10 245 1 7 4 33 66 58 137 24 71 58 163 74
204 62 160 160 431 160 445 0 13 -22 15 -135 15 -131 0 -136 -1 -144 -22 -14
-34 -98 -354 -111 -423 -22 -109 -25 -109 -45 -8 -8 37 -30 115 -49 173 -19
58 -46 144 -61 193 l-26 87 -129 0 c-72 0 -131 -4 -135 -10z"/>
<path d="M6935 2527 c-3 -6 -4 -188 -3 -402 l3 -390 124 -3 c78 -2 128 1 136
8 11 9 12 86 9 393 -3 210 -5 388 -4 395 0 17 -259 17 -265 -1z"/>
<path d="M8560 2533 c0 -4 -1 -182 -4 -395 -3 -306 -1 -390 9 -398 8 -7 60
-10 136 -8 l124 3 0 400 0 400 -132 3 c-73 1 -133 -1 -133 -5z"/>
</g>
</svg>
