<?xml version="1.0" standalone="no"?>
<!DOCTYPE svg PUBLIC "-//W3C//DTD SVG 20010904//EN"
 "http://www.w3.org/TR/2001/REC-SVG-20010904/DTD/svg10.dtd">
<svg version="1.0" xmlns="http://www.w3.org/2000/svg"
 width="1000.000000pt" height="1000.000000pt" viewBox="0 0 1000.000000 1000.000000"
 preserveAspectRatio="xMidYMid meet">
<metadata>
Created by potrace 1.13, written by Peter Selinger 2001-2015
</metadata>
<g transform="translate(0.000000,1000.000000) scale(0.100000,-0.100000)"
fill="#000000" stroke="none">
<path d="M4650 9749 c-443 -92 -862 -277 -1210 -533 -101 -74 -352 -288 -384
-328 -11 -12 -57 -65 -103 -116 -109 -121 -280 -355 -343 -469 -25 -46 -22
-89 8 -100 9 -4 78 -41 152 -83 74 -43 182 -104 239 -136 57 -32 115 -66 130
-74 50 -29 227 -134 420 -249 257 -154 257 -154 284 -147 15 3 34 24 50 53
189 347 595 642 1002 728 44 10 86 23 94 30 12 12 10 34 -13 152 -31 158 -37
193 -66 358 -11 66 -25 138 -30 160 -5 22 -13 67 -19 100 -23 134 -34 197 -61
345 -11 63 -27 155 -35 203 -19 122 -22 125 -115 106z"/>
<path d="M5355 9410 c-155 -12 -289 -30 -298 -39 -10 -10 -5 -46 64 -491 17
-113 33 -221 36 -240 2 -19 11 -82 20 -140 19 -135 26 -189 52 -390 23 -174
33 -198 76 -184 11 3 103 8 205 11 212 6 294 -4 500 -60 169 -47 378 -158 538
-287 85 -69 81 -69 162 30 25 30 78 93 119 140 40 47 94 110 120 139 25 30 64
75 87 100 22 26 54 62 71 81 16 19 86 97 154 174 68 76 142 160 164 186 22 26
66 77 99 114 46 52 57 70 52 88 -11 37 -228 200 -438 330 -103 63 -390 208
-412 208 -3 0 -29 11 -58 24 -62 27 -276 98 -363 120 -298 74 -675 108 -950
86z"/>
<path d="M2062 8208 c-40 -51 -173 -363 -224 -528 -61 -199 -69 -228 -92 -350
-40 -209 -51 -338 -50 -605 1 -360 38 -598 140 -916 53 -167 73 -209 97 -209
11 0 121 40 246 89 124 49 276 108 336 131 61 23 128 50 150 59 22 10 117 46
210 81 94 34 208 77 255 95 47 18 95 36 107 39 43 13 47 31 25 94 -115 321
-130 629 -46 972 9 36 20 70 24 75 4 6 10 24 14 40 8 34 22 67 72 171 19 40
34 78 34 85 0 8 -21 25 -47 39 -27 14 -91 48 -143 76 -52 28 -144 76 -204 107
-59 31 -113 61 -120 66 -6 5 -54 32 -106 59 -103 54 -274 147 -330 180 -19 11
-60 34 -90 50 -102 53 -175 94 -184 103 -15 13 -62 11 -74 -3z"/>
<path d="M7440 8113 c-12 -15 -76 -86 -143 -157 -67 -72 -151 -162 -187 -200
-105 -113 -246 -259 -497 -517 -68 -70 -123 -135 -123 -144 0 -10 38 -57 84
-106 139 -146 207 -244 285 -412 23 -49 41 -91 41 -94 0 -3 6 -19 14 -36 24
-53 50 -148 77 -277 6 -30 13 -128 16 -217 4 -111 10 -166 18 -173 7 -6 121
-15 256 -20 270 -12 498 -24 784 -42 105 -7 239 -13 299 -13 l110 0 8 30 c10
34 3 327 -12 478 -17 177 -89 513 -137 642 -101 272 -177 440 -262 579 -23 38
-41 70 -41 73 0 9 -125 190 -191 276 -39 51 -127 152 -196 225 -139 146 -161
158 -203 105z"/>
<path d="M4825 7404 c-11 -2 -45 -9 -75 -15 -85 -16 -146 -38 -255 -90 -124
-59 -206 -116 -300 -208 -225 -220 -340 -473 -352 -778 -8 -209 21 -366 101
-537 104 -223 273 -406 484 -526 164 -92 356 -143 547 -143 462 -2 852 235
1049 636 97 198 120 298 119 527 0 145 -3 176 -26 260 -112 418 -416 730 -825
847 -75 21 -112 25 -267 28 -99 2 -189 2 -200 -1z m-193 -184 c-41 -38 -34
-53 22 -45 43 7 162 -6 226 -25 66 -18 69 -24 86 -165 8 -72 17 -137 20 -145
11 -32 23 16 35 143 9 92 17 131 28 140 30 26 144 51 241 53 52 2 97 3 99 3 3
1 -10 17 -29 36 -28 29 -31 35 -15 35 34 0 199 -87 281 -148 77 -57 204 -183
204 -202 0 -15 -26 -12 -40 5 -15 18 -40 20 -40 3 0 -7 10 -40 21 -73 22 -66
43 -218 34 -252 -3 -12 -15 -25 -27 -29 -12 -3 -62 -25 -112 -49 -50 -23 -101
-45 -113 -49 -26 -8 -39 -35 -15 -30 9 2 62 13 117 25 55 12 119 24 141 27
l41 4 45 -69 c41 -63 78 -148 92 -215 8 -35 33 -36 42 -3 3 13 12 29 20 36 19
16 19 -20 -2 -142 -20 -122 -59 -234 -118 -342 -52 -95 -72 -111 -61 -47 4 25
3 40 -4 40 -5 0 -38 -21 -73 -48 -35 -26 -101 -62 -148 -81 l-84 -33 -51 54
c-27 29 -76 82 -109 116 -32 35 -61 61 -63 58 -5 -5 46 -103 106 -204 17 -29
31 -60 31 -69 0 -39 -118 -167 -207 -223 -47 -30 -46 -36 11 -42 61 -6 36 -25
-56 -44 -121 -24 -332 -24 -437 0 -41 9 -77 19 -80 22 -8 8 22 24 46 24 40 0
34 17 -17 50 -53 34 -175 159 -193 197 -8 18 -4 31 20 70 42 67 109 185 116
205 12 34 -23 5 -92 -75 -38 -45 -83 -95 -99 -111 l-31 -28 -70 27 c-72 27
-175 89 -200 118 -7 9 -20 17 -29 17 -11 0 -13 -9 -9 -39 3 -22 2 -42 -1 -45
-6 -7 -75 108 -102 169 -61 142 -109 367 -90 420 6 17 10 13 20 -23 15 -47 37
-73 44 -51 2 8 9 34 16 59 19 70 65 165 102 211 32 39 35 41 78 36 25 -3 85
-15 134 -26 50 -12 98 -21 108 -21 34 0 18 16 -39 40 -58 23 -175 75 -203 89
-32 17 -21 170 22 293 11 33 17 62 14 65 -3 4 -21 -2 -41 -12 -19 -11 -37 -16
-41 -12 -12 12 115 140 214 216 59 46 242 141 272 141 24 0 24 0 -8 -30z"/>
<path d="M4925 6703 c-27 -20 -102 -75 -166 -122 -65 -47 -142 -104 -173 -125
-31 -22 -56 -47 -56 -55 0 -9 40 -133 88 -276 l87 -260 290 0 290 0 63 195
c35 107 67 204 71 215 38 97 45 155 21 155 -4 0 -34 19 -67 43 -304 226 -363
267 -379 267 -11 0 -41 -17 -69 -37z"/>
<path d="M2930 5771 c-14 -5 -79 -32 -145 -61 -66 -29 -136 -59 -155 -67 -19
-8 -53 -24 -75 -34 -45 -21 -311 -133 -520 -219 -77 -32 -198 -83 -270 -114
-127 -54 -130 -56 -133 -88 -3 -38 99 -254 190 -398 29 -47 58 -93 63 -102 28
-45 119 -165 204 -268 232 -281 576 -567 881 -731 184 -99 529 -239 589 -239
22 0 51 31 51 53 0 9 4 26 9 39 6 13 22 64 36 113 15 50 46 153 70 230 24 77
62 201 85 275 23 74 48 153 55 175 68 200 156 489 152 499 -3 8 -38 24 -79 36
-161 49 -381 172 -523 293 -86 74 -218 220 -279 309 -29 42 -79 129 -112 192
-32 64 -61 115 -64 115 -3 0 -16 -4 -30 -8z"/>
<path d="M6576 5591 c-3 -5 -11 -53 -16 -107 -12 -105 -33 -213 -55 -279 -109
-328 -263 -552 -527 -772 -43 -36 -78 -72 -78 -81 0 -8 44 -74 98 -146 54 -72
105 -142 115 -156 9 -14 55 -77 102 -140 89 -120 328 -451 428 -593 103 -145
112 -150 183 -94 262 205 455 404 656 677 106 146 263 427 328 590 12 30 28
70 36 89 80 184 163 543 190 821 7 77 -1 89 -68 96 -75 7 -317 25 -473 34 -82
5 -204 14 -270 20 -66 6 -174 15 -240 20 -66 5 -165 14 -220 20 -125 12 -182
12 -189 1z"/>
<path d="M5405 4574 c-28 -19 -104 -61 -170 -93 -217 -105 -378 -145 -630
-157 -151 -7 -283 5 -414 37 -105 26 -120 23 -133 -32 -9 -34 -73 -271 -110
-404 -11 -38 -28 -101 -38 -140 -10 -38 -64 -227 -120 -420 -55 -192 -99 -361
-98 -375 3 -22 11 -27 73 -43 76 -20 212 -45 395 -74 179 -28 646 -24 825 6
221 38 487 104 572 142 24 11 46 19 50 19 15 0 235 93 315 134 100 50 321 183
349 209 10 10 19 21 19 26 0 4 -24 43 -54 87 -30 43 -101 149 -159 234 -58 85
-121 178 -140 205 -20 28 -112 167 -206 310 -230 351 -239 365 -259 365 -9 0
-40 -16 -67 -36z"/>
<path d="M5295 2386 c-153 -67 -191 -268 -73 -385 44 -44 87 -61 161 -61 180
0 290 215 186 366 -55 80 -186 119 -274 80z"/>
<path d="M1630 2156 c-16 -16 -13 -1551 3 -1563 7 -5 194 -8 447 -7 l435 1 0
179 0 179 -240 5 -240 5 0 605 0 605 -198 0 c-112 0 -202 -4 -207 -9z"/>
<path d="M4325 2160 l-190 -5 0 -780 0 -780 445 0 445 0 -2 170 c-2 94 -3 173
-3 178 0 4 -108 7 -240 7 l-240 0 -1 158 c0 86 0 358 1 603 1 361 -1 447 -12
450 -7 2 -98 2 -203 -1z"/>
<path d="M3070 1866 c-87 -18 -130 -37 -204 -90 -133 -95 -220 -222 -262 -381
-22 -84 -25 -278 -5 -370 26 -120 103 -258 188 -336 46 -43 154 -96 232 -115
69 -16 192 -18 263 -3 62 14 159 60 208 101 l35 29 5 -53 5 -53 188 -3 187 -2
0 630 0 630 -185 0 -185 0 0 -53 c0 -30 -3 -56 -6 -60 -4 -3 -25 9 -48 27 -59
48 -115 80 -161 93 -68 19 -185 23 -255 9z m317 -374 c99 -51 155 -142 161
-264 5 -104 -15 -163 -78 -228 -122 -125 -302 -130 -419 -11 -60 60 -86 130
-85 231 1 138 80 250 204 291 46 15 171 4 217 -19z"/>
<path d="M6190 1868 c-207 -27 -383 -201 -441 -438 -19 -74 -18 -309 0 -375
28 -99 98 -220 165 -282 103 -97 199 -133 353 -133 106 0 190 25 280 85 29 19
58 35 64 35 8 0 10 -24 7 -73 -4 -95 -30 -137 -108 -174 -46 -22 -69 -26 -140
-26 -97 0 -134 14 -175 67 l-26 34 -207 -2 -207 -2 2 -26 c3 -47 50 -146 94
-202 59 -72 145 -129 254 -167 86 -31 97 -32 255 -33 147 0 172 2 229 22 160
55 287 158 342 276 61 130 60 117 65 780 3 375 1 612 -5 615 -5 3 -87 4 -182
1 l-174 -5 3 -57 c4 -64 -9 -76 -44 -37 -31 35 -115 85 -169 102 -60 19 -159
25 -235 15z m245 -329 c119 -32 192 -129 202 -271 5 -74 3 -89 -19 -139 -33
-72 -75 -119 -135 -149 -39 -21 -62 -25 -128 -25 -124 1 -189 45 -243 165 -21
48 -24 66 -20 142 3 71 9 97 34 144 16 31 46 71 66 87 61 49 161 68 243 46z"/>
<path d="M7640 1866 c-203 -45 -377 -214 -451 -437 -27 -82 -37 -263 -19 -363
44 -251 176 -413 390 -482 74 -24 92 -26 193 -22 129 6 191 25 281 88 31 22
62 40 67 40 7 0 8 -17 4 -50 -4 -27 -3 -50 2 -50 4 0 91 -1 193 -1 l185 -1 3
628 c2 496 0 629 -10 636 -15 9 -276 11 -330 2 l-38 -7 0 -53 c0 -59 -7 -65
-36 -33 -31 34 -135 87 -204 103 -77 18 -154 19 -230 2z m326 -379 c98 -49
154 -149 154 -270 0 -40 -7 -92 -16 -117 -55 -159 -258 -243 -406 -169 -98 50
-149 138 -156 269 -4 93 12 147 64 215 76 100 240 133 360 72z"/>
<path d="M5194 1845 c-2 -5 -3 -289 -2 -630 l3 -620 183 -3 182 -2 0 629 0
630 -181 3 c-115 2 -183 -1 -185 -7z"/>
</g>
</svg>
