<?xml version="1.0" standalone="no"?>
<!DOCTYPE svg PUBLIC "-//W3C//DTD SVG 20010904//EN"
 "http://www.w3.org/TR/2001/REC-SVG-20010904/DTD/svg10.dtd">
<svg version="1.0" xmlns="http://www.w3.org/2000/svg"
 width="1100.000000pt" height="890.000000pt" viewBox="0 0 1100.000000 890.000000"
 preserveAspectRatio="xMidYMid meet">
<metadata>
Created by potrace 1.13, written by Peter Selinger 2001-2015
</metadata>
<g transform="translate(0.000000,890.000000) scale(0.100000,-0.100000)"
fill="#000000" stroke="none">
<path d="M5467 8719 c28 -15 39 -45 22 -65 -13 -16 -154 -87 -259 -129 -36
-15 -69 -31 -74 -36 -6 -5 -20 -9 -32 -9 -12 0 -33 -9 -47 -20 -14 -11 -28
-20 -31 -20 -3 0 -47 -20 -99 -44 -52 -24 -105 -47 -118 -51 -13 -4 -28 -11
-34 -15 -20 -16 -121 -50 -177 -60 -32 -6 -93 -22 -135 -36 -43 -14 -100 -29
-128 -34 -73 -13 -175 -40 -212 -56 -17 -8 -45 -14 -61 -14 -17 0 -43 -5 -59
-11 -29 -12 -118 -34 -188 -48 -22 -4 -50 -13 -63 -20 -19 -10 -34 -10 -73 -1
-27 7 -52 16 -55 22 -3 5 -17 14 -31 19 -21 8 -33 5 -59 -13 -19 -13 -34 -26
-34 -29 0 -4 -19 -19 -42 -35 -60 -41 -274 -254 -282 -282 -5 -16 1 -36 25
-72 26 -40 39 -51 68 -57 96 -18 212 0 441 67 82 24 222 60 275 69 22 5 60 17
85 28 51 24 110 43 130 43 7 0 31 9 54 19 23 11 100 36 171 56 72 20 156 47
188 61 32 14 102 41 155 59 164 56 344 122 407 149 33 14 69 26 80 26 11 0 35
9 54 21 47 29 213 99 233 99 10 0 39 12 65 27 69 38 70 38 158 78 100 45 232
131 240 156 30 92 -142 157 -435 165 -114 3 -140 2 -123 -7z m-247 -409 c0 -5
-7 -10 -16 -10 -8 0 -12 5 -9 10 3 6 10 10 16 10 5 0 9 -4 9 -10z"/>
<path d="M4750 8648 c-14 -6 -63 -21 -110 -33 -90 -24 -321 -104 -380 -132
-19 -8 -57 -26 -83 -39 -26 -12 -61 -25 -77 -29 -16 -3 -34 -13 -41 -21 -6 -8
-18 -14 -25 -14 -8 0 -22 -8 -32 -17 -9 -10 -28 -24 -42 -30 -21 -11 -14 -12
50 -7 l75 5 -35 -30 c-26 -22 -32 -33 -24 -41 15 -15 184 3 227 25 18 9 70 28
117 41 47 14 99 31 115 38 17 8 62 26 100 40 92 35 175 73 255 116 49 27 64
41 62 54 -2 11 2 23 10 28 7 5 -16 5 -57 2 -63 -7 -69 -6 -57 9 8 9 22 17 33
19 11 2 21 8 22 13 3 14 -73 16 -103 3z"/>
<path d="M6770 8431 c0 -5 6 -11 14 -14 7 -3 16 -21 20 -39 4 -20 20 -48 39
-65 17 -17 37 -37 43 -43 28 -29 111 -102 217 -192 15 -12 55 -49 88 -80 34
-32 64 -58 68 -58 4 0 40 -32 81 -71 41 -39 86 -78 100 -87 14 -10 36 -30 49
-46 14 -15 32 -34 40 -42 9 -8 32 -28 51 -44 19 -17 77 -70 128 -118 52 -48
116 -102 142 -120 27 -18 66 -53 88 -77 22 -25 45 -45 51 -45 6 0 11 -6 11
-14 0 -8 8 -17 18 -20 10 -4 46 -32 80 -65 60 -57 104 -77 137 -65 24 10 19
68 -10 102 -14 17 -25 35 -25 41 0 6 -9 16 -20 23 -11 7 -20 16 -20 20 0 11
-92 138 -100 138 -4 0 -31 32 -61 72 -79 105 -390 412 -488 482 -17 12 -60 46
-98 77 -37 31 -72 58 -78 60 -20 8 -130 84 -138 96 -4 6 -20 18 -35 26 -15 8
-52 29 -82 46 -86 48 -220 111 -235 111 -8 0 -17 5 -20 10 -8 12 -55 13 -55 1z"/>
<path d="M5935 7900 c-16 -5 -62 -14 -101 -19 -39 -6 -92 -20 -118 -31 -26
-11 -63 -20 -81 -20 -19 0 -38 -6 -42 -14 -7 -13 -34 -23 -123 -43 -14 -3 -27
-9 -30 -13 -3 -5 -27 -20 -54 -34 -27 -14 -54 -30 -61 -36 -17 -14 -117 -70
-137 -76 -10 -4 -18 -13 -18 -20 0 -8 -8 -17 -17 -21 -20 -7 -44 -27 -122
-101 -30 -29 -57 -52 -60 -52 -10 0 -71 -67 -71 -77 0 -5 -11 -20 -25 -33 -14
-13 -25 -29 -25 -36 0 -7 -16 -29 -35 -50 -20 -20 -38 -47 -41 -60 -3 -12 -12
-25 -20 -28 -8 -3 -14 -12 -14 -19 0 -8 -9 -22 -19 -31 -11 -10 -29 -38 -40
-64 -12 -26 -30 -60 -41 -77 -10 -16 -19 -36 -19 -43 -1 -8 -7 -28 -15 -45 -7
-18 -23 -66 -35 -107 -12 -41 -26 -84 -31 -95 -12 -30 -42 -182 -48 -250 -3
-33 -6 -143 -6 -245 -1 -158 3 -199 22 -285 62 -267 106 -392 212 -600 45 -88
86 -163 92 -166 9 -6 28 -34 45 -69 7 -15 94 -126 114 -145 95 -94 149 -150
149 -157 0 -4 7 -8 15 -8 9 0 34 -17 58 -38 76 -68 248 -167 403 -231 54 -23
115 -49 134 -58 51 -23 138 -42 193 -43 35 0 52 5 68 21 19 19 20 28 15 145
-3 69 -10 142 -15 162 -12 47 -31 187 -31 230 0 50 -25 90 -57 94 -22 2 -29 9
-31 30 l-3 27 -92 -4 -92 -5 -67 63 c-38 35 -68 67 -68 70 0 4 -8 15 -17 25
-10 10 -37 41 -61 68 -23 27 -61 69 -82 94 -22 25 -40 50 -40 56 0 6 -12 21
-26 35 -14 13 -34 43 -45 67 -11 23 -24 42 -29 42 -6 0 -10 7 -10 16 0 17 -45
100 -90 168 -17 24 -30 50 -30 58 0 8 -13 41 -30 73 -19 37 -30 74 -30 100 0
41 34 161 51 179 5 6 9 18 9 28 0 11 9 36 20 58 11 22 20 48 20 59 0 20 11 49
56 149 13 29 24 60 24 70 1 9 9 35 20 57 11 22 19 46 20 53 0 7 11 29 24 50
13 20 32 62 41 92 10 30 23 61 29 69 10 12 62 102 102 178 21 38 43 48 150 66
45 8 86 17 92 21 19 11 166 34 266 41 54 3 110 11 124 16 14 6 123 12 241 15
119 3 223 7 232 10 19 5 75 -18 105 -44 11 -9 24 -30 28 -45 3 -15 12 -27 19
-27 13 0 83 -68 102 -100 40 -64 53 -80 82 -100 18 -13 36 -33 39 -46 4 -13 9
-24 14 -24 4 0 15 -17 26 -37 23 -47 54 -84 65 -78 10 7 39 -35 39 -56 0 -9 7
-22 15 -29 13 -10 15 -9 15 8 0 12 -4 24 -10 27 -5 3 -10 17 -10 31 0 14 -6
24 -15 24 -8 0 -28 21 -46 48 -17 26 -37 52 -44 57 -6 6 -27 37 -46 70 -19 33
-44 64 -56 70 -12 5 -24 20 -26 35 -3 14 -16 30 -28 35 -13 6 -26 21 -30 35
-7 29 -70 100 -87 100 -7 0 -12 7 -12 15 0 9 -7 18 -15 21 -8 4 -15 12 -15 20
0 7 -9 18 -20 24 -12 6 -25 22 -30 36 l-10 25 -242 -5 c-362 -8 -479 -16 -543
-39 -41 -14 -70 -13 -59 4 3 5 -4 9 -15 9 -13 0 -19 -5 -15 -14 4 -10 -9 -15
-48 -20 -122 -14 -185 -24 -211 -35 -16 -6 -39 -11 -52 -11 -29 0 -56 -33 -80
-97 -10 -26 -25 -57 -34 -68 -10 -11 -23 -31 -29 -45 -7 -14 -16 -32 -20 -40
-5 -8 -17 -33 -27 -55 -27 -63 -56 -128 -71 -158 -8 -16 -14 -34 -14 -41 0 -7
-13 -43 -30 -79 -16 -37 -30 -76 -30 -87 0 -11 -5 -20 -10 -20 -6 0 -9 25 -8
63 2 34 -1 77 -5 95 -7 26 -6 32 7 32 11 0 16 -9 16 -30 0 -16 4 -30 9 -30 11
0 21 25 21 50 0 9 7 23 15 30 8 7 15 25 15 40 0 16 7 30 15 34 9 3 15 18 15
35 0 38 14 74 41 104 11 14 21 29 21 34 0 4 7 20 16 36 14 22 14 31 4 47 -16
26 -15 52 3 86 18 35 19 56 3 73 -11 10 -4 19 30 47 45 38 47 54 6 54 -20 0
-24 5 -24 30 0 26 39 81 56 79 3 0 8 2 11 5 4 3 -1 6 -10 6 -10 0 -17 6 -17
14 0 11 34 25 74 30 5 1 10 8 11 16 17 121 17 130 -3 130 -11 0 -25 6 -32 14
-6 8 -21 16 -32 18 -35 5 -34 28 1 28 24 0 31 -4 31 -20 0 -15 7 -20 25 -20
14 0 25 -4 25 -10 0 -6 32 -10 76 -10 67 0 75 2 72 18 -2 9 -10 16 -16 15 -7
-2 -12 4 -12 13 0 8 5 12 10 9 13 -8 32 42 31 82 -1 46 16 50 51 14 17 -18 37
-30 45 -27 17 7 63 -39 64 -64 3 -36 4 -40 14 -37 6 1 9 5 8 10 -2 4 3 6 10 5
7 -2 11 6 9 21 -3 20 0 23 17 18 11 -3 26 1 32 10 7 8 21 12 31 10 10 -3 21
-1 24 4 3 5 -3 9 -13 9 -13 0 -10 5 11 15 23 12 36 13 70 3 47 -13 98 -11 107
4 4 6 14 8 23 5 9 -4 15 -1 13 6 -1 8 17 13 56 15 31 2 57 7 57 12 0 13 77 13
85 0 3 -5 21 -10 38 -10 24 0 35 -6 42 -22 8 -18 17 -22 43 -20 22 3 32 -1 32
-10 0 -11 18 -14 82 -13 51 2 84 7 86 14 8 24 62 12 92 -21 24 -26 31 -29 44
-19 9 7 33 11 58 9 54 -4 61 22 10 33 -18 4 -43 16 -55 26 -28 25 -85 51 -129
60 -18 3 -45 12 -60 19 -15 8 -37 14 -50 14 -13 1 -41 9 -63 20 -22 11 -54 19
-72 20 -17 0 -60 6 -95 13 -73 16 -339 20 -383 7z m12 -36 c-3 -3 -12 -4 -19
-1 -8 3 -5 6 6 6 11 1 17 -2 13 -5z m360 -18 c4 -3 -12 -6 -34 -6 -25 0 -43 5
-46 13 -4 11 3 12 34 7 22 -4 43 -10 46 -14z m-435 -32 c-7 -44 -11 -47 -37
-30 -13 9 -38 16 -55 16 -16 0 -30 4 -30 8 0 17 13 21 31 11 14 -7 27 -5 46 5
34 18 49 15 45 -10z m545 -10 c-9 -9 -28 6 -21 18 4 6 10 6 17 -1 6 -6 8 -13
4 -17z m-384 -10 c-6 -17 -44 -15 -51 4 -2 8 7 12 27 12 23 0 29 -4 24 -16z
m-766 -306 c-3 -8 -6 -5 -6 6 -1 11 2 17 5 13 3 -3 4 -12 1 -19z m1 -88 c-1
-16 5 -36 12 -45 7 -8 10 -21 7 -30 -4 -8 -2 -17 3 -20 15 -9 12 -35 -4 -35
-8 0 -16 7 -20 15 -3 8 -9 15 -13 14 -4 -1 -16 -1 -26 0 -14 1 -16 5 -8 20 6
10 7 21 4 25 -8 8 31 86 43 86 1 0 2 -13 2 -30z m-38 -434 c0 -2 -7 -6 -15
-10 -8 -3 -15 -1 -15 4 0 6 7 10 15 10 8 0 15 -2 15 -4z m-50 -44 c0 -15 -27
-45 -32 -36 -18 33 -17 44 7 44 14 0 25 -4 25 -8z m-20 -99 c0 -15 -19 -17
-40 -3 -13 9 -12 12 4 25 21 16 35 6 36 -22z m-50 -33 c0 -11 5 -20 10 -20 6
0 10 -16 10 -35 0 -24 -5 -35 -15 -35 -10 0 -15 10 -15 33 0 17 -3 42 -6 55
-4 13 -2 22 5 22 6 0 11 -9 11 -20z m-135 -90 c-3 -44 -15 -49 -15 -7 0 21 4
37 9 37 5 0 8 -14 6 -30z m105 -237 c0 -14 -6 -39 -14 -56 -8 -18 -16 -41 -18
-51 -4 -23 -28 -34 -28 -13 0 8 7 28 15 43 8 16 15 41 15 56 0 35 10 59 21 52
5 -3 9 -17 9 -31z m-70 -28 c0 -40 -25 -66 -35 -36 -3 11 -3 36 1 56 5 29 9
33 20 24 8 -6 14 -26 14 -44z m-43 -87 c-3 -8 -6 -5 -6 6 -1 11 2 17 5 13 3
-3 4 -12 1 -19z m39 -105 c-5 -12 -10 -13 -17 -6 -8 8 -7 18 2 34 12 21 14 22
17 6 2 -10 1 -25 -2 -34z m-99 -115 c-3 -8 -6 -5 -6 6 -1 11 2 17 5 13 3 -3 4
-12 1 -19z m73 5 c0 -5 -4 -15 -10 -23 -11 -18 -25 -7 -17 15 6 15 27 21 27 8z
m-34 -120 c-2 -3 -9 -2 -15 2 -8 4 -7 13 1 28 l13 22 3 -23 c2 -13 1 -26 -2
-29z"/>
<path d="M5620 7760 c0 -5 5 -10 10 -10 6 0 10 5 10 10 0 6 -4 10 -10 10 -5 0
-10 -4 -10 -10z"/>
<path d="M6245 7762 c-2 -3 -2 -8 1 -13 5 -9 34 -1 34 10 0 8 -27 10 -35 3z"/>
<path d="M6045 7710 c4 -6 11 -8 16 -5 14 9 11 15 -7 15 -8 0 -12 -5 -9 -10z"/>
<path d="M6927 7662 c-7 -9 28 -52 42 -52 15 0 14 33 -1 48 -14 14 -34 16 -41
4z"/>
<path d="M6850 7634 c-9 -10 -10 -18 -2 -26 12 -12 32 -2 32 17 0 21 -16 26
-30 9z"/>
<path d="M6750 7620 c0 -5 5 -10 10 -10 6 0 10 5 10 10 0 6 -4 10 -10 10 -5 0
-10 -4 -10 -10z"/>
<path d="M5925 7600 c-8 -13 9 -20 24 -11 10 6 9 10 -3 14 -8 3 -18 2 -21 -3z"/>
<path d="M7030 7589 c0 -24 23 -21 28 4 2 10 -3 17 -12 17 -10 0 -16 -9 -16
-21z"/>
<path d="M7090 7547 c0 -8 7 -17 15 -21 19 -7 19 -25 -1 -47 -15 -17 -15 -18
9 -24 29 -8 76 20 76 45 0 12 -31 32 -91 58 -5 2 -8 -3 -8 -11z"/>
<path d="M7040 7492 c0 -18 5 -32 10 -32 6 0 8 11 4 28 -10 39 -14 40 -14 4z"/>
<path d="M7200 7459 c0 -5 5 -7 10 -4 6 3 10 8 10 11 0 2 -4 4 -10 4 -5 0 -10
-5 -10 -11z"/>
<path d="M5448 7443 c-7 -14 -3 -33 6 -33 12 -1 17 28 6 35 -5 3 -10 2 -12 -2z"/>
<path d="M7222 7438 c-19 -19 -14 -35 13 -42 14 -4 33 -18 42 -33 26 -40 62
-73 78 -73 9 0 15 -10 15 -25 0 -15 9 -31 25 -41 28 -18 34 -54 9 -54 -9 0
-24 10 -35 23 l-18 22 -1 -25 c0 -18 9 -31 30 -43 17 -10 30 -27 30 -38 0 -22
28 -26 36 -4 4 8 1 22 -6 30 -17 21 -6 29 19 15 22 -11 29 -54 11 -65 -17 -11
-12 -73 7 -84 16 -8 16 -11 3 -28 -28 -34 -8 -116 32 -129 33 -10 58 5 58 37
0 31 14 39 24 13 10 -25 7 -44 -9 -60 -8 -9 -15 -24 -15 -33 0 -10 -7 -24 -15
-31 -13 -11 -15 -8 -15 13 0 29 -18 46 -30 27 -11 -18 0 -52 27 -79 l24 -25
-30 -28 c-17 -16 -41 -28 -57 -28 -21 0 -25 -3 -19 -17 4 -10 9 -33 11 -52 2
-18 8 -38 13 -45 5 -6 10 -14 10 -18 1 -5 3 -8 6 -8 3 0 6 3 7 8 1 4 7 12 12
18 8 9 13 6 19 -9 5 -12 3 -23 -4 -27 -7 -5 -10 -42 -7 -109 2 -95 4 -103 29
-127 17 -16 29 -22 33 -15 4 6 2 11 -4 11 -18 0 -42 29 -37 43 4 9 6 9 6 0 1
-7 8 -13 16 -13 18 0 105 -82 105 -98 0 -7 -10 -13 -22 -14 -37 -2 -42 -3 -56
-11 -7 -5 -23 -7 -37 -5 -13 2 -25 -1 -27 -7 -2 -6 13 -9 34 -7 29 3 43 -2 62
-21 13 -13 26 -33 28 -43 4 -16 6 -14 12 9 5 17 15 27 27 27 15 0 19 -7 19
-39 0 -29 6 -44 21 -54 14 -10 19 -23 17 -41 -4 -34 -22 -35 -26 -2 -2 14 -12
28 -23 31 -15 5 -17 10 -9 25 13 25 13 30 -5 30 -9 0 -15 -9 -15 -25 0 -21 -5
-25 -27 -25 -56 0 -70 -24 -45 -74 8 -16 12 -39 9 -53 -5 -27 16 -43 56 -43
39 0 61 -32 52 -77 l-8 -38 -7 38 c-8 45 -10 47 -46 50 -25 2 -29 -1 -26 -20
3 -19 -2 -23 -22 -23 -14 0 -26 5 -26 11 0 6 -7 3 -16 -6 -10 -9 -25 -14 -35
-12 -15 4 -19 -1 -20 -26 -2 -55 2 -80 18 -104 9 -13 13 -36 11 -53 -3 -16 -1
-30 4 -30 4 0 8 -5 8 -12 0 -6 -11 -1 -25 12 -13 12 -23 27 -22 32 1 5 -29 10
-68 10 -38 0 -70 -4 -70 -8 -1 -5 -4 -19 -9 -31 -7 -21 -14 -23 -76 -23 -38 0
-75 -3 -84 -6 -13 -5 -16 2 -16 35 0 23 5 41 10 41 6 0 10 11 10 25 0 14 -4
25 -10 25 -14 0 -13 19 3 34 8 8 11 35 9 79 -4 71 -22 94 -22 27 0 -25 -7 -46
-19 -57 -24 -23 -41 -57 -41 -81 0 -10 -9 -27 -20 -37 -11 -10 -23 -33 -26
-52 -4 -19 -13 -37 -20 -40 -8 -3 -14 -13 -14 -23 0 -10 -3 -20 -8 -22 -4 -1
-23 -34 -42 -73 -19 -38 -43 -76 -52 -83 -10 -7 -18 -20 -18 -27 0 -8 -9 -20
-20 -27 -11 -7 -20 -20 -20 -29 0 -9 -7 -22 -15 -29 -8 -7 -15 -19 -15 -26 0
-8 -1 -14 -2 -15 -2 0 -41 -6 -88 -12 l-85 -12 1 -75 c0 -41 6 -118 12 -170 6
-52 12 -150 12 -218 0 -127 13 -177 55 -212 28 -24 93 -13 164 27 36 21 92 51
125 68 32 16 86 53 119 80 79 66 256 241 287 284 14 19 34 46 46 60 11 14 38
53 59 86 21 33 51 79 66 102 16 23 29 46 29 52 0 6 18 50 41 98 23 49 51 124
64 168 12 44 35 117 49 161 15 45 26 97 26 115 -2 32 7 102 30 249 6 35 8 70
6 77 -3 7 -12 82 -21 165 -8 85 -26 193 -40 243 -14 50 -33 120 -43 156 -10
36 -26 76 -35 90 -9 13 -17 30 -17 38 0 23 -127 271 -172 336 -23 33 -68 86
-100 118 -32 32 -58 65 -58 72 0 13 -51 58 -116 103 -23 16 -34 18 -42 10z
m292 -384 c10 -27 7 -44 -9 -44 -10 0 -15 10 -15 30 0 32 14 40 24 14z m26
-123 c0 -17 -12 -41 -21 -41 -5 0 -9 11 -9 25 0 16 6 25 15 25 8 0 15 -4 15
-9z m100 -163 c0 -4 -9 -8 -19 -8 -23 0 -34 23 -18 39 9 9 15 8 24 -6 7 -9 13
-20 13 -25z m31 -131 c-7 -19 -15 -24 -30 -20 -24 6 -29 33 -6 33 9 0 15 9 15
23 0 34 13 42 23 14 4 -13 3 -35 -2 -50z m-63 40 c2 -10 -3 -17 -12 -17 -9 0
-16 2 -16 4 0 2 -3 12 -6 21 -5 13 -2 16 12 13 10 -2 20 -11 22 -21z m112
-177 c0 -59 -17 -70 -25 -17 -8 54 0 91 15 67 6 -8 10 -31 10 -50z m7 -92 c13
-12 23 -32 23 -45 0 -33 -13 -28 -28 10 -13 32 -13 32 -25 9 -14 -24 -27 -20
-27 8 0 15 18 40 29 40 3 0 15 -10 28 -22z m-7 -157 c0 -89 -6 -116 -24 -102
-17 14 -9 181 10 181 11 0 14 -17 14 -79z m42 -126 c-2 -25 -8 -42 -13 -39 -6
3 -7 14 -4 24 3 11 1 29 -5 40 -9 16 -8 25 1 37 12 13 14 13 19 -1 3 -9 4 -36
2 -61z m-75 -197 c-3 -7 -5 -2 -5 12 0 14 2 19 5 13 2 -7 2 -19 0 -25z m43
-55 c0 -7 -7 -13 -16 -13 -11 0 -14 5 -10 16 3 9 6 21 6 27 0 16 20 -14 20
-30z m-44 -170 c-11 -11 -19 6 -11 24 8 17 8 17 12 0 3 -10 2 -21 -1 -24z
m-116 -27 c0 -13 7 -26 15 -30 18 -7 21 -60 3 -54 -7 3 -14 17 -16 31 -2 15
-10 27 -18 27 -8 0 -14 10 -14 25 0 16 6 25 15 25 9 0 15 -9 15 -24z m102 -62
c-2 -13 -8 -21 -13 -18 -11 6 -12 48 -2 57 11 12 20 -12 15 -39z m-515 -6 c-8
-13 -18 -36 -21 -51 -7 -31 -33 -32 -28 -1 10 60 16 73 35 82 27 12 33 0 14
-30z m311 -25 c-15 -2 -42 -2 -60 0 -18 2 -6 4 27 4 33 0 48 -2 33 -4z m169
-42 c10 -15 9 -22 -2 -31 -8 -7 -15 -21 -15 -30 0 -25 -10 -50 -21 -50 -15 0
-10 47 7 61 11 9 14 22 10 41 -6 32 4 37 21 9z m-87 -82 c0 -17 -4 -28 -10
-24 -5 3 -10 17 -10 31 0 13 5 24 10 24 6 0 10 -14 10 -31z m40 -58 c0 -20
-17 -37 -27 -28 -7 8 7 47 18 47 5 0 9 -9 9 -19z m-60 -11 c0 -5 -5 -10 -11
-10 -5 0 -7 5 -4 10 3 6 8 10 11 10 2 0 4 -4 4 -10z m-503 -42 c-3 -8 -6 -5
-6 6 -1 11 2 17 5 13 3 -3 4 -12 1 -19z m444 -151 c-13 -13 -26 -3 -16 12 3 6
11 8 17 5 6 -4 6 -10 -1 -17z"/>
<path d="M7196 7352 c-3 -6 -1 -14 5 -17 15 -10 25 3 12 16 -7 7 -13 7 -17 1z"/>
<path d="M5595 7270 c-4 -6 7 -10 27 -10 25 0 29 3 18 10 -19 13 -37 13 -45 0z"/>
<path d="M6690 7260 c0 -5 5 -10 10 -10 6 0 10 5 10 10 0 6 -4 10 -10 10 -5 0
-10 -4 -10 -10z"/>
<path d="M5440 7240 c0 -5 6 -10 14 -10 8 0 18 5 21 10 3 6 -3 10 -14 10 -12
0 -21 -4 -21 -10z"/>
<path d="M5347 7202 c-21 -23 -22 -62 -3 -62 8 0 17 15 21 36 8 44 3 50 -18
26z"/>
<path d="M5297 7103 c-4 -3 -7 -20 -7 -36 0 -29 0 -30 20 -12 23 20 27 55 7
55 -8 0 -17 -3 -20 -7z"/>
<path d="M7385 7068 c-4 -10 -4 -26 0 -35 8 -17 8 -17 12 0 3 9 3 25 0 35 -4
16 -4 16 -12 0z"/>
<path d="M7412 6988 c3 -7 13 -15 22 -16 12 -3 17 1 14 10 -3 7 -13 15 -22 16
-12 3 -17 -1 -14 -10z"/>
<path d="M6980 6959 c0 -5 5 -7 10 -4 6 3 10 8 10 11 0 2 -4 4 -10 4 -5 0 -10
-5 -10 -11z"/>
<path d="M2877 6920 c-38 -10 -137 -72 -169 -106 -78 -83 -208 -292 -208 -334
0 -5 -4 -18 -9 -28 -27 -50 -56 -129 -53 -144 2 -10 14 -21 28 -24 14 -4 24
-13 24 -24 0 -56 32 -56 135 -2 90 47 284 114 333 115 35 0 49 -5 78 -34 34
-33 134 -172 134 -187 0 -4 23 -41 50 -82 28 -41 60 -95 72 -120 12 -25 29
-56 38 -70 24 -35 163 -342 189 -417 21 -58 22 -76 18 -270 -5 -225 -20 -460
-37 -563 -6 -36 -15 -94 -20 -130 -19 -141 -61 -321 -79 -342 -4 -4 -54 -17
-111 -29 -89 -19 -138 -23 -327 -23 -241 -1 -238 0 -209 -54 8 -15 24 -46 35
-70 12 -24 26 -49 31 -55 6 -7 24 -32 40 -57 66 -101 110 -155 146 -182 117
-85 148 -101 233 -119 47 -11 101 -24 118 -28 67 -18 188 10 291 67 49 28 177
174 187 215 4 15 13 31 20 35 20 12 90 199 114 307 13 55 32 128 42 163 12 39
23 120 29 215 5 84 13 164 17 179 11 38 0 470 -16 603 -14 123 -91 465 -126
565 -13 36 -29 83 -35 105 -7 22 -18 47 -25 55 -6 8 -19 36 -29 62 -9 25 -24
52 -32 58 -7 7 -14 20 -14 29 -1 23 -53 112 -139 239 -20 28 -41 62 -48 75
-10 19 -168 193 -198 219 -60 50 -143 105 -221 143 -84 41 -104 46 -177 50
-45 2 -99 0 -120 -5z"/>
<path d="M7485 6830 c3 -5 8 -10 11 -10 2 0 4 5 4 10 0 6 -5 10 -11 10 -5 0
-7 -4 -4 -10z"/>
<path d="M6133 6713 c9 -2 23 -2 30 0 6 3 -1 5 -18 5 -16 0 -22 -2 -12 -5z"/>
<path d="M6270 6700 c0 -5 7 -10 15 -10 8 0 15 5 15 10 0 6 -7 10 -15 10 -8 0
-15 -4 -15 -10z"/>
<path d="M6050 6686 c0 -15 18 -31 26 -23 7 7 -7 37 -17 37 -5 0 -9 -6 -9 -14z"/>
<path d="M7180 6653 c0 -21 3 -24 9 -14 5 8 7 20 4 28 -8 21 -13 15 -13 -14z"/>
<path d="M5933 6663 c9 -2 25 -2 35 0 9 3 1 5 -18 5 -19 0 -27 -2 -17 -5z"/>
<path d="M5890 6640 c0 -5 5 -10 10 -10 6 0 10 5 10 10 0 6 -4 10 -10 10 -5 0
-10 -4 -10 -10z"/>
<path d="M5820 6580 c0 -5 5 -10 10 -10 6 0 10 5 10 10 0 6 -4 10 -10 10 -5 0
-10 -4 -10 -10z"/>
<path d="M5742 6508 c-17 -17 -15 -45 4 -52 10 -4 14 -16 12 -38 -4 -42 -28
-50 -28 -9 0 45 -18 38 -41 -16 -11 -27 -26 -59 -32 -72 -8 -15 -12 -73 -12
-155 1 -119 4 -137 28 -200 27 -66 77 -164 101 -194 6 -8 40 -44 76 -81 89
-91 196 -141 344 -161 58 -8 70 -7 111 10 11 5 34 11 50 15 100 20 122 28 165
60 26 19 52 35 57 35 8 0 59 55 115 125 51 64 103 202 113 297 12 119 -50 326
-120 401 -44 46 -62 33 -35 -27 45 -102 62 -178 62 -278 1 -82 -2 -101 -16
-111 -10 -7 -20 -32 -23 -57 -3 -25 -13 -53 -22 -62 -32 -34 -41 -47 -41 -63
0 -9 -6 -18 -14 -21 -8 -3 -17 -15 -20 -27 -6 -22 -7 -22 -27 6 -11 15 -29 27
-40 27 -27 0 -24 -11 12 -43 18 -15 29 -31 25 -35 -4 -3 -11 -1 -15 6 -5 9
-17 11 -34 7 -22 -6 -28 -3 -37 19 -11 29 -40 35 -40 8 0 -36 -37 -53 -109
-51 -78 2 -91 -3 -84 -31 5 -17 0 -20 -28 -21 l-34 -2 35 -6 c22 -4 35 -12 35
-21 0 -8 -6 -15 -12 -14 -7 1 -24 2 -38 3 -18 1 -25 7 -25 21 0 22 -25 28 -33
8 -4 -10 -6 -10 -6 0 -1 6 -10 12 -20 12 -17 0 -19 8 -20 60 0 33 -3 65 -6 70
-3 6 -40 10 -81 10 -67 0 -74 -2 -74 -19 0 -29 -17 -35 -30 -11 -10 18 -8 22
9 27 19 5 21 13 21 84 0 65 -3 79 -15 79 -18 0 -67 45 -59 53 3 3 -5 11 -17
18 -13 7 -29 18 -36 25 -7 7 -21 10 -32 7 -24 -6 -38 31 -20 53 8 10 10 35 5
83 -6 67 -5 69 19 75 24 6 25 10 25 79 -1 44 -6 79 -14 90 -16 20 -18 21 -34
5z m-13 -175 c-2 -48 -19 -95 -33 -90 -6 2 -14 21 -18 42 -7 31 -5 41 7 47 8
5 15 16 15 23 0 8 7 15 15 15 12 0 15 -10 14 -37z m23 -405 c-9 -9 -12 -7 -12
12 0 19 3 21 12 12 9 -9 9 -15 0 -24z m138 -159 c0 -24 -23 -21 -28 4 -2 10 3
17 12 17 10 0 16 -9 16 -21z m600 1 c21 -17 23 -21 10 -30 -8 -5 -21 -8 -27
-5 -7 3 -20 8 -28 11 -10 4 -15 0 -15 -10 0 -9 5 -16 12 -16 9 0 9 -3 0 -12
-9 -9 -16 -7 -32 7 -25 22 -25 30 -2 54 22 25 51 25 82 1z m-100 -80 c0 -5
-11 -10 -25 -10 -14 0 -25 5 -25 10 0 6 11 10 25 10 14 0 25 -4 25 -10z m-320
-20 c0 -5 -5 -10 -11 -10 -5 0 -7 5 -4 10 3 6 8 10 11 10 2 0 4 -4 4 -10z
m245 0 c17 -6 14 -9 -18 -15 -40 -8 -53 -3 -42 14 7 13 31 13 60 1z m-85 -20
c0 -6 -30 -10 -72 -9 -55 1 -66 3 -43 9 45 11 115 11 115 0z"/>
<path d="M7165 6510 c3 -5 8 -10 11 -10 2 0 4 5 4 10 0 6 -5 10 -11 10 -5 0
-7 -4 -4 -10z"/>
<path d="M5858 6503 c7 -3 16 -2 19 1 4 3 -2 6 -13 5 -11 0 -14 -3 -6 -6z"/>
<path d="M8460 6463 c-6 -16 -17 -44 -25 -63 -31 -74 -80 -265 -105 -410 -16
-93 -41 -207 -55 -256 -8 -28 -15 -68 -15 -90 0 -21 -5 -57 -11 -79 -6 -22
-16 -80 -24 -130 -7 -49 -17 -108 -23 -130 -6 -22 -14 -83 -18 -135 -4 -52
-10 -99 -14 -105 -4 -5 -13 -70 -20 -143 -6 -73 -16 -148 -21 -165 -5 -18 -9
-61 -9 -97 0 -36 -7 -117 -15 -180 -9 -63 -13 -125 -10 -137 3 -12 1 -71 -4
-130 -10 -107 -1 -236 18 -278 5 -11 14 -34 21 -52 7 -19 23 -36 41 -43 26
-11 34 -10 64 12 63 44 130 156 195 323 17 43 35 84 39 90 9 10 53 147 66 200
3 16 17 52 30 80 12 27 26 68 29 90 9 57 31 167 38 185 21 60 31 102 40 164 5
39 14 100 20 136 6 36 12 110 14 165 2 55 7 138 11 185 5 47 5 103 1 125 -4
22 -7 85 -8 140 0 100 -2 118 -39 340 -23 134 -56 277 -74 315 -7 14 -29 33
-49 43 -20 10 -40 27 -43 38 -9 28 -34 23 -45 -8z"/>
<path d="M6620 6350 c0 -5 5 -10 10 -10 6 0 10 5 10 10 0 6 -4 10 -10 10 -5 0
-10 -4 -10 -10z"/>
<path d="M7330 6350 c0 -5 5 -10 10 -10 6 0 10 5 10 10 0 6 -4 10 -10 10 -5 0
-10 -4 -10 -10z"/>
<path d="M6660 6215 c0 -15 4 -24 10 -20 6 3 10 12 10 20 0 8 -4 17 -10 20 -6
4 -10 -5 -10 -20z"/>
<path d="M7615 6220 c10 -11 20 -20 23 -20 3 0 -3 9 -13 20 -10 11 -20 20 -23
20 -3 0 3 -9 13 -20z"/>
<path d="M7292 6217 c-11 -13 -16 -45 -14 -90 2 -37 22 -25 22 13 0 16 5 32
10 35 12 8 13 42 1 49 -5 3 -13 0 -19 -7z"/>
<path d="M6575 6190 c-3 -5 1 -10 10 -10 9 0 13 5 10 10 -3 6 -8 10 -10 10 -2
0 -7 -4 -10 -10z"/>
<path d="M6660 6116 c0 -14 5 -26 10 -26 6 0 10 9 10 19 0 11 -4 23 -10 26 -6
4 -10 -5 -10 -19z"/>
<path d="M7565 6130 c4 -6 11 -8 16 -5 14 9 11 15 -7 15 -8 0 -12 -5 -9 -10z"/>
<path d="M7615 6100 c10 -11 20 -20 23 -20 3 0 -3 9 -13 20 -10 11 -20 20 -23
20 -3 0 3 -9 13 -20z"/>
<path d="M6580 6084 c0 -8 5 -12 10 -9 6 4 8 11 5 16 -9 14 -15 11 -15 -7z"/>
<path d="M7256 6042 c-3 -5 -10 -37 -16 -73 -7 -35 -14 -76 -17 -91 -4 -23 -2
-28 16 -28 24 0 24 0 22 92 -1 37 3 69 9 73 13 8 13 35 1 35 -6 0 -12 -4 -15
-8z"/>
<path d="M6620 6030 c0 -5 5 -10 10 -10 6 0 10 5 10 10 0 6 -4 10 -10 10 -5 0
-10 -4 -10 -10z"/>
<path d="M6593 5996 c9 -7 17 -20 17 -29 0 -21 19 -32 33 -18 13 13 -28 61
-52 61 -14 -1 -14 -3 2 -14z"/>
<path d="M6556 5972 c-2 -4 -1 -14 5 -22 7 -12 9 -10 9 8 0 23 -5 28 -14 14z"/>
<path d="M6577 5924 c-13 -13 -7 -24 14 -24 11 0 19 5 17 12 -5 14 -22 21 -31
12z"/>
<path d="M7298 5895 c-8 -18 -8 -29 -1 -36 17 -17 33 -1 33 32 0 36 -16 38
-32 4z"/>
<path d="M6556 5881 c-4 -7 -5 -15 -2 -18 9 -9 19 4 14 18 -4 11 -6 11 -12 0z"/>
<path d="M7369 5843 c0 -2 -1 -20 -1 -40 l-1 -37 44 3 c57 4 64 11 11 11 -38
0 -42 2 -42 25 0 24 3 25 55 25 53 0 55 -1 55 -27 0 -33 5 -28 13 12 l6 30
-70 0 c-38 0 -69 -1 -70 -2z"/>
<path d="M2563 5780 c-58 -33 -82 -63 -122 -152 -78 -172 -82 -453 -9 -678 92
-285 230 -450 378 -450 48 0 125 55 169 121 34 50 57 112 90 235 29 110 -3
438 -54 559 -7 17 -23 55 -36 85 -23 54 -57 107 -90 141 -9 9 -21 23 -25 30
-28 44 -115 108 -166 123 -73 21 -74 21 -135 -14z"/>
<path d="M6128 5753 c18 -2 45 -2 60 0 15 2 0 4 -33 4 -33 0 -45 -2 -27 -4z"/>
<path d="M7465 5750 c4 -6 11 -8 16 -5 14 9 11 15 -7 15 -8 0 -12 -5 -9 -10z"/>
<path d="M7227 5726 c-7 -18 49 -27 64 -10 8 9 5 11 -10 7 -12 -3 -21 -1 -21
6 0 16 -27 14 -33 -3z"/>
<path d="M7241 5681 c-10 -6 -9 -10 3 -14 8 -3 18 -2 21 3 8 13 -9 20 -24 11z"/>
<path d="M7210 5609 c0 -5 5 -7 10 -4 6 3 10 8 10 11 0 2 -4 4 -10 4 -5 0 -10
-5 -10 -11z"/>
<path d="M6045 3920 c-22 -6 -94 -16 -160 -25 -150 -18 -412 -68 -450 -85 -11
-5 -36 -12 -55 -15 -39 -8 -228 -69 -275 -90 -16 -7 -40 -16 -53 -20 -13 -4
-65 -27 -115 -52 -50 -25 -101 -49 -112 -54 -11 -5 -32 -17 -47 -27 -14 -9
-48 -30 -75 -46 -68 -41 -88 -57 -174 -142 -59 -58 -87 -95 -120 -161 -43 -84
-44 -88 -44 -182 1 -102 6 -118 85 -257 79 -141 320 -285 480 -288 l55 -1 -4
40 c-2 22 -11 56 -22 76 -21 41 -79 265 -79 304 0 40 15 60 72 95 29 18 78 50
108 70 30 20 98 58 150 84 52 27 118 60 145 75 28 15 70 35 94 45 24 9 85 37
136 62 50 24 94 44 98 44 4 0 41 16 84 35 42 20 99 41 127 47 56 12 260 4 336
-12 25 -6 90 -17 145 -25 55 -7 129 -19 165 -25 36 -6 94 -15 130 -19 36 -5
134 -25 217 -46 l153 -37 6 -34 c3 -18 1 -102 -4 -186 -8 -122 -8 -156 2 -168
8 -8 16 -27 20 -42 6 -25 11 -28 49 -28 36 0 50 7 97 48 76 65 150 139 150
149 0 5 11 24 25 43 51 70 70 176 53 305 -11 83 -33 136 -59 142 -10 3 -19 9
-19 13 0 4 -21 31 -47 60 -127 139 -413 260 -710 300 -40 6 -108 15 -150 21
-104 15 -358 20 -408 9z"/>
<path d="M6009 3090 c-41 -4 -85 -12 -96 -19 -12 -6 -36 -11 -53 -11 -33 0
-198 -54 -214 -71 -6 -5 -16 -9 -24 -9 -25 0 -175 -107 -206 -146 -42 -53 -42
-130 -2 -205 39 -71 73 -107 116 -120 19 -6 42 -17 50 -24 25 -22 119 -36 265
-42 118 -5 158 -2 255 16 118 23 140 29 272 79 147 56 228 120 274 216 35 76
20 129 -63 207 -60 57 -129 94 -213 113 -77 17 -255 25 -361 16z"/>
<path d="M4288 1455 c-2 -3 -31 -10 -64 -16 -32 -6 -63 -14 -69 -19 -5 -4 -22
-10 -38 -14 -44 -10 -127 -69 -190 -134 -49 -51 -90 -118 -127 -207 -48 -117
-32 -416 27 -486 7 -8 13 -22 13 -30 1 -36 141 -220 194 -255 134 -87 186
-104 341 -111 128 -6 211 8 285 46 19 10 50 26 68 35 97 52 208 221 233 356 7
41 14 105 14 142 0 59 -3 70 -27 95 -16 16 -28 34 -28 41 0 27 -45 32 -288 32
l-250 0 -6 -22 c-3 -13 -6 -59 -6 -104 0 -75 2 -83 32 -122 35 -45 80 -65 139
-60 43 4 46 -13 8 -56 -47 -54 -91 -71 -184 -71 -162 0 -225 62 -241 237 -7
85 6 163 43 246 44 99 92 130 217 139 97 7 142 -9 219 -75 59 -51 84 -53 174
-11 108 50 127 93 75 165 -50 68 -157 160 -225 193 -90 44 -317 88 -339 66z"/>
<path d="M1871 1407 c-8 -8 -11 -171 -11 -548 0 -519 1 -537 20 -561 11 -14
24 -37 29 -50 6 -17 20 -27 41 -32 56 -11 547 -7 573 5 34 15 47 43 54 113 7
79 0 108 -35 144 -15 16 -32 37 -38 47 -9 16 -28 19 -139 22 -71 2 -131 5
-134 8 -2 3 -5 173 -5 378 l-1 373 -47 54 -48 54 -124 2 c-79 1 -128 -2 -135
-9z"/>
<path d="M3080 1410 l-95 -5 0 -530 c0 -291 4 -545 8 -563 5 -18 15 -36 23
-39 8 -3 14 -14 14 -24 0 -29 39 -39 148 -39 109 0 134 10 155 63 9 24 12 155
12 535 l0 502 -32 31 c-18 16 -33 36 -33 44 0 8 -8 19 -17 24 -19 9 -27 9
-183 1z"/>
<path d="M6944 1403 c-9 -10 -11 -131 -8 -535 2 -288 4 -533 4 -544 0 -13 8
-24 20 -27 11 -3 20 -14 20 -25 0 -10 9 -27 20 -37 19 -17 46 -19 303 -22 211
-2 288 1 307 10 35 17 56 108 44 185 -8 48 -13 57 -33 62 -14 3 -32 19 -41 35
l-17 30 -119 2 c-65 1 -129 2 -141 2 -20 1 -23 6 -23 39 0 64 17 72 158 72 69
0 132 5 146 11 29 14 46 55 46 115 0 46 -26 124 -41 124 -5 0 -17 17 -27 38
l-17 37 -123 1 c-68 1 -128 6 -133 11 -15 15 0 61 24 78 16 11 53 15 154 15
125 0 133 1 160 24 27 24 28 26 25 118 -2 88 -4 94 -31 120 -16 15 -32 37 -36
48 -3 11 -12 20 -18 20 -7 1 -147 2 -311 3 -226 1 -303 -1 -312 -10z"/>
<path d="M8715 1407 c-2 -7 -5 -58 -7 -113 -3 -86 -1 -104 13 -112 9 -6 19
-24 22 -41 4 -18 13 -31 22 -31 8 0 20 -9 27 -19 9 -15 15 -17 30 -8 40 26 43
7 48 -401 5 -369 6 -389 26 -422 32 -54 55 -61 183 -53 84 4 118 11 134 23 20
17 20 25 25 539 2 288 1 534 -2 547 -4 13 -13 24 -21 24 -7 0 -24 15 -36 33
-13 17 -28 35 -33 39 -19 13 -427 8 -431 -5z"/>
<path d="M5401 1396 c-8 -10 -10 -120 -6 -410 l6 -397 31 -82 c17 -45 36 -87
43 -92 7 -6 15 -20 19 -31 6 -21 125 -118 175 -144 38 -19 158 -46 243 -54 62
-6 93 -3 169 15 52 12 106 31 121 41 14 10 33 18 42 18 24 0 123 104 151 160
50 98 53 132 56 528 l3 370 -46 46 -45 47 -129 -3 -129 -3 -5 -375 c-5 -387
-7 -409 -48 -454 -52 -56 -176 -75 -251 -36 -50 25 -52 37 -49 300 5 382 2
470 -20 494 -10 11 -26 33 -35 49 l-17 27 -134 0 c-101 0 -136 -3 -145 -14z"/>
</g>
</svg>
