<?xml version="1.0" standalone="no"?>
<!DOCTYPE svg PUBLIC "-//W3C//DTD SVG 20010904//EN"
 "http://www.w3.org/TR/2001/REC-SVG-20010904/DTD/svg10.dtd">
<svg version="1.0" xmlns="http://www.w3.org/2000/svg"
 width="1200.000000pt" height="1000.000000pt" viewBox="0 0 1200.000000 1000.000000"
 preserveAspectRatio="xMidYMid meet">
<metadata>
Created by potrace 1.13, written by Peter Selinger 2001-2015
</metadata>
<g transform="translate(0.000000,1000.000000) scale(0.100000,-0.100000)"
fill="#000000" stroke="none">
<path d="M5915 9624 c-268 -9 -655 -66 -915 -133 -41 -11 -86 -23 -100 -26
-163 -43 -460 -148 -630 -222 -136 -61 -386 -188 -474 -241 -37 -23 -70 -42
-72 -42 -6 0 -308 -201 -314 -209 -3 -4 -41 -33 -85 -66 -249 -186 -562 -486
-752 -722 -106 -131 -263 -342 -263 -353 0 -4 -4 -10 -9 -12 -11 -4 -85 -122
-188 -302 -87 -150 -215 -411 -258 -526 -9 -25 -23 -61 -32 -80 -27 -62 -31
-73 -71 -195 -99 -301 -166 -591 -202 -880 -49 -386 -52 -713 -9 -1120 11
-103 15 -131 50 -325 90 -501 279 -1010 541 -1460 215 -368 418 -631 727 -941
204 -204 274 -266 486 -430 388 -300 870 -552 1358 -709 347 -111 606 -163
1049 -210 125 -13 608 -13 740 0 333 33 561 74 853 151 107 29 320 97 372 120
24 11 49 19 56 19 7 0 17 4 22 9 6 4 42 20 80 35 134 53 386 174 515 249 47
27 99 58 117 68 76 43 300 192 313 209 3 3 35 27 72 53 36 26 72 53 80 60 7 7
23 20 35 28 103 71 481 434 579 555 21 27 54 66 73 86 19 21 41 48 49 60 9 13
41 55 72 93 77 95 247 350 332 499 39 66 106 195 150 286 106 221 111 232 148
330 18 47 36 94 40 105 5 11 22 61 38 110 116 358 169 604 223 1045 15 123 15
727 0 851 -36 296 -66 467 -118 679 -35 145 -113 405 -143 475 -4 11 -18 47
-30 80 -12 33 -33 85 -47 115 -14 30 -32 73 -41 95 -23 57 -133 278 -177 355
-21 36 -49 85 -63 110 -14 25 -59 98 -101 163 -42 64 -80 125 -86 134 -47 78
-272 356 -410 506 -91 99 -344 342 -425 407 -217 175 -468 350 -655 455 -153
87 -268 145 -377 194 -27 12 -69 30 -95 42 -59 26 -111 48 -140 60 -13 5 -33
13 -45 18 -113 47 -331 114 -523 161 -256 63 -365 82 -685 119 -92 11 -489 20
-635 15z m660 -348 c532 -64 966 -190 1421 -415 609 -300 1098 -703 1523
-1254 56 -73 228 -329 276 -412 259 -443 438 -933 524 -1427 53 -303 56 -354
56 -878 0 -498 -1 -526 -41 -811 -28 -196 -84 -446 -149 -659 -38 -127 -102
-301 -146 -398 -12 -26 -30 -67 -41 -92 -34 -75 -123 -252 -157 -308 -17 -29
-31 -55 -31 -58 0 -3 -18 -32 -40 -64 -22 -32 -40 -62 -40 -65 0 -3 -24 -40
-52 -82 -29 -41 -60 -85 -68 -97 -52 -76 -187 -253 -210 -276 -3 -3 -39 -43
-80 -90 -110 -124 -260 -272 -415 -410 -48 -42 -165 -137 -255 -206 -105 -81
-398 -274 -416 -274 -12 0 -15 6 -11 22 6 24 34 131 62 232 26 98 10 107 -88
48 -94 -57 -359 -185 -504 -243 -283 -113 -620 -206 -898 -248 -38 -6 -99 -15
-135 -20 -263 -39 -807 -40 -1090 -2 -1313 179 -2447 926 -3121 2058 -311 523
-496 1078 -575 1733 -23 184 -26 910 -6 1115 19 194 56 442 84 560 142 614
355 1091 702 1570 45 63 162 212 176 225 3 3 34 39 70 80 144 167 413 419 590
555 36 27 72 55 80 62 38 32 336 236 385 263 41 23 60 18 50 -14 -25 -83 -53
-189 -60 -232 -9 -58 8 -60 91 -12 69 41 338 178 348 178 3 0 29 11 58 24 348
159 859 290 1268 326 69 5 143 12 165 14 86 9 587 -4 700 -18z"/>
<path d="M5794 8287 c-3 -8 -45 -135 -94 -283 -49 -148 -95 -273 -103 -278
-10 -6 -78 36 -246 155 -365 257 -342 242 -354 230 -9 -9 -1 -76 31 -264 23
-138 42 -255 42 -259 0 -20 -39 -3 -104 46 -126 94 -245 166 -276 166 -30 0
-24 -25 19 -88 47 -70 148 -276 192 -396 18 -48 39 -90 45 -93 6 -2 72 25 145
61 366 177 706 256 1109 256 236 0 412 -20 614 -71 46 -12 83 -16 88 -11 5 5
15 55 24 113 21 146 51 276 85 380 33 102 35 119 13 119 -20 0 -163 -138 -242
-232 -54 -66 -78 -81 -87 -55 -2 6 -11 121 -19 255 -8 133 -18 247 -21 252
-12 19 -30 8 -75 -44 -83 -97 -382 -431 -402 -448 -24 -22 -32 -18 -65 34 -35
56 -208 340 -250 411 -33 55 -58 71 -69 44z"/>
<path d="M6090 7379 c-240 -12 -432 -48 -685 -130 -116 -37 -286 -111 -286
-124 -1 -11 1 -12 79 -46 92 -40 215 -180 185 -210 -9 -9 -26 -6 -72 14 -133
58 -231 58 -328 1 -104 -60 -160 -222 -133 -386 12 -75 45 -183 62 -205 13
-17 -7 -43 -33 -43 -21 0 -109 102 -138 158 -51 102 -68 284 -38 400 21 77 3
77 -90 -1 -187 -156 -399 -399 -525 -603 -86 -139 -121 -213 -105 -220 8 -3
61 -13 118 -22 80 -13 105 -21 107 -34 2 -9 -26 -56 -62 -105 -170 -230 -339
-620 -401 -928 -26 -130 -31 -190 -16 -200 6 -3 93 22 194 55 101 33 192 60
201 60 15 0 17 -6 13 -37 -61 -462 -48 -846 43 -1196 31 -120 92 -278 116
-298 20 -16 62 18 210 166 160 162 279 308 412 508 57 85 77 107 96 107 27 0
32 -15 71 -195 45 -208 45 -568 -1 -845 -13 -81 -55 -306 -60 -322 -9 -30 192
-120 374 -168 249 -66 589 -67 852 -4 222 54 451 150 634 267 69 45 80 49 90
35 7 -9 27 -80 45 -157 22 -98 37 -141 46 -141 26 0 216 152 324 259 299 296
483 658 550 1081 13 78 21 106 33 108 9 2 47 -33 94 -85 43 -48 85 -88 93 -88
17 0 27 29 71 205 130 525 92 1019 -119 1513 -50 118 -67 151 -144 287 -86
153 -158 261 -171 257 -6 -2 -16 -23 -22 -47 -6 -24 -15 -45 -21 -47 -5 -2
-47 38 -93 88 l-84 91 27 20 c43 31 49 50 33 103 -16 50 -59 120 -80 128 -20
8 -90 -27 -134 -67 l-40 -36 -28 23 c-67 55 -154 93 -154 68 0 -6 27 -51 60
-102 33 -51 61 -95 62 -99 2 -3 57 -51 123 -106 119 -100 191 -172 181 -181
-2 -2 -64 3 -137 13 -161 21 -293 11 -405 -31 l-69 -26 -20 24 c-103 124 -157
185 -234 261 -86 84 -91 91 -91 131 0 27 11 63 30 101 16 32 30 62 30 67 0 25
-130 -24 -165 -63 -10 -11 -24 -20 -31 -20 -6 0 -45 20 -85 45 -41 25 -120 64
-178 86 -85 33 -112 40 -145 35 -86 -14 -240 -90 -316 -156 -34 -30 -35 -30
-15 -46 29 -22 194 -101 230 -108 17 -4 112 -11 212 -15 150 -6 187 -11 210
-26 15 -10 97 -87 183 -172 142 -141 154 -155 137 -167 -15 -12 -27 -12 -80 2
-50 12 -119 15 -357 13 -279 -1 -369 5 -427 30 -61 25 -82 36 -134 70 -107 72
-199 211 -199 303 l0 33 -72 12 c-104 18 -108 20 -108 45 0 41 183 189 280
226 65 25 65 29 8 80 l-52 47 69 51 c151 112 390 210 600 247 l100 18 90 -48
c50 -27 161 -95 247 -152 87 -56 162 -103 168 -103 16 0 39 54 59 137 12 53
23 79 34 81 49 10 365 -200 556 -369 30 -27 58 -46 63 -43 11 7 10 40 -1 62
-38 68 -101 289 -101 351 0 44 -183 178 -355 261 -116 55 -362 137 -375 124
-5 -5 2 -46 16 -93 28 -98 29 -110 8 -118 -11 -4 -37 15 -82 59 -82 80 -166
148 -228 184 -42 25 -61 29 -158 33 -61 4 -172 3 -246 0z m997 -1765 c37 -26
105 -64 151 -85 l82 -38 0 -166 0 -166 -33 -28 c-100 -88 -275 -212 -377 -267
-102 -55 -219 -94 -285 -94 -40 0 -50 12 -127 160 -149 284 -171 326 -179 335
-21 22 -3 44 83 105 176 124 354 220 490 265 103 33 117 32 195 -21z m-1877
26 c0 -5 18 -10 40 -10 27 0 40 -4 40 -14 0 -9 8 -12 25 -9 24 5 55 -15 55
-36 0 -6 7 -8 14 -5 8 3 25 -4 37 -15 13 -12 26 -21 31 -21 12 0 178 -168 178
-179 0 -6 17 -27 38 -48 20 -21 43 -50 51 -65 8 -16 18 -28 23 -28 4 0 8 -6 8
-13 0 -7 8 -22 18 -33 9 -10 23 -31 31 -46 8 -16 18 -28 23 -28 4 0 8 -6 8
-13 0 -7 8 -22 18 -33 9 -10 23 -31 31 -46 8 -16 18 -28 23 -28 4 0 8 -6 8
-13 0 -7 8 -22 18 -33 24 -28 42 -61 42 -78 0 -8 6 -16 14 -19 8 -3 22 -22 31
-41 10 -20 21 -36 26 -36 5 0 9 -6 9 -13 0 -7 8 -22 18 -33 20 -22 62 -101 62
-116 0 -6 8 -18 18 -27 22 -20 42 -56 42 -75 0 -8 6 -16 14 -19 8 -3 22 -22
31 -41 10 -20 21 -36 26 -36 5 0 9 -6 9 -13 0 -7 8 -22 18 -33 22 -25 42 -61
42 -74 0 -5 14 -23 30 -38 17 -16 30 -33 30 -39 0 -5 8 -18 18 -29 9 -10 23
-31 31 -46 8 -16 18 -28 23 -28 4 0 8 -6 8 -13 0 -7 9 -23 21 -36 11 -12 18
-29 15 -37 -3 -8 1 -14 10 -14 11 0 15 -6 11 -20 -3 -14 0 -20 10 -20 10 0 14
-6 10 -20 -3 -14 0 -20 10 -20 11 0 14 -8 11 -30 -3 -20 0 -30 9 -30 10 0 13
-21 13 -85 0 -50 -4 -85 -10 -85 -5 0 -10 -11 -10 -25 0 -32 -104 -140 -126
-131 -8 3 -14 -1 -14 -10 0 -11 -6 -15 -20 -11 -14 3 -20 0 -20 -10 0 -10 -6
-14 -20 -10 -13 3 -20 0 -20 -9 0 -10 -12 -14 -40 -14 -22 0 -40 -4 -40 -10 0
-6 -42 -10 -105 -10 -81 0 -105 3 -105 13 0 9 -10 12 -30 9 -21 -3 -30 0 -30
10 0 10 -9 13 -30 10 -23 -3 -30 0 -30 12 0 9 -6 13 -14 10 -8 -3 -25 4 -37
15 -13 12 -27 21 -32 21 -14 0 -277 263 -277 277 0 7 -27 39 -60 70 -33 32
-60 63 -60 70 0 7 -31 43 -70 80 -38 37 -70 74 -70 82 0 15 -49 61 -64 61 -6
0 -1 7 10 15 18 15 15 16 -31 12 -27 -2 -42 -2 -32 0 23 6 22 25 -3 43 -11 8
-20 20 -20 26 0 7 -31 44 -70 82 -38 38 -70 74 -70 80 0 6 -18 28 -40 50 -22
21 -40 45 -40 53 0 8 -9 20 -20 27 -11 7 -20 20 -20 30 0 10 -9 24 -20 32 -11
8 -20 22 -20 31 0 10 -3 19 -7 21 -15 6 -55 96 -49 107 4 6 0 11 -10 11 -11 0
-15 6 -11 20 3 14 0 20 -10 20 -11 0 -14 8 -11 30 3 18 -1 35 -9 41 -19 16
-19 319 0 319 9 0 11 12 9 40 -3 25 0 40 7 40 6 0 11 9 11 20 0 11 6 20 14 20
9 0 12 7 9 20 -4 14 0 20 11 20 9 0 13 6 10 14 -3 8 4 25 15 37 12 13 21 27
21 31 0 18 112 120 126 114 8 -3 14 1 14 10 0 11 6 15 20 11 13 -3 20 0 20 9
0 9 11 14 30 14 17 0 30 5 30 10 0 6 20 10 45 10 25 0 45 -4 45 -10z m2553
-49 c42 -104 77 -295 77 -418 0 -121 -51 -333 -80 -333 -12 0 -23 13 -71 90
-23 36 -72 99 -110 142 l-69 76 0 169 0 169 95 63 c52 34 97 67 101 72 13 22
42 7 57 -30z m-231 -793 c82 -109 124 -236 99 -300 -5 -13 -14 -41 -21 -63
-42 -136 -153 -303 -243 -367 -43 -31 -57 -12 -57 76 0 78 -23 223 -37 237 -5
5 -23 -3 -43 -19 -36 -29 -116 -78 -160 -98 -115 -53 -168 -69 -185 -56 -23
16 -156 284 -153 306 2 14 18 23 58 33 69 17 186 76 287 144 79 53 154 109
163 121 8 10 57 15 166 17 l102 1 24 -32z m-2369 -635 c-7 -2 -21 -2 -30 0
-10 3 -4 5 12 5 17 0 24 -2 18 -5z"/>
<path d="M6525 3620 c-3 -5 -1 -10 4 -10 6 0 11 5 11 10 0 6 -2 10 -4 10 -3 0
-8 -4 -11 -10z"/>
<path d="M2282 5248 c-15 -15 -16 -104 -2 -113 6 -4 51 -6 100 -6 56 0 92 -4
96 -11 4 -6 8 -42 10 -80 4 -117 69 -198 174 -218 102 -19 197 26 239 115 19
41 21 60 19 183 l-3 137 -310 3 c-233 2 -314 -1 -323 -10z m510 -141 c11 -21
2 -93 -17 -123 -17 -26 -72 -38 -109 -24 -43 16 -76 126 -46 156 6 6 44 10 86
9 62 0 77 -4 86 -18z"/>
<path d="M2570 4754 c-226 -29 -262 -34 -271 -39 -13 -9 -11 -78 4 -98 11 -15
23 -16 134 -5 143 14 165 6 183 -62 13 -48 26 -55 77 -43 52 12 57 50 15 102
-29 36 -29 38 -11 49 24 15 26 74 3 96 -8 9 -18 16 -22 15 -4 -1 -54 -7 -112
-15z"/>
<path d="M2520 4441 c-69 -17 -129 -72 -150 -137 -15 -46 -8 -149 13 -190 23
-45 72 -94 94 -94 10 0 28 16 40 35 l23 34 -29 33 c-44 51 -54 98 -29 148 15
29 24 38 31 31 9 -9 75 -247 77 -273 0 -13 49 -9 87 7 81 34 127 103 126 190
-1 75 -21 121 -72 168 -56 50 -133 68 -211 48z m143 -137 c33 -32 42 -75 25
-111 -24 -50 -43 -40 -57 29 -7 35 -15 73 -18 86 -7 31 17 29 50 -4z"/>
<path d="M2640 3958 c-91 -38 -171 -75 -178 -83 -12 -11 -11 -20 6 -59 12 -25
25 -46 31 -46 6 0 56 20 113 44 57 24 113 47 125 50 44 14 89 -32 77 -79 -6
-26 -42 -46 -186 -105 -58 -24 -78 -37 -78 -51 0 -27 32 -89 45 -89 7 0 60 20
119 45 60 25 120 45 135 45 58 0 82 -72 36 -108 -14 -11 -72 -39 -131 -62 -58
-24 -108 -49 -111 -55 -6 -18 34 -95 50 -95 19 0 252 95 277 113 90 63 90 194
0 255 -34 23 -35 24 -32 87 4 72 -12 106 -60 131 -27 14 -28 17 -14 32 13 16
13 22 -4 60 -13 28 -25 42 -37 41 -10 0 -92 -32 -183 -71z"/>
<path d="M3215 3501 c-11 -5 -27 -20 -34 -34 -11 -21 -12 -31 -1 -57 22 -53
68 -65 114 -29 36 28 36 80 0 108 -28 22 -46 25 -79 12z"/>
<path d="M2925 3325 c-88 -51 -166 -98 -173 -104 -10 -10 -7 -20 13 -54 13
-23 29 -43 34 -45 10 -3 328 172 350 194 13 11 13 17 1 41 -19 38 -41 63 -54
62 -6 0 -83 -43 -171 -94z"/>
<path d="M3079 3197 c-170 -47 -225 -238 -107 -372 34 -39 95 -75 128 -75 22
0 43 40 38 74 -2 10 -21 29 -43 42 -63 35 -94 108 -65 154 11 18 9 20 105
-112 44 -61 86 -113 92 -115 7 -3 35 18 62 45 40 40 51 59 61 105 33 160 -113
297 -271 254z m133 -136 c25 -22 32 -37 32 -65 0 -65 -17 -63 -68 9 -25 36
-46 70 -46 75 0 21 51 9 82 -19z"/>
<path d="M3293 2763 c-84 -74 -153 -138 -153 -142 0 -12 61 -81 72 -81 5 0 49
34 98 75 108 93 140 102 192 56 20 -17 38 -31 41 -31 13 0 77 63 77 76 0 20
-64 64 -93 64 -29 0 -34 9 -16 27 9 9 6 19 -10 42 -43 60 -43 60 -208 -86z"/>
<path d="M3736 2448 c-106 -133 -192 -248 -189 -255 3 -6 70 -65 150 -129
l146 -118 34 38 c19 20 33 45 31 54 -2 9 -44 49 -93 89 -50 41 -91 78 -93 83
-2 7 140 193 168 220 3 3 25 30 50 60 25 30 55 66 67 80 13 14 23 32 23 41 0
20 -64 79 -85 79 -8 0 -102 -109 -209 -242z"/>
<path d="M4106 2180 c-57 -29 -85 -58 -112 -115 -57 -120 -8 -241 121 -301 56
-27 136 -32 154 -10 13 15 4 71 -13 84 -6 5 -30 12 -54 15 -56 7 -90 30 -109
74 -27 65 -4 62 126 -15 66 -40 124 -72 130 -72 18 0 51 58 60 104 14 75 -4
132 -58 185 -71 71 -166 90 -245 51z m137 -102 c45 -23 73 -79 51 -101 -6 -6
-106 53 -134 79 -13 13 -13 16 0 24 20 13 57 12 83 -2z"/>
<path d="M4547 1956 c-127 -46 -183 -191 -121 -315 37 -73 88 -106 167 -107
51 -1 62 -4 68 -21 9 -24 64 -54 83 -47 8 3 50 87 95 186 86 194 86 195 30
219 -26 10 -35 10 -52 -1 -18 -11 -23 -10 -32 5 -45 80 -145 114 -238 81z
m159 -137 c53 -50 36 -141 -31 -173 -41 -20 -49 -20 -90 0 -107 51 -59 215 58
200 22 -2 50 -14 63 -27z"/>
<path d="M5026 1775 c-123 -44 -180 -204 -112 -319 41 -70 94 -101 175 -102
39 -1 67 -6 69 -12 2 -7 -10 -25 -26 -42 -24 -24 -39 -30 -72 -30 -50 0 -73
11 -122 57 l-36 35 -30 -20 c-52 -38 -56 -47 -31 -81 72 -97 224 -134 331 -80
71 36 85 67 173 376 21 73 35 139 32 147 -8 21 -75 32 -99 17 -17 -10 -24 -8
-51 19 -50 49 -126 62 -201 35z m152 -122 c13 -8 30 -30 38 -50 30 -70 -23
-143 -103 -143 -110 1 -143 148 -44 201 37 20 69 17 109 -8z"/>
<path d="M5443 1688 c-5 -7 -17 -71 -26 -141 -17 -141 -12 -179 29 -233 71
-95 258 -101 327 -11 33 43 44 83 62 211 18 127 15 133 -55 138 l-45 3 -13
-75 c-34 -202 -38 -213 -91 -225 -42 -9 -80 10 -95 47 -11 28 -11 52 2 151 10
72 12 121 6 126 -17 17 -90 23 -101 9z"/>
<path d="M6021 1639 c-146 -58 -189 -260 -78 -369 44 -43 76 -59 139 -66 85
-9 197 37 198 82 0 22 -38 64 -58 64 -7 0 -24 -7 -37 -16 -14 -9 -47 -17 -74
-17 -40 -2 -54 3 -75 22 -15 14 -25 30 -23 35 2 7 61 13 153 16 l149 5 3 29
c10 83 -72 204 -147 219 -46 10 -121 8 -150 -4z m143 -120 c14 -11 26 -25 26
-30 0 -5 -40 -9 -90 -9 -49 0 -90 4 -90 9 0 21 54 51 90 51 23 0 48 -8 64 -21z"/>
</g>
</svg>
