<?xml version="1.0" standalone="no"?>
<!DOCTYPE svg PUBLIC "-//W3C//DTD SVG 20010904//EN"
 "http://www.w3.org/TR/2001/REC-SVG-20010904/DTD/svg10.dtd">
<svg version="1.0" xmlns="http://www.w3.org/2000/svg"
 width="650.000000pt" height="550.000000pt" viewBox="0 0 650.000000 550.000000"
 preserveAspectRatio="xMidYMid meet">

<g transform="translate(0.000000,550.000000) scale(0.100000,-0.100000)"
fill="#000000" stroke="none">
<path d="M3020 4540 c-163 -23 -368 -82 -515 -149 -183 -83 -377 -210 -397
-260 -5 -14 -12 -136 -15 -271 -8 -355 24 -603 109 -850 125 -362 308 -583
743 -900 154 -111 209 -154 251 -193 l32 -29 98 53 c629 336 1011 882 1104
1572 14 105 11 463 -4 557 l-12 75 -69 46 c-233 155 -509 272 -770 325 -95 20
-158 26 -305 29 -102 2 -214 0 -250 -5z m558 -489 c103 -20 366 -98 402 -121
23 -14 21 -284 -4 -415 -24 -130 -85 -313 -143 -428 -105 -210 -294 -438 -496
-599 l-88 -70 -57 53 c-32 30 -89 81 -127 114 -120 103 -164 146 -234 229
-220 259 -331 588 -331 981 l0 124 55 25 c129 59 316 107 505 130 93 11 409
-3 518 -23z"/>
<path d="M3150 3835 c0 -204 1 -205 115 -205 114 0 115 1 115 205 l0 165 -115
0 -115 0 0 -165z m93 113 c13 -20 -6 -48 -34 -48 -22 0 -35 36 -18 56 15 18
38 15 52 -8z m120 1 c14 -22 2 -49 -22 -49 -27 0 -47 36 -30 56 15 18 38 15
52 -7z m-59 -111 c8 -14 7 -21 -6 -34 -30 -30 -75 9 -48 42 16 18 39 15 54 -8z
m-60 -110 c8 -14 7 -21 -6 -34 -30 -30 -75 9 -48 42 16 18 39 15 54 -8z m122
-4 c10 -39 -30 -60 -55 -30 -9 11 -10 20 -1 35 16 30 48 27 56 -5z"/>
<path d="M2830 3357 c0 -199 0 -199 96 -208 79 -7 118 7 128 43 3 13 6 92 6
176 l0 152 -115 0 -115 0 0 -163z m84 117 c22 -21 3 -56 -27 -52 -37 5 -33 67
5 68 4 0 14 -7 22 -16z m130 -6 c8 -14 7 -21 -6 -34 -30 -30 -75 9 -48 42 16
18 39 15 54 -8z m-65 -107 c13 -24 -8 -55 -35 -49 -23 4 -30 33 -14 53 17 20
37 19 49 -4z m-59 -110 c7 -15 6 -23 -6 -35 -18 -18 -17 -18 -38 -10 -16 6
-22 45 -9 57 13 14 43 7 53 -12z m124 -3 c8 -14 7 -21 -6 -34 -30 -30 -75 9
-48 42 16 18 39 15 54 -8z"/>
<path d="M3150 3355 c0 -152 2 -167 20 -185 11 -11 28 -20 38 -21 9 -1 37 -2
62 -3 49 -3 94 14 104 39 3 9 6 88 6 176 l0 159 -115 0 -115 0 0 -165z m93
113 c13 -20 -6 -48 -34 -48 -22 0 -35 36 -18 56 15 18 38 15 52 -8z m120 1
c14 -22 2 -49 -22 -49 -26 0 -42 29 -29 53 11 21 36 19 51 -4z m-59 -111 c8
-14 7 -21 -6 -34 -30 -30 -75 9 -48 42 16 18 39 15 54 -8z m-60 -110 c8 -14 7
-21 -6 -34 -30 -30 -75 9 -48 42 16 18 39 15 54 -8z m124 -10 c2 -20 -2 -28
-19 -33 -32 -10 -55 16 -39 44 16 32 54 24 58 -11z"/>
<path d="M3450 3365 c0 -94 4 -164 11 -179 15 -33 53 -45 125 -40 91 6 94 12
94 210 l0 164 -115 0 -115 0 0 -155z m88 113 c19 -19 14 -46 -9 -53 -31 -10
-55 16 -40 44 13 24 31 27 49 9z m122 -3 c19 -23 8 -50 -20 -50 -16 0 -26 6
-28 18 -4 18 14 47 28 47 4 0 13 -7 20 -15z m-56 -117 c8 -14 7 -21 -6 -34
-30 -30 -75 9 -48 42 16 18 39 15 54 -8z m-59 -109 c14 -43 -45 -66 -61 -24
-8 19 13 45 37 45 10 0 21 -10 24 -21z m120 -14 c0 -25 -4 -30 -25 -30 -19 0
-26 6 -28 24 -4 25 13 43 38 38 9 -1 15 -13 15 -32z"/>
<path d="M3150 2859 c0 -88 4 -169 10 -179 29 -53 193 -49 214 5 3 9 6 88 6
176 l0 159 -115 0 -115 0 0 -161z m84 118 c28 -21 12 -59 -22 -55 -30 3 -41
30 -22 53 15 18 21 19 44 2z m124 1 c30 -30 -1 -73 -36 -51 -23 14 -25 29 -7
47 20 19 27 20 43 4z m-54 -120 c8 -14 7 -21 -6 -34 -30 -30 -75 9 -48 42 16
18 39 15 54 -8z m-60 -110 c8 -14 7 -21 -6 -34 -30 -30 -75 9 -48 42 16 18 39
15 54 -8z m116 7 c16 -19 3 -55 -19 -55 -29 0 -44 25 -31 49 13 25 33 27 50 6z"/>
<path d="M5064 3851 c3 -18 6 -51 6 -73 0 -21 4 -37 9 -34 5 3 11 -13 15 -36
4 -22 9 -38 12 -35 6 6 -34 198 -43 207 -3 3 -3 -10 1 -29z"/>
<path d="M5071 3704 c0 -11 3 -14 6 -6 3 7 2 16 -1 19 -3 4 -6 -2 -5 -13z"/>
<path d="M5076 3603 c-13 -168 -15 -209 -7 -176 10 40 25 253 18 253 -3 0 -8
-35 -11 -77z"/>
<path d="M5100 3641 c0 -11 4 -22 9 -25 4 -3 6 6 3 19 -5 30 -12 33 -12 6z"/>
<path d="M5125 3295 c0 -148 3 -250 7 -225 8 58 8 379 0 445 -4 28 -7 -71 -7
-220z"/>
<path d="M5050 3375 c0 -5 5 -17 10 -25 5 -8 10 -10 10 -5 0 6 -5 17 -10 25
-5 8 -10 11 -10 5z"/>
<path d="M5047 3320 c-4 -8 -11 -40 -16 -70 -6 -30 -13 -65 -17 -77 -4 -15 -2
-23 5 -23 7 0 10 4 7 8 -2 4 4 41 15 81 11 41 18 79 16 85 -3 7 -7 5 -10 -4z"/>
<path d="M5031 3114 c0 -11 3 -14 6 -6 3 7 2 16 -1 19 -3 4 -6 -2 -5 -13z"/>
<path d="M4986 3075 c-10 -20 -16 -41 -14 -47 3 -7 12 8 22 31 21 53 15 65 -8
16z"/>
<path d="M4956 2995 c-3 -9 -6 -22 -5 -28 0 -7 5 -1 10 12 5 13 8 26 5 28 -2
2 -6 -3 -10 -12z"/>
<path d="M5105 2945 c-3 -26 -4 -49 -2 -51 3 -3 8 16 12 41 3 26 4 49 2 51 -3
3 -8 -16 -12 -41z"/>
<path d="M4930 2931 c0 -6 -11 -34 -24 -61 -13 -28 -20 -50 -16 -50 5 0 12 10
16 23 3 12 12 29 19 37 18 23 25 49 15 55 -6 4 -10 1 -10 -4z"/>
<path d="M5081 2904 c0 -11 3 -14 6 -6 3 7 2 16 -1 19 -3 4 -6 -2 -5 -13z"/>
<path d="M5092 2860 c0 -14 2 -19 5 -12 2 6 2 18 0 25 -3 6 -5 1 -5 -13z"/>
<path d="M5075 2813 c-5 -10 -10 -34 -11 -53 -3 -31 -1 -30 12 14 15 48 14 74
-1 39z"/>
<path d="M4867 2797 c-3 -8 1 -14 8 -14 7 0 11 6 8 14 -3 7 -6 13 -8 13 -2 0
-5 -6 -8 -13z"/>
<path d="M4817 2705 c-38 -66 -50 -97 -20 -56 20 30 63 114 60 118 -2 1 -20
-27 -40 -62z"/>
<path d="M5030 2662 c-12 -31 -31 -72 -42 -91 -10 -18 -17 -36 -14 -38 2 -3
14 13 25 36 27 53 63 143 58 147 -2 2 -14 -22 -27 -54z"/>
<path d="M1670 2530 c6 -11 15 -20 21 -20 6 0 7 -5 4 -10 -4 -6 -1 -9 6 -8 6
2 14 -3 17 -11 3 -8 0 -11 -7 -7 -6 4 12 -27 39 -68 27 -41 55 -78 62 -82 10
-6 10 -4 2 7 -6 8 -11 25 -12 39 l-1 25 19 -25 c10 -13 16 -29 13 -35 -3 -5 0
-4 7 2 11 10 3 23 -41 70 -30 32 -70 77 -90 101 -38 44 -57 55 -39 22z m70
-70 c0 -5 11 -19 24 -32 13 -13 26 -34 29 -48 6 -24 5 -24 -8 -5 -8 11 -18 25
-22 30 -25 31 -42 65 -33 65 5 0 10 -4 10 -10z"/>
<path d="M4953 2494 c-15 -16 -16 -24 -4 -24 8 0 24 30 19 35 -2 2 -9 -3 -15
-11z"/>
<path d="M4902 2434 c-8 -9 -9 -14 -2 -14 12 0 -13 -54 -38 -82 -8 -10 -11
-18 -6 -18 9 0 18 13 55 75 20 33 13 63 -9 39z"/>
<path d="M4851 2357 c-13 -21 -12 -21 5 -5 10 10 16 20 13 22 -3 3 -11 -5 -18
-17z"/>
<path d="M1853 2327 c-4 -8 -14 -16 -21 -18 -10 -3 -7 -11 10 -30 13 -14 39
-45 59 -70 44 -53 175 -187 244 -248 28 -25 60 -53 71 -63 19 -17 22 -17 27
-4 4 9 1 15 -6 13 -7 -1 -11 7 -9 18 2 16 1 17 -7 6 -8 -12 -12 -12 -25 -2 -9
7 -13 17 -10 22 3 5 -3 6 -12 2 -12 -4 -15 -3 -10 5 4 7 3 12 -2 12 -16 0 -82
62 -82 77 0 8 -4 12 -9 9 -5 -3 -39 28 -77 70 -38 42 -81 89 -96 105 -16 16
-28 34 -28 40 0 6 -5 7 -11 3 -7 -4 -10 -1 -7 7 3 8 12 12 19 10 8 -2 21 -4
29 -5 25 -2 40 -28 27 -45 -9 -12 -9 -13 1 -7 6 4 12 2 12 -3 0 -6 7 -11 15
-11 7 0 19 -8 24 -17 7 -12 10 -13 11 -4 0 8 6 11 18 7 9 -3 4 5 -13 19 -16
14 -41 35 -55 47 -68 62 -78 69 -87 55z m33 -18 c19 -22 19 -22 -2 -11 -16 8
-24 8 -34 -1 -9 -9 -8 -6 1 11 8 12 14 22 15 22 0 0 9 -10 20 -21z m104 -91
c0 -5 -11 -1 -25 8 -14 9 -25 18 -25 20 0 2 11 -2 25 -8 14 -6 25 -15 25 -20z"/>
<path d="M4810 2274 c-13 -34 -13 -39 4 -24 8 6 12 19 9 27 -5 12 -3 14 7 8 9
-5 11 -4 6 3 -11 17 -15 15 -26 -14z"/>
<path d="M4360 2220 c-8 -5 -10 -10 -5 -10 6 0 17 5 25 10 8 5 11 10 5 10 -5
0 -17 -5 -25 -10z"/>
<path d="M4737 2213 c-4 -3 -1 -13 6 -21 10 -13 8 -14 -13 -8 -18 5 -21 5 -11
-3 13 -8 13 -12 1 -28 -8 -10 3 -2 23 16 20 19 37 39 37 45 0 6 -5 5 -12 -2
-15 -15 -32 -16 -23 -2 7 11 2 13 -8 3z"/>
<path d="M2007 2177 c3 -5 11 -6 18 -3 15 6 57 -22 50 -34 -3 -4 3 -14 13 -21
15 -13 16 -12 3 4 -20 26 -8 21 59 -22 33 -22 55 -41 48 -43 -8 -3 -9 -6 -1
-11 6 -4 13 0 17 8 3 10 -5 20 -22 29 -15 8 -55 34 -87 58 -33 25 -70 44 -82
44 -12 0 -19 -4 -16 -9z"/>
<path d="M4310 2179 c0 -5 5 -7 10 -4 6 3 10 8 10 11 0 2 -4 4 -10 4 -5 0 -10
-5 -10 -11z"/>
<path d="M4667 2102 c-15 -15 -27 -31 -27 -35 0 -4 14 7 30 25 28 29 34 38 27
38 -2 0 -15 -13 -30 -28z"/>
<path d="M4175 2100 c-3 -5 -2 -10 4 -10 5 0 13 5 16 10 3 6 2 10 -4 10 -5 0
-13 -4 -16 -10z"/>
<path d="M2117 2086 c-4 -10 -1 -13 8 -9 8 3 12 9 9 14 -7 12 -11 11 -17 -5z"/>
<path d="M2153 2065 c0 -7 6 -11 14 -8 7 3 13 6 13 8 0 2 -6 5 -13 8 -8 3 -14
-1 -14 -8z"/>
<path d="M4120 2070 c-9 -6 -10 -10 -3 -10 6 0 15 5 18 10 8 12 4 12 -15 0z"/>
<path d="M2230 2050 c0 -6 18 -18 41 -26 30 -13 37 -19 27 -26 -9 -6 -5 -7 11
-3 17 5 22 4 16 -5 -5 -9 -4 -11 3 -6 6 4 22 2 34 -5 13 -6 19 -7 13 -2 -21
20 -145 82 -145 73z"/>
<path d="M4585 2024 c-22 -20 -31 -31 -20 -26 18 9 74 62 64 62 -2 -1 -22 -17
-44 -36z"/>
<path d="M4474 1958 l-19 -23 23 19 c21 18 27 26 19 26 -2 0 -12 -10 -23 -22z"/>
<path d="M4509 1964 c-19 -23 -160 -117 -176 -117 -6 0 -10 -4 -7 -9 3 -4 0
-8 -7 -8 -7 0 -10 -3 -6 -6 6 -6 212 130 223 147 9 16 -13 10 -27 -7z"/>
<path d="M2400 1959 c0 -5 5 -7 12 -3 7 5 9 2 6 -7 -4 -10 3 -14 23 -15 36 -1
36 2 -1 21 -34 18 -40 18 -40 4z"/>
<path d="M3878 1953 c7 -3 16 -2 19 1 4 3 -2 6 -13 5 -11 0 -14 -3 -6 -6z"/>
<path d="M4415 1950 c-3 -5 -1 -10 4 -10 6 0 11 5 11 10 0 6 -2 10 -4 10 -3 0
-8 -4 -11 -10z"/>
<path d="M2440 1920 c12 -8 12 -10 1 -10 -8 0 -12 -2 -9 -5 3 -3 13 -2 22 1
14 5 15 9 4 15 -7 5 -17 9 -23 9 -5 0 -3 -5 5 -10z"/>
<path d="M2485 1920 c-3 -6 1 -7 9 -4 18 7 21 14 7 14 -6 0 -13 -4 -16 -10z"/>
<path d="M2560 1899 c14 -6 33 -15 42 -20 10 -5 26 -9 35 -9 22 1 -29 24 -72
33 -29 6 -29 6 -5 -4z"/>
<path d="M3670 1890 c-9 -6 -10 -10 -3 -10 6 0 15 5 18 10 8 12 4 12 -15 0z"/>
<path d="M2313 1875 c0 -8 4 -15 9 -15 4 0 8 4 8 9 0 6 -4 12 -8 15 -5 3 -9
-1 -9 -9z"/>
<path d="M2270 1860 c14 -11 30 -23 35 -28 29 -22 146 -92 155 -92 5 0 10 -4
10 -8 0 -11 78 -47 86 -40 3 4 -11 11 -30 18 -20 6 -39 17 -43 23 -5 7 -28 22
-53 33 -25 12 -57 31 -70 43 -33 27 -99 71 -108 71 -4 -1 4 -10 18 -20z"/>
<path d="M2668 1863 c7 -3 16 -2 19 1 4 3 -2 6 -13 5 -11 0 -14 -3 -6 -6z"/>
<path d="M2709 1846 c10 -12 61 -11 61 1 0 3 -11 3 -25 1 -14 -3 -25 -1 -25 3
0 5 -5 9 -11 9 -8 0 -8 -4 0 -14z"/>
<path d="M2655 1830 c3 -5 8 -10 11 -10 2 0 4 5 4 10 0 6 -5 10 -11 10 -5 0
-7 -4 -4 -10z"/>
<path d="M2800 1830 c25 -8 127 -13 119 -6 -2 2 -35 6 -74 9 -41 3 -60 2 -45
-3z"/>
<path d="M2748 1823 c7 -3 16 -2 19 1 4 3 -2 6 -13 5 -11 0 -14 -3 -6 -6z"/>
<path d="M3398 1823 c7 -3 16 -2 19 1 4 3 -2 6 -13 5 -11 0 -14 -3 -6 -6z"/>
<path d="M2953 1813 c15 -2 37 -2 50 0 12 2 0 4 -28 4 -27 0 -38 -2 -22 -4z"/>
<path d="M4194 1804 c-18 -14 -18 -14 6 -3 31 14 36 19 24 19 -6 0 -19 -7 -30
-16z"/>
<path d="M4257 1799 c-12 -14 -25 -18 -40 -14 -16 5 -18 4 -8 -3 11 -8 9 -11
-8 -17 -13 -4 -20 -9 -18 -12 6 -6 104 43 112 57 11 18 -19 9 -38 -11z"/>
<path d="M2455 1800 c3 -5 8 -10 11 -10 2 0 4 5 4 10 0 6 -5 10 -11 10 -5 0
-7 -4 -4 -10z"/>
<path d="M3077 1803 c18 -2 50 -2 70 0 21 2 7 4 -32 4 -38 0 -55 -2 -38 -4z"/>
<path d="M4134 1742 c3 -5 -17 -19 -44 -32 -28 -13 -48 -25 -46 -27 5 -5 126
55 126 62 0 3 -9 5 -21 5 -11 0 -18 -4 -15 -8z"/>
<path d="M4024 1732 c3 -6 0 -12 -6 -14 -7 -3 2 -5 20 -5 17 0 31 1 30 2 -15
12 -49 25 -44 17z"/>
<path d="M2618 1703 c7 -3 16 -2 19 1 4 3 -2 6 -13 5 -11 0 -14 -3 -6 -6z"/>
<path d="M2570 1676 c0 -2 9 -6 20 -9 11 -3 18 -1 14 4 -5 9 -34 13 -34 5z"/>
<path d="M3965 1660 c-21 -10 -44 -16 -49 -13 -5 3 -6 1 -2 -5 5 -8 22 -5 59
9 29 11 54 23 56 25 11 10 -28 1 -64 -16z"/>
<path d="M2665 1634 c51 -24 90 -31 99 -16 3 5 -9 7 -27 5 -27 -3 -29 -2 -12
7 17 9 16 10 -8 5 -15 -3 -40 1 -57 10 -16 8 -33 15 -37 14 -4 0 15 -11 42
-25z"/>
<path d="M3831 1631 c-11 -7 -11 -9 0 -13 8 -3 -8 -10 -36 -16 -50 -11 -107
-30 -92 -31 11 -1 161 39 166 45 2 2 -3 4 -13 4 -9 0 -14 5 -11 10 8 12 4 12
-14 1z"/>
<path d="M3875 1630 c3 -5 11 -10 16 -10 6 0 7 5 4 10 -3 6 -11 10 -16 10 -6
0 -7 -4 -4 -10z"/>
<path d="M2770 1600 c0 -4 26 -15 58 -23 110 -31 150 -37 174 -27 22 9 21 9
-7 8 -58 -3 -86 2 -79 13 4 7 0 9 -14 5 -11 -4 -45 2 -76 12 -31 10 -56 16
-56 12z"/>
<path d="M3035 1570 c3 -5 8 -10 11 -10 2 0 4 5 4 10 0 6 -5 10 -11 10 -5 0
-7 -4 -4 -10z"/>
<path d="M3606 1557 c9 -5 32 -4 52 1 37 9 36 9 -15 8 -33 -1 -46 -4 -37 -9z"/>
<path d="M3578 1543 c7 -3 16 -2 19 1 4 3 -2 6 -13 5 -11 0 -14 -3 -6 -6z"/>
<path d="M3021 1536 c2 -2 26 -6 53 -9 30 -3 43 -1 35 4 -13 8 -97 13 -88 5z"/>
<path d="M3340 1530 l-105 -6 113 -2 c73 -1 111 2 107 8 -3 6 -7 9 -8 8 -1 -1
-49 -5 -107 -8z"/>
<path d="M3478 1533 c6 -2 18 -2 25 0 6 3 1 5 -13 5 -14 0 -19 -2 -12 -5z"/>
<path d="M3148 1523 c12 -2 30 -2 40 0 9 3 -1 5 -23 4 -22 0 -30 -2 -17 -4z"/>
<path d="M3201 1102 c-67 -26 -143 -100 -177 -174 -26 -56 -29 -73 -28 -163 0
-123 25 -196 91 -266 61 -66 125 -91 240 -97 107 -5 196 17 276 68 l48 30 -3
142 -3 141 -150 -1 -150 -1 -3 -55 -3 -55 83 -3 83 -3 3 -38 c2 -21 -2 -45
-10 -54 -38 -46 -172 -68 -241 -39 -43 17 -93 76 -106 123 -14 51 -14 172 1
214 28 85 91 128 186 129 68 0 122 -27 147 -74 11 -20 25 -34 32 -32 7 3 35 8
63 12 28 4 53 10 56 15 9 15 -27 84 -64 122 -53 55 -122 77 -235 76 -60 0
-107 -6 -136 -17z"/>
<path d="M2270 1103 c0 -4 0 -161 -1 -348 l-1 -340 246 -3 246 -2 0 55 0 55
-175 0 -175 0 -2 293 -3 292 -67 3 c-38 2 -68 -1 -68 -5z"/>
<path d="M2800 760 l0 -350 70 0 70 0 0 350 0 350 -70 0 -70 0 0 -350z"/>
<path d="M3822 848 c-56 -145 -117 -303 -136 -351 l-35 -88 76 3 76 3 27 75
28 75 143 0 143 0 29 -77 30 -78 77 0 77 0 -141 350 -140 350 -76 0 -76 0
-102 -262z m226 -26 c23 -64 42 -123 42 -130 0 -11 -20 -13 -90 -10 -51 2 -90
7 -90 13 -1 15 84 245 90 245 3 0 24 -53 48 -118z"/>
<path d="M2201 318 c1 -18 2 -19 6 -5 7 27 48 18 47 -10 0 -12 3 -20 8 -17 14
9 9 42 -8 48 -34 13 -54 7 -53 -16z"/>
<path d="M2315 316 c-32 -49 17 -109 64 -79 20 12 27 69 10 89 -18 22 -57 17
-74 -10z m71 -10 c10 -43 1 -61 -30 -61 -33 0 -48 27 -35 63 12 32 56 31 65
-2z"/>
<path d="M2440 332 c0 -5 14 -7 30 -4 17 2 30 6 30 8 0 2 -13 4 -30 4 -16 0
-30 -4 -30 -8z"/>
<path d="M2564 331 c18 -7 66 -3 66 5 0 2 -19 4 -42 3 -31 0 -37 -3 -24 -8z"/>
<path d="M2662 300 c-2 -57 8 -72 44 -68 28 3 29 6 30 53 l1 50 -4 -48 c-4
-46 -6 -48 -31 -45 -24 3 -28 8 -33 53 l-6 50 -1 -45z"/>
<path d="M2796 324 c-33 -32 -12 -94 32 -94 15 0 34 5 42 10 10 7 4 8 -20 4
-41 -7 -64 11 -58 47 4 32 33 47 58 31 11 -7 20 -8 20 -3 0 23 -53 27 -74 5z"/>
<path d="M3040 330 c-18 -12 -2 -12 25 0 13 6 15 9 5 9 -8 0 -22 -4 -30 -9z"/>
<path d="M3190 327 c14 -8 27 -12 30 -10 7 6 -23 23 -40 23 -8 0 -4 -6 10 -13z"/>
<path d="M3275 298 c-27 -66 -29 -75 -13 -53 8 11 18 32 22 48 3 15 11 27 16
27 9 0 11 -6 14 -42 1 -14 28 -49 33 -44 5 5 -41 106 -48 106 -4 0 -15 -19
-24 -42z"/>
<path d="M3420 285 c0 -54 1 -55 28 -55 15 0 33 5 40 12 13 13 17 74 5 81 -5
3 -8 -14 -8 -36 0 -38 -2 -42 -27 -45 -27 -3 -28 -2 -28 42 0 38 3 45 23 49
19 4 18 4 -5 6 -27 1 -28 0 -28 -54z"/>
<path d="M3540 285 l0 -55 43 2 42 1 -37 4 c-29 3 -38 9 -38 23 0 14 9 20 33
23 l32 4 -32 1 c-25 2 -33 7 -33 21 0 15 8 21 38 24 l37 4 -42 1 -43 2 0 -55z"/>
<path d="M3701 324 c0 -11 3 -14 6 -6 3 7 2 16 -1 19 -3 4 -6 -2 -5 -13z"/>
<path d="M3728 333 c7 -3 16 -2 19 1 4 3 -2 6 -13 5 -11 0 -14 -3 -6 -6z"/>
<path d="M3802 300 c-2 -57 8 -72 44 -68 28 3 29 6 30 53 l1 50 -4 -48 c-4
-46 -6 -48 -31 -45 -24 3 -28 8 -33 53 l-6 50 -1 -45z"/>
<path d="M3918 333 c7 -3 16 -2 19 1 4 3 -2 6 -13 5 -11 0 -14 -3 -6 -6z"/>
<path d="M3952 283 l2 -58 3 52 c3 44 7 52 26 56 18 4 17 5 -5 6 -28 1 -28 0
-26 -56z"/>
<path d="M4030 284 l0 -55 37 3 c61 5 57 57 -4 58 -17 0 -23 6 -23 21 0 18 5
21 29 17 17 -2 28 -1 25 4 -3 4 -18 8 -35 8 -29 0 -29 -1 -29 -56z m68 -26 c3
-14 -3 -18 -27 -18 -25 0 -31 4 -31 21 0 16 5 20 27 17 17 -2 29 -10 31 -20z"/>
<path d="M4157 322 c-21 -23 -22 -56 -1 -76 23 -23 30 -19 9 4 -15 16 -17 26
-9 48 12 35 47 41 68 10 13 -18 16 -19 16 -6 0 18 -28 38 -53 38 -8 0 -21 -8
-30 -18z"/>
<path d="M4282 288 l-2 -58 38 2 c36 1 36 1 5 5 -31 4 -32 6 -36 56 l-3 52 -2
-57z"/>
<path d="M2512 310 c0 -14 2 -19 5 -12 2 6 2 18 0 25 -3 6 -5 1 -5 -13z"/>
<path d="M2980 314 c0 -8 5 -12 10 -9 6 3 10 10 10 16 0 5 -4 9 -10 9 -5 0
-10 -7 -10 -16z"/>
<path d="M3147 324 c-14 -14 -6 -25 28 -40 34 -14 46 -37 25 -47 -6 -3 -5 -4
2 -3 7 2 13 13 13 26 0 17 -7 26 -24 30 -13 3 -27 13 -30 23 -4 10 -10 15 -14
11z"/>
<path d="M2443 286 c0 -16 3 -23 7 -16 4 7 16 9 29 5 12 -4 21 -2 21 4 0 6
-11 11 -24 11 -13 0 -26 6 -29 13 -2 6 -4 -1 -4 -17z"/>
<path d="M2582 270 c0 -22 3 -40 7 -40 5 0 8 18 7 40 -1 52 -13 52 -14 0z"/>
<path d="M2911 289 c-1 -36 20 -62 49 -57 13 1 25 9 26 16 1 7 0 8 -3 2 -2 -5
-15 -10 -29 -10 -18 0 -25 7 -30 28 -9 44 -12 49 -13 21z"/>
<path d="M3034 288 c-3 -4 11 -8 30 -8 20 0 36 2 36 4 0 8 -61 12 -66 4z"/>
<path d="M3700 266 c0 -20 2 -36 4 -36 8 0 12 61 4 66 -4 3 -8 -11 -8 -30z"/>
<path d="M2202 260 c0 -19 2 -27 5 -17 2 9 2 25 0 35 -3 9 -5 1 -5 -18z"/>
<path d="M3738 283 c7 -3 16 -2 19 1 4 3 -2 6 -13 5 -11 0 -14 -3 -6 -6z"/>
<path d="M2865 270 c3 -5 8 -10 11 -10 2 0 4 5 4 10 0 6 -5 10 -11 10 -5 0 -7
-4 -4 -10z"/>
<path d="M4226 263 c-4 -12 -15 -24 -24 -26 -15 -4 -15 -5 -1 -6 20 -1 42 24
37 41 -3 8 -8 4 -12 -9z"/>
<path d="M2500 252 c0 -12 19 -26 26 -19 2 2 -2 10 -11 17 -9 8 -15 8 -15 2z"/>
<path d="M3140 250 c0 -6 7 -13 15 -17 24 -9 27 1 5 15 -13 8 -20 8 -20 2z"/>
<path d="M3034 238 c-3 -4 13 -8 35 -8 23 0 41 2 41 4 0 8 -71 12 -76 4z"/>
<path d="M2635 148 c-8 -26 -10 -98 -3 -98 5 0 8 8 9 18 0 9 1 34 2 55 2 38
-1 46 -8 25z"/>
<path d="M2923 138 c12 -13 24 -19 26 -15 1 5 -5 15 -15 22 -29 22 -36 17 -11
-7z"/>
<path d="M3045 150 c3 -5 8 -10 11 -10 2 0 4 5 4 10 0 6 -5 10 -11 10 -5 0 -7
-4 -4 -10z"/>
<path d="M3138 153 c7 -3 16 -2 19 1 4 3 -2 6 -13 5 -11 0 -14 -3 -6 -6z"/>
<path d="M3246 145 c10 -8 24 -14 29 -14 6 0 1 6 -9 14 -11 8 -24 15 -30 15
-5 0 -1 -7 10 -15z"/>
<path d="M3492 144 c-33 -23 -26 -94 11 -94 5 0 1 7 -7 16 -9 8 -16 24 -16 34
0 17 24 50 36 50 3 0 14 -5 25 -10 25 -14 26 -65 2 -79 -10 -6 -13 -11 -7 -11
37 -1 46 70 12 94 -12 9 -25 16 -28 16 -3 0 -16 -7 -28 -16z"/>
<path d="M2680 143 c16 -8 12 -31 -7 -42 -10 -6 -13 -10 -8 -11 33 0 48 50 17
56 -7 1 -8 0 -2 -3z"/>
<path d="M2799 141 c9 -6 11 -16 7 -27 -6 -15 -4 -16 5 -7 14 14 5 43 -13 43
-10 0 -9 -3 1 -9z"/>
<path d="M2863 135 c-3 -9 -3 -19 1 -22 3 -4 6 1 6 10 0 8 6 18 13 20 9 4 9 6
-1 6 -7 1 -15 -6 -19 -14z"/>
<path d="M2990 98 c0 -28 2 -49 5 -47 8 9 11 99 3 99 -4 0 -8 -23 -8 -52z"/>
<path d="M3090 108 c0 -23 2 -39 5 -36 9 9 12 78 3 78 -4 0 -8 -19 -8 -42z"/>
<path d="M3205 140 c-9 -15 11 -37 40 -44 25 -6 34 -30 15 -39 -6 -3 -5 -4 2
-3 7 1 14 12 16 23 2 15 -5 22 -30 30 -22 6 -33 15 -32 26 2 19 -2 22 -11 7z"/>
<path d="M3317 144 c-11 -11 13 -44 31 -43 16 1 16 2 0 6 -16 4 -22 15 -19 36
1 9 -4 9 -12 1z"/>
<path d="M3610 135 c0 -9 4 -14 9 -11 5 3 14 -8 21 -24 7 -17 16 -30 21 -30 9
0 -28 67 -42 76 -5 3 -9 -2 -9 -11z"/>
<path d="M3679 105 c-5 -50 -4 -63 7 -53 3 3 4 28 2 54 l-3 49 -6 -50z"/>
<path d="M3754 138 c-4 -7 -3 -8 4 -4 8 4 16 -3 22 -19 14 -37 13 -38 -19 -32
-21 4 -31 2 -35 -9 -9 -23 -7 -31 4 -13 10 18 70 14 70 -4 0 -6 3 -8 6 -4 8 7
-26 97 -37 97 -4 0 -11 -5 -15 -12z"/>
<path d="M3845 100 l0 -50 35 1 c30 2 31 3 8 6 -26 4 -28 8 -28 49 0 24 -3 44
-7 44 -5 0 -8 -22 -8 -50z"/>
<path d="M2743 90 c0 -25 2 -35 4 -22 2 12 2 32 0 45 -2 12 -4 2 -4 -23z"/>
<path d="M3128 103 c6 -2 18 -2 25 0 6 3 1 5 -13 5 -14 0 -19 -2 -12 -5z"/>
<path d="M2850 94 c0 -3 5 -14 10 -25 16 -28 30 -23 17 6 -11 22 -27 34 -27
19z"/>
<path d="M2940 85 c0 -7 -8 -19 -17 -25 -17 -10 -17 -11 1 -8 19 3 44 48 26
48 -6 0 -10 -7 -10 -15z"/>
<path d="M3376 86 c4 -11 2 -21 -7 -27 -10 -6 -11 -9 -1 -9 18 0 27 29 13 43
-9 9 -11 8 -5 -7z"/>
<path d="M3425 90 c-3 -5 -1 -10 4 -10 6 0 11 5 11 10 0 6 -2 10 -4 10 -3 0
-8 -4 -11 -10z"/>
<path d="M2790 76 c0 -2 7 -9 15 -16 13 -11 14 -10 9 4 -5 14 -24 23 -24 12z"/>
<path d="M3200 71 c0 -10 19 -25 25 -20 1 2 -3 10 -11 17 -8 7 -14 8 -14 3z"/>
<path d="M3310 72 c0 -12 19 -26 26 -19 2 2 -2 10 -11 17 -9 8 -15 8 -15 2z"/>
</g>
</svg>
