<?xml version="1.0" standalone="no"?>
<!DOCTYPE svg PUBLIC "-//W3C//DTD SVG 20010904//EN"
 "http://www.w3.org/TR/2001/REC-SVG-20010904/DTD/svg10.dtd">
<svg version="1.0" xmlns="http://www.w3.org/2000/svg"
 width="1318.000000pt" height="1116.000000pt" viewBox="0 0 1318.000000 1116.000000"
 preserveAspectRatio="xMidYMid meet">
<metadata>
Created by potrace 1.13, written by Peter Selinger 2001-2015
</metadata>
<g transform="translate(0.000000,1116.000000) scale(0.100000,-0.100000)"
fill="#000000" stroke="none">
<path d="M5780 10785 c-262 -15 -520 -33 -570 -40 -19 -3 -84 -10 -145 -15
-123 -11 -405 -44 -505 -60 -36 -5 -99 -15 -140 -21 -70 -10 -194 -32 -355
-64 -38 -8 -92 -17 -118 -20 -26 -4 -64 -13 -84 -22 -20 -8 -56 -15 -80 -15
-52 0 -108 -21 -117 -43 -4 -11 -2 -14 6 -9 34 21 94 -1 66 -24 -22 -17 -52
-18 -66 -2 -12 13 -13 12 -7 -10 4 -14 7 -34 6 -44 0 -11 9 -26 21 -35 l21
-14 -21 -8 c-28 -11 -28 -26 1 -32 14 -3 8 -5 -15 -6 -20 0 -40 4 -43 9 -8 13
-25 3 -25 -16 0 -8 9 -14 20 -14 11 0 20 -4 20 -9 0 -9 -16 -13 -305 -85 -225
-55 -234 -57 -350 -92 -49 -14 -106 -30 -125 -34 -19 -4 -57 -15 -85 -23 -27
-8 -72 -20 -100 -27 -27 -7 -69 -21 -92 -31 -24 -11 -48 -19 -55 -19 -32 0
-522 -177 -633 -229 -131 -61 -153 -71 -163 -71 -6 0 -12 -3 -14 -8 -1 -4 -46
-28 -98 -54 -92 -44 -181 -113 -248 -189 -37 -42 -104 -169 -121 -229 -7 -25
-18 -58 -23 -75 -8 -24 -24 -460 -28 -730 0 -36 -3 -46 -10 -35 -5 8 -10 26
-11 40 -1 22 -2 22 -10 -7 -8 -28 -13 -32 -40 -28 -17 2 -37 12 -44 21 -12 17
-13 17 -19 -2 -4 -13 -16 -20 -41 -21 -31 -1 -35 1 -35 22 0 39 -17 37 -23 -3
-19 -124 -29 -1539 -23 -3302 4 -1053 8 -1928 10 -1945 3 -16 5 -59 5 -95 1
-63 17 -110 28 -82 2 6 11 12 18 12 7 0 16 -6 19 -12 5 -10 7 -10 12 0 8 17
31 15 37 -3 5 -12 10 -12 34 0 26 14 29 13 37 -5 11 -24 22 -26 30 -3 18 45
27 -21 31 -223 10 -424 14 -484 36 -559 33 -110 68 -179 134 -263 51 -67 148
-138 270 -200 131 -66 287 -138 317 -147 12 -4 42 -15 65 -26 24 -10 47 -19
52 -19 9 0 118 -42 184 -70 12 -5 85 -30 162 -55 77 -26 149 -50 160 -54 11
-5 49 -17 85 -26 86 -23 210 -57 345 -95 61 -17 166 -44 235 -60 217 -51 379
-95 389 -106 3 -4 0 -9 -7 -11 -23 -9 -1 -23 36 -23 35 -1 36 -1 14 -13 -29
-16 -18 -28 18 -21 15 4 31 1 34 -5 4 -6 1 -11 -6 -12 -7 -1 -22 -2 -33 -2
-29 -3 -34 -21 -6 -25 28 -4 51 -24 51 -44 -1 -7 -9 -3 -20 11 -19 22 -50 23
-50 1 0 -5 -12 -10 -27 -10 -41 -1 -12 -14 75 -35 78 -19 102 -35 53 -35 -17
0 -31 4 -31 9 0 5 -20 8 -45 7 -25 0 -45 -3 -45 -6 0 -15 50 -33 104 -37 34
-3 73 -12 87 -19 14 -7 80 -23 145 -34 65 -12 139 -26 164 -30 285 -52 484
-82 695 -105 83 -9 186 -20 230 -25 44 -5 141 -14 215 -20 74 -6 182 -16 240
-22 60 -6 409 -13 820 -15 586 -4 766 -2 1000 11 287 17 774 58 885 76 33 5
103 14 155 20 52 6 120 15 150 20 30 5 89 14 130 20 141 20 305 52 368 72 35
10 67 16 72 13 14 -8 92 14 85 25 -3 4 -14 6 -25 3 -14 -4 -20 0 -20 11 0 17
8 19 52 16 38 -2 68 9 68 25 0 7 9 15 20 18 11 3 20 12 20 21 0 10 -6 13 -15
10 -8 -4 -15 -10 -15 -15 0 -5 -7 -9 -16 -9 -10 0 -14 7 -12 20 2 10 -6 26
-17 34 -19 15 -19 15 13 16 17 0 32 5 32 10 0 6 -9 10 -19 10 -29 0 -36 19
-10 28 l23 9 -24 6 c-13 3 -30 2 -36 -4 -7 -6 -25 -9 -41 -7 -24 3 -19 6 31
21 32 10 61 16 64 13 3 -3 11 -1 18 4 6 6 23 13 35 16 62 13 127 27 159 34 96
22 295 60 314 60 12 0 27 5 33 11 9 9 19 9 42 -1 l31 -12 -22 -30 c-23 -33
-14 -48 30 -48 23 0 26 -7 16 -34 -5 -13 -9 -14 -20 -5 -19 16 -25 8 -28 -39
-3 -33 0 -41 17 -46 22 -5 97 7 140 23 16 6 45 11 67 11 21 0 62 7 91 16 30 8
70 19 89 24 19 5 69 18 110 30 41 11 91 24 110 29 19 5 60 17 90 26 30 9 98
29 150 45 301 91 786 280 930 363 245 140 393 313 484 565 60 168 56 -66 56
3614 0 3660 3 3427 -54 3594 -88 260 -262 457 -521 591 -231 120 -709 298
-1070 398 -44 12 -125 35 -180 50 -183 51 -240 65 -272 65 -18 0 -56 9 -85 19
-64 23 -128 33 -128 20 0 -5 -6 -9 -14 -9 -16 0 -12 -47 5 -64 15 -16 11 -76
-5 -76 -16 0 -29 -27 -20 -41 3 -5 10 -7 15 -3 10 6 39 -13 39 -25 0 -12 -73
-4 -205 23 -71 14 -155 31 -185 37 -30 6 -77 17 -105 25 -27 7 -81 19 -119 25
-53 9 -70 16 -73 30 -4 13 -10 16 -19 11 -21 -12 -82 -2 -88 14 -7 18 17 18
45 2 17 -11 22 -10 33 4 8 11 17 14 27 7 8 -5 25 -9 39 -9 22 0 23 1 9 16 -9
8 -25 17 -35 18 -10 2 -18 8 -17 12 1 5 2 14 3 19 6 26 -2 35 -30 35 -20 0
-30 5 -30 15 0 8 7 15 15 15 8 0 15 -4 15 -10 0 -5 14 -10 30 -10 23 0 30 -4
30 -20 0 -11 5 -20 11 -20 7 0 9 9 5 23 -3 12 -6 30 -6 40 0 9 -5 17 -12 17
-6 0 -20 8 -31 18 -15 12 -21 14 -24 5 -3 -7 -11 -13 -20 -13 -13 0 -13 2 1
15 8 8 20 15 27 15 8 0 9 3 3 9 -5 5 -31 11 -59 14 -27 2 -90 14 -140 25 -162
37 -379 73 -705 117 -258 34 -826 79 -1135 90 -361 12 -1186 12 -1405 0z
m1530 -329 c36 -3 157 -10 270 -16 113 -6 243 -15 290 -20 47 -5 135 -14 195
-20 61 -5 148 -14 195 -20 106 -14 244 -30 290 -35 63 -7 184 -24 255 -35 80
-13 149 -24 250 -40 59 -9 170 -30 420 -80 22 -5 65 -13 95 -19 146 -29 205
-42 330 -76 74 -20 155 -40 180 -44 25 -5 59 -13 75 -19 51 -18 184 -52 201
-52 9 0 30 -6 47 -14 18 -7 75 -26 127 -41 52 -15 121 -38 152 -51 32 -13 69
-24 84 -24 14 0 38 -7 52 -15 27 -15 91 -39 147 -55 41 -12 159 -56 220 -82
28 -11 66 -28 85 -36 19 -8 53 -22 75 -32 22 -10 69 -30 105 -45 99 -42 179
-89 241 -142 111 -95 162 -170 207 -308 16 -46 17 -312 15 -3491 -1 -3147 -3
-3446 -18 -3490 -9 -27 -25 -68 -35 -91 -11 -24 -20 -45 -20 -49 0 -28 -146
-170 -228 -221 -70 -44 -432 -206 -517 -232 -22 -7 -49 -17 -60 -22 -35 -15
-218 -80 -260 -92 -22 -5 -67 -20 -100 -33 -96 -36 -354 -112 -476 -138 -31
-7 -62 -17 -70 -21 -7 -5 -31 -12 -54 -16 -34 -6 -149 -34 -285 -69 -34 -8
-82 -19 -172 -39 -80 -18 -420 -83 -528 -101 -36 -6 -74 -14 -85 -16 -11 -3
-47 -9 -80 -14 -365 -52 -452 -63 -525 -70 -47 -4 -146 -15 -220 -24 -176 -21
-340 -36 -520 -46 -80 -5 -228 -14 -330 -21 -253 -16 -1258 -17 -1535 -1 -363
21 -482 29 -655 46 -145 15 -209 22 -375 42 -159 18 -368 47 -410 55 -27 6
-79 14 -115 18 -61 7 -243 39 -355 61 -27 6 -86 17 -130 26 -44 8 -96 19 -115
24 -19 5 -62 14 -95 20 -69 14 -327 74 -400 94 -27 8 -70 19 -95 26 -101 26
-228 61 -270 75 -25 8 -133 42 -240 75 -107 34 -229 74 -270 90 -256 99 -324
126 -398 161 -46 22 -87 39 -91 39 -14 0 -147 73 -211 115 -84 56 -147 120
-202 203 -57 87 -86 169 -100 284 -16 138 -17 6627 -1 6723 19 118 57 210 121
296 107 143 202 208 487 334 17 7 77 32 135 55 58 22 120 48 138 56 18 8 37
14 43 14 6 0 36 12 67 26 31 15 84 35 117 44 33 10 74 23 90 29 56 21 374 117
470 143 22 6 57 17 78 24 20 8 48 14 61 14 13 0 43 7 67 16 24 8 62 19 84 24
49 10 330 74 440 100 44 11 109 24 145 30 36 5 90 15 120 21 69 13 135 24 225
38 39 7 97 16 130 22 77 14 207 32 425 58 96 12 200 25 231 31 30 5 83 10 116
10 34 0 83 4 110 10 48 9 419 36 632 45 62 2 116 7 119 10 7 7 1302 -1 1392
-9z m2635 -148 c6 -4 2 -8 -7 -8 -10 0 -18 7 -18 17 0 9 3 12 8 7 4 -5 12 -12
17 -16z m20 -158 c3 -5 -1 -10 -10 -10 -9 0 -13 5 -10 10 3 6 8 10 10 10 2 0
7 -4 10 -10z m5 -9019 c0 -12 -28 -22 -34 -12 -3 5 -3 11 1 15 9 9 33 7 33 -3z
m-30 -176 c10 -12 10 -15 -4 -15 -9 0 -16 7 -16 15 0 8 2 15 4 15 2 0 9 -7 16
-15z m-720 -29 c0 -3 -4 -8 -10 -11 -5 -3 -10 -1 -10 4 0 6 5 11 10 11 6 0 10
-2 10 -4z m17 -70 c-20 -21 -84 -26 -72 -6 3 6 17 7 31 4 14 -4 24 -2 24 5 0
6 7 11 16 11 13 0 13 -2 1 -14z"/>
<path d="M7497 9379 c6 -6 57 -19 114 -29 264 -47 529 -126 782 -234 95 -40
199 -83 232 -95 259 -96 661 -414 840 -666 120 -169 193 -366 196 -534 1 -28
6 -51 10 -51 5 0 9 6 9 14 0 9 7 12 20 9 12 -3 20 -14 20 -25 0 -14 5 -18 15
-14 15 5 65 -36 65 -54 0 -6 6 -10 13 -10 7 0 36 -22 64 -50 28 -27 57 -50 63
-50 7 0 10 -8 7 -20 -4 -15 0 -20 14 -20 62 0 -82 -221 -248 -380 -225 -216
-482 -385 -873 -574 -464 -224 -1151 -449 -1545 -506 -27 -4 -99 -15 -160 -23
-341 -50 -732 -49 -1220 3 -527 55 -990 189 -1300 376 -121 73 -125 76 -154
102 -21 18 -23 24 -12 31 8 5 9 11 3 15 -6 3 -13 2 -17 -4 -10 -16 -25 -12
-25 6 0 14 8 16 42 11 l42 -6 -40 37 c-23 20 -85 74 -138 120 l-96 83 -10 -26
c-6 -14 -10 -31 -10 -36 0 -5 -7 -20 -15 -33 -47 -71 -73 -399 -46 -556 36
-203 146 -424 283 -571 71 -76 178 -169 206 -180 13 -5 49 -26 80 -47 178
-120 573 -263 877 -317 312 -55 493 -70 865 -69 317 1 537 16 803 55 112 16
494 89 572 108 39 10 97 24 130 31 172 37 421 108 610 175 72 25 157 55 190
67 50 17 139 52 250 98 81 34 486 239 555 280 47 29 100 61 118 71 51 30 205
135 227 155 11 11 29 26 41 34 105 75 177 137 282 243 67 69 122 123 122 120
0 -9 -85 -113 -92 -113 -5 0 -8 -4 -8 -8 0 -11 -146 -159 -194 -197 -21 -16
-55 -46 -75 -66 -20 -19 -44 -38 -53 -42 -17 -6 -26 -27 -12 -27 9 0 139 105
197 160 83 77 187 187 246 260 20 25 38 47 41 50 3 3 10 12 15 21 6 9 31 47
58 85 26 38 47 76 47 86 0 9 6 21 13 25 20 13 86 148 113 231 57 176 67 237
67 412 0 173 -13 255 -63 410 -50 152 -172 354 -294 490 -70 76 -168 170 -180
170 -3 0 4 -16 15 -35 12 -19 18 -42 15 -51 -8 -20 20 -48 36 -38 9 5 9 3 -1
-9 -13 -16 -15 -16 -30 1 -84 92 -369 298 -566 409 -114 64 -382 201 -455 232
-30 12 -68 29 -85 37 -16 8 -52 22 -80 33 -48 18 -60 37 -22 35 9 0 17 5 17
13 0 7 7 13 15 13 8 0 15 -4 15 -10 0 -5 9 -10 21 -10 67 0 -62 66 -251 129
-134 44 -142 47 -270 80 -221 59 -543 117 -826 151 -196 23 -243 25 -227 9z
m2938 -2833 c-20 -31 -41 -56 -46 -56 -9 0 39 77 66 106 24 28 14 1 -20 -50z"/>
<path d="M5965 9300 c-1215 -82 -2258 -427 -2945 -975 -377 -301 -640 -683
-711 -1035 -79 -393 17 -772 288 -1130 42 -55 225 -242 231 -235 3 2 -10 21
-27 41 -25 28 -29 39 -21 49 13 15 6 35 -12 35 -5 0 -8 -7 -5 -14 4 -10 1 -13
-9 -9 -17 6 -18 20 -1 26 9 3 7 9 -6 24 -9 11 -17 23 -17 26 0 17 20 3 80 -56
65 -62 154 -139 194 -167 12 -8 30 -23 41 -33 33 -31 172 -128 286 -199 186
-117 440 -250 644 -337 55 -23 109 -46 120 -51 11 -5 45 -19 75 -30 30 -12 69
-28 85 -36 l30 -14 -37 5 c-30 5 -38 3 -38 -10 0 -9 10 -20 23 -25 12 -5 15
-9 7 -9 -21 0 -53 26 -46 38 4 5 2 12 -3 15 -5 4 -13 1 -16 -5 -4 -6 -17 -14
-29 -19 -18 -7 -13 -11 39 -34 98 -44 343 -123 481 -156 218 -53 607 -121 672
-119 27 1 30 3 12 6 -139 26 -403 109 -596 188 -109 45 -379 184 -494 255
-386 237 -700 549 -820 814 -61 135 -75 199 -75 356 0 121 4 158 23 224 41
140 174 380 270 483 12 14 30 37 40 51 35 55 237 234 352 312 333 226 753 416
1135 515 428 110 679 139 1195 139 379 -1 518 -10 815 -55 421 -63 882 -213
1138 -371 43 -26 81 -48 84 -48 2 0 11 -6 18 -12 7 -7 37 -29 66 -48 60 -41
149 -119 149 -131 0 -19 -21 -8 -32 16 -6 14 -19 25 -28 25 -9 0 -21 5 -28 12
-9 10 -16 9 -28 -4 -19 -18 -10 -40 14 -37 10 1 24 0 32 -1 13 -1 12 -3 -1 -8
-13 -5 10 -32 98 -119 l115 -111 32 71 c75 165 109 317 108 487 -1 285 -92
484 -347 758 -326 351 -914 579 -1695 657 -192 20 -726 28 -925 15z m-36 -116
c17 -4 28 -10 26 -14 -3 -5 4 -11 15 -15 11 -4 18 -10 15 -14 -2 -4 9 -8 26
-9 17 0 36 -6 44 -12 7 -6 17 -10 21 -9 27 5 36 -1 24 -16 -10 -12 -9 -16 6
-22 11 -3 22 -11 26 -16 3 -6 19 -11 35 -12 15 -1 36 -3 46 -3 9 -1 22 -13 28
-26 11 -23 44 -37 97 -41 12 -1 30 -12 41 -24 20 -23 41 -28 41 -9 0 6 9 3 20
-7 12 -10 30 -19 42 -20 12 -1 24 -7 26 -13 2 -7 10 -12 19 -12 8 0 21 -7 29
-15 9 -8 11 -15 5 -15 -18 0 -13 -18 11 -42 21 -21 22 -21 29 -2 4 10 8 14 8
7 1 -7 19 -17 41 -23 22 -6 40 -16 40 -22 0 -6 7 -16 16 -23 15 -10 13 -13
-17 -20 -33 -7 -33 -8 -9 -15 14 -4 30 -3 37 2 6 5 29 5 55 -1 23 -6 57 -12
73 -14 17 -2 -112 -4 -285 -5 -449 -2 -878 -39 -1205 -103 -27 -5 -95 -18
-150 -29 -214 -42 -485 -125 -670 -205 -16 -8 -41 -17 -55 -20 -29 -8 -268
-125 -320 -157 -68 -41 -255 -167 -275 -185 -11 -10 -56 -49 -100 -86 -124
-107 -311 -323 -360 -417 -24 -47 -51 -37 -102 39 -56 85 -83 159 -90 249 -6
80 9 193 35 257 18 45 81 157 93 165 4 3 16 23 28 45 11 22 50 69 86 105 36
35 65 68 65 72 0 4 -15 9 -32 11 -23 3 -16 4 20 5 53 2 62 8 40 30 -17 17 7
40 45 44 33 3 42 21 24 46 -13 17 3 28 133 95 271 141 676 278 1065 362 66 15
161 35 210 46 132 29 414 75 535 88 310 34 306 33 349 25z m-2419 -704 c0 -5
-2 -10 -4 -10 -3 0 -8 5 -11 10 -3 6 -1 10 4 10 6 0 11 -4 11 -10z m-815
-2320 c3 -5 1 -10 -4 -10 -6 0 -11 5 -11 10 0 6 2 10 4 10 3 0 8 -4 11 -10z"/>
<path d="M4930 7601 c-8 -5 -40 -20 -70 -35 -83 -40 -138 -73 -210 -126 -88
-65 -104 -84 -140 -164 -41 -89 -42 -157 -5 -241 7 -16 16 -45 18 -64 6 -37
40 -77 101 -118 23 -16 47 -34 55 -41 25 -24 238 -122 264 -122 14 0 27 -5 29
-12 3 -8 16 -7 49 5 139 50 170 62 226 88 34 16 64 29 67 29 23 0 252 113 239
117 -7 3 -21 0 -31 -6 -35 -19 -125 -23 -247 -12 -66 7 -210 18 -320 26 -110
8 -234 22 -275 31 -41 8 -90 18 -107 21 -38 6 -44 20 -10 25 12 2 20 7 17 13
-3 5 -13 8 -22 7 -15 -3 -18 4 -17 35 0 21 3 32 6 26 2 -7 11 -13 18 -13 16 0
29 35 20 50 -3 6 7 23 24 38 16 15 46 42 65 60 20 17 42 32 51 32 8 0 15 5 15
10 0 6 8 10 18 10 10 0 24 9 32 20 8 12 26 20 42 20 26 0 28 3 29 43 2 34 3
36 6 12 3 -16 10 -33 16 -37 9 -6 9 -8 1 -8 -21 0 -23 -50 -3 -61 13 -6 19 -6
19 1 0 18 30 11 31 -7 0 -14 3 -12 10 5 12 32 13 97 1 157 -6 33 -6 54 0 62 7
9 2 20 -18 38 -15 14 -32 25 -38 25 -6 0 6 11 27 25 20 14 37 30 37 35 0 11 0
11 -20 1z m-157 -204 c-3 -5 -10 -4 -15 1 -6 6 -7 16 -3 22 6 9 9 9 16 -1 4
-7 5 -17 2 -22z m27 -48 c0 -5 -7 -9 -15 -9 -9 0 -12 6 -9 15 6 15 24 11 24
-6z m-43 -35 c-3 -4 -14 -3 -24 0 -15 6 -15 8 -3 16 16 10 39 -4 27 -16z
m-139 -91 c-10 -2 -22 -19 -27 -36 l-9 -32 -1 38 c-1 34 1 37 27 36 16 -1 20
-3 10 -6z m-71 -95 c-3 -8 -6 -5 -6 6 -1 11 2 17 5 13 3 -3 4 -12 1 -19z m428
-378 c3 -5 1 -10 -4 -10 -6 0 -11 5 -11 10 0 6 2 10 4 10 3 0 8 -4 11 -10z"/>
<path d="M8475 7590 c3 -5 10 -10 16 -10 5 0 9 5 9 10 0 6 -7 10 -16 10 -8 0
-12 -4 -9 -10z"/>
<path d="M6278 7423 c23 -2 59 -2 80 0 20 2 1 4 -43 4 -44 0 -61 -2 -37 -4z"/>
<path d="M6523 7423 c15 -2 39 -2 55 0 15 2 2 4 -28 4 -30 0 -43 -2 -27 -4z"/>
<path d="M6658 7403 c7 -3 16 -2 19 1 4 3 -2 6 -13 5 -11 0 -14 -3 -6 -6z"/>
<path d="M6538 7323 c7 -3 16 -2 19 1 4 3 -2 6 -13 5 -11 0 -14 -3 -6 -6z"/>
<path d="M6488 7303 c7 -3 16 -2 19 1 4 3 -2 6 -13 5 -11 0 -14 -3 -6 -6z"/>
<path d="M6430 7286 c-88 -34 -193 -77 -285 -116 -55 -24 -115 -48 -134 -55
-18 -7 -29 -15 -23 -18 9 -7 197 64 322 121 145 65 160 73 160 77 0 6 1 7 -40
-9z"/>
<path d="M4818 7273 c6 -2 18 -2 25 0 6 3 1 5 -13 5 -14 0 -19 -2 -12 -5z"/>
<path d="M4785 7250 c4 -6 11 -8 16 -5 14 9 11 15 -7 15 -8 0 -12 -5 -9 -10z"/>
<path d="M5823 7225 c-13 -19 -23 -40 -23 -47 1 -7 8 1 17 17 8 17 22 38 31
48 8 9 11 17 6 17 -5 0 -19 -16 -31 -35z"/>
<path d="M4745 7230 c4 -6 11 -8 16 -5 14 9 11 15 -7 15 -8 0 -12 -5 -9 -10z"/>
<path d="M4700 7200 c-8 -11 -21 -20 -30 -20 -15 -1 -58 -50 -43 -50 5 0 14 9
21 20 7 12 16 19 21 16 4 -3 21 8 36 24 16 17 24 30 19 30 -5 0 -16 -9 -24
-20z"/>
<path d="M8355 7152 c-9 -7 -85 -42 -270 -122 -22 -10 -67 -23 -100 -30 -33
-7 -67 -16 -76 -21 -9 -4 -28 -10 -44 -13 -54 -10 -48 -25 11 -27 55 -2 124
11 124 23 0 6 8 1 19 -10 19 -23 41 -29 41 -12 0 6 7 10 15 10 8 0 15 -4 15
-10 0 -5 15 -11 33 -11 24 -1 26 -3 9 -6 -13 -3 -21 -10 -19 -16 3 -7 10 -11
17 -9 7 2 21 -5 31 -14 17 -15 21 -14 69 24 28 23 62 57 76 77 30 44 84 150
84 165 0 12 -22 13 -35 2z m-108 -188 c-3 -3 -12 -4 -19 -1 -8 3 -5 6 6 6 11
1 17 -2 13 -5z m-47 -56 c0 -5 -7 -8 -15 -8 -15 0 -20 21 -8 33 7 7 23 -11 23
-25z"/>
<path d="M5705 6991 c-38 -15 -81 -33 -95 -41 -44 -24 -6 -21 60 5 35 14 71
25 80 25 17 0 40 18 40 32 0 11 -5 10 -85 -21z"/>
<path d="M6700 7010 c-13 -8 -13 -10 2 -10 9 0 20 5 23 10 8 13 -5 13 -25 0z"/>
<path d="M6633 6990 c-33 -13 -213 -28 -304 -24 -66 2 -79 0 -79 -13 0 -13 16
-14 127 -8 159 9 288 29 299 46 7 11 -14 11 -43 -1z"/>
<path d="M7687 6931 c-21 -3 -38 -9 -37 -13 0 -5 0 -12 0 -18 0 -5 7 -10 15
-10 8 0 15 5 15 10 0 12 47 13 52 1 2 -5 14 -11 27 -13 17 -2 25 2 27 14 1 10
-1 20 -4 22 -17 9 -60 12 -95 7z"/>
<path d="M7990 6919 c0 -18 -5 -21 -30 -17 -22 3 -27 2 -19 -8 17 -21 79 6 79
35 0 6 -7 11 -15 11 -9 0 -15 -9 -15 -21z"/>
<path d="M7510 6885 c-12 -13 -28 -22 -34 -18 -6 3 -5 0 2 -8 6 -7 12 -19 12
-27 0 -8 -5 -10 -12 -6 -9 5 -9 3 1 -9 13 -16 36 -14 26 3 -3 4 1 10 7 13 10
3 10 7 0 19 -18 22 -1 31 43 22 21 -4 35 -12 35 -21 0 -8 5 -11 10 -8 6 4 8
11 5 16 -4 5 -1 9 5 9 8 0 8 6 0 20 -16 29 -70 27 -100 -5z"/>
<path d="M7680 6880 c-11 -7 -12 -12 -4 -20 8 -8 14 -7 23 4 14 17 1 28 -19
16z"/>
<path d="M8078 6823 c7 -3 16 -2 19 1 4 3 -2 6 -13 5 -11 0 -14 -3 -6 -6z"/>
<path d="M8043 6813 c-18 -7 -16 -23 2 -23 8 0 15 7 15 15 0 8 -1 15 -2 14 -2
0 -9 -3 -15 -6z"/>
<path d="M7429 6781 c-1 -3 -1 -9 0 -13 0 -5 -3 -7 -8 -5 -5 1 -9 -2 -10 -8
-1 -5 7 -10 17 -10 9 0 17 5 17 10 0 6 3 15 7 21 4 6 1 11 -7 11 -8 0 -16 -3
-16 -6z"/>
<path d="M7995 6770 c-3 -5 -1 -10 4 -10 6 0 11 5 11 10 0 6 -2 10 -4 10 -3 0
-8 -4 -11 -10z"/>
<path d="M5800 6740 c-8 -5 -24 -12 -35 -16 -19 -7 -19 -8 2 -11 13 -3 32 4
45 16 22 21 16 27 -12 11z"/>
<path d="M5612 6648 c-64 -33 -129 -67 -145 -75 -27 -15 -28 -33 -1 -33 8 0
14 7 14 15 0 17 35 21 45 5 3 -5 17 -10 31 -10 13 0 24 -4 24 -10 0 -15 89
-11 135 5 21 8 42 11 45 6 11 -16 40 -20 63 -8 29 15 24 37 -10 37 -13 0 -31
7 -39 15 -14 13 -12 15 15 15 31 0 44 23 19 33 -8 3 -5 6 5 6 10 1 16 5 12 10
-5 10 -17 9 -62 -5 -14 -4 -23 -2 -23 5 0 6 11 11 25 11 34 0 31 13 -6 27 -28
11 -39 7 -147 -49z m55 -24 c-3 -3 -12 -4 -19 -1 -8 3 -5 6 6 6 11 1 17 -2 13
-5z m-44 -21 c-7 -2 -21 -2 -30 0 -10 3 -4 5 12 5 17 0 24 -2 18 -5z m-53 -23
c0 -5 -2 -10 -4 -10 -3 0 -8 5 -11 10 -3 6 -1 10 4 10 6 0 11 -4 11 -10z m105
-21 c-3 -4 -22 -6 -43 -4 -20 2 -41 4 -47 5 -5 0 -5 4 2 8 16 10 94 2 88 -9z"/>
<path d="M5855 6599 c-19 -7 -18 -8 3 -8 25 -1 52 -22 52 -40 0 -6 -6 -10 -12
-8 -8 1 -13 -9 -13 -26 0 -16 3 -28 8 -28 4 1 6 3 5 5 -2 2 4 12 13 22 16 18
17 38 6 68 -7 17 -38 25 -62 15z"/>
<path d="M5730 6525 c0 -9 5 -15 11 -13 6 2 11 8 11 13 0 5 -5 11 -11 13 -6 2
-11 -4 -11 -13z"/>
<path d="M9865 5970 c-27 -30 -12 -34 15 -5 13 14 19 25 13 25 -5 0 -18 -9
-28 -20z"/>
<path d="M9793 5915 c-33 -34 -28 -39 12 -13 19 13 35 26 35 31 0 15 -26 5
-47 -18z"/>
<path d="M9725 5870 c3 -5 -2 -10 -12 -10 -10 0 -24 -9 -31 -20 -16 -26 -8
-25 29 1 29 21 38 39 18 39 -5 0 -7 -4 -4 -10z"/>
<path d="M9624 5810 c-12 -5 -25 -13 -28 -19 -3 -5 -20 -12 -36 -16 -17 -4
-30 -13 -30 -21 0 -8 -11 -19 -24 -24 -13 -5 -27 -14 -31 -19 -3 -6 -13 -11
-21 -11 -8 0 -24 -9 -36 -20 -36 -33 -8 -23 77 28 133 80 194 128 129 102z"/>
<path d="M9351 5646 c-10 -12 -8 -13 9 -9 25 7 37 23 17 23 -8 0 -20 -6 -26
-14z"/>
<path d="M9158 5553 c7 -3 16 -2 19 1 4 3 -2 6 -13 5 -11 0 -14 -3 -6 -6z"/>
<path d="M9115 5530 c-3 -5 1 -10 9 -10 9 0 16 5 16 10 0 6 -4 10 -9 10 -6 0
-13 -4 -16 -10z"/>
<path d="M9005 5488 c-38 -17 -78 -34 -87 -39 -10 -5 -25 -9 -33 -9 -8 0 -15
-4 -15 -10 0 -12 25 -13 48 -1 9 5 46 21 82 36 59 25 109 56 85 54 -6 0 -41
-15 -80 -31z"/>
<path d="M8623 5339 c-18 -5 -33 -12 -33 -14 0 -11 37 -4 56 10 22 16 21 17
-23 4z"/>
<path d="M8420 5275 c-13 -16 -8 -18 27 -9 13 4 20 10 17 15 -8 14 -30 11 -44
-6z"/>
<path d="M8355 5250 c-3 -5 -17 -10 -30 -10 -13 0 -27 -4 -30 -10 -10 -16 26
-10 70 10 30 14 35 19 18 19 -12 1 -25 -3 -28 -9z"/>
<path d="M7200 5009 c0 -5 5 -7 10 -4 6 3 10 8 10 11 0 2 -4 4 -10 4 -5 0 -10
-5 -10 -11z"/>
<path d="M3305 4468 c-132 -12 -234 -58 -319 -141 -169 -166 -182 -465 -28
-633 90 -98 185 -154 437 -259 266 -111 353 -170 395 -266 80 -186 -102 -366
-350 -345 -152 12 -280 66 -391 162 -76 66 -93 72 -127 47 -26 -19 -38 -52
-73 -197 -16 -65 1 -90 84 -124 161 -66 314 -95 507 -96 105 0 167 5 225 18
285 64 438 257 422 531 -13 202 -101 334 -301 451 -33 20 -140 70 -236 111
-202 86 -268 122 -329 178 -56 51 -80 104 -81 176 0 69 27 113 88 147 120 67
366 36 581 -73 122 -61 141 -49 172 108 31 153 37 147 -177 175 -93 12 -212
25 -264 28 -52 2 -108 6 -125 8 -16 1 -66 -1 -110 -6z"/>
<path d="M9250 4440 c-19 -4 -42 -17 -51 -28 -8 -11 -69 -161 -134 -333 -131
-348 -242 -636 -405 -1051 -60 -152 -112 -288 -116 -302 -4 -17 0 -35 10 -51
16 -25 19 -25 153 -25 113 0 140 3 155 17 10 9 41 88 68 177 28 89 61 190 73
226 l22 65 261 3 c202 2 264 -1 271 -10 6 -7 40 -98 77 -203 37 -104 72 -203
78 -218 20 -51 38 -55 234 -59 167 -3 183 -1 203 16 11 11 21 26 21 34 0 8
-22 60 -49 116 -75 154 -152 339 -474 1144 -138 345 -187 456 -205 468 -28 18
-143 27 -192 14z m141 -835 c54 -142 96 -262 93 -267 -7 -11 -381 -11 -388 1
-8 13 176 532 187 528 6 -2 55 -119 108 -262z"/>
<path d="M4285 4200 c-17 -19 -18 -57 -16 -767 2 -672 3 -749 18 -765 15 -17
48 -18 488 -18 388 0 475 2 490 14 16 11 20 29 23 88 4 84 -8 125 -41 137 -15
6 -68 2 -153 -11 -164 -25 -516 -37 -539 -18 -13 10 -15 51 -15 258 l0 245
236 -6 237 -5 24 24 c23 23 25 32 21 93 -6 109 7 104 -273 100 l-240 -4 -3
214 c-2 160 1 217 10 229 11 13 42 14 213 9 110 -3 253 -13 318 -21 162 -21
177 -12 177 113 0 120 40 111 -498 111 -447 0 -459 -1 -477 -20z"/>
<path d="M5417 4202 c-16 -17 -17 -85 -17 -769 0 -714 1 -751 18 -766 15 -14
40 -17 120 -17 157 0 147 -26 138 355 -3 172 -4 320 0 329 5 13 22 16 101 16
52 0 103 -5 113 -10 27 -14 53 -54 250 -379 94 -157 179 -291 188 -298 21 -15
244 -18 273 -3 35 19 24 61 -39 146 -32 44 -80 111 -107 149 -27 39 -87 124
-134 190 -150 211 -161 228 -161 239 0 6 34 28 75 49 132 68 225 193 244 329
18 133 -20 248 -112 335 -119 113 -167 123 -598 123 -313 0 -337 -1 -352 -18z
m669 -187 c37 -23 56 -44 77 -85 26 -51 28 -62 25 -145 -6 -133 -41 -190 -143
-237 -44 -20 -69 -23 -204 -26 -121 -3 -156 -1 -163 10 -12 18 2 489 15 506 8
11 48 13 177 10 165 -3 167 -3 216 -33z"/>
<path d="M6700 4200 c-20 -20 -20 -33 -20 -768 0 -713 1 -750 18 -765 24 -22
208 -24 237 -3 18 13 19 42 19 762 l1 749 -22 23 c-20 20 -32 22 -118 22 -82
0 -98 -3 -115 -20z"/>
<path d="M7232 4204 l-22 -15 0 -753 c0 -717 1 -754 18 -769 17 -15 66 -17
495 -17 l476 0 15 22 c11 16 16 46 16 103 0 74 -2 84 -25 105 l-25 23 -147
-23 c-179 -27 -514 -40 -538 -20 -13 10 -15 52 -15 256 0 188 3 244 13 245 37
2 209 -2 327 -7 170 -7 173 -6 178 98 3 62 1 77 -16 98 l-20 24 -163 -4 c-90
-2 -198 -5 -239 -5 l-75 0 -3 214 c-2 160 1 217 10 229 11 13 41 14 208 9 107
-3 245 -13 305 -21 142 -20 151 -20 175 4 28 28 30 178 2 203 -17 15 -64 17
-473 17 -395 0 -457 -2 -477 -16z"/>
<path d="M9878 10393 c7 -3 16 -2 19 1 4 3 -2 6 -13 5 -11 0 -14 -3 -6 -6z"/>
<path d="M9837 1090 c3 -11 12 -20 19 -20 17 0 18 12 2 28 -18 18 -27 15 -21
-8z"/>
<path d="M9845 890 c-8 -13 25 -13 45 0 12 8 9 10 -12 10 -15 0 -30 -4 -33
-10z"/>
</g>
</svg>
